<?xml version="1.0" encoding="utf-8"?>
<!-- Generator: Adobe Illustrator 24.1.0, SVG Export Plug-In . SVG Version: 6.00 Build 0)  -->
<svg version="1.1" id="Layer_1" xmlns="http://www.w3.org/2000/svg" xmlns:xlink="http://www.w3.org/1999/xlink" x="0px" y="0px"
	 viewBox="0 0 833.1 404.4" style="enable-background:new 0 0 833.1 404.4;" xml:space="preserve">
<style type="text/css">
	.st0{clip-path:url(#SVGID_2_);fill:#DC267F;}
	.st1{clip-path:url(#SVGID_2_);fill:none;stroke:#000000;stroke-width:4;}
	.st2{clip-path:url(#SVGID_4_);}
	.st3{fill:#FFFFFF;}
	.st4{font-family:'CMUSansSerif';}
	.st5{font-size:40px;}
	.st6{clip-path:url(#SVGID_6_);fill:#DC267F;}
	.st7{clip-path:url(#SVGID_6_);fill:none;stroke:#000000;stroke-width:4;}
	.st8{clip-path:url(#SVGID_8_);}
	.st9{clip-path:url(#SVGID_10_);fill:#DC267F;}
	.st10{clip-path:url(#SVGID_10_);fill:none;stroke:#000000;stroke-width:4;}
	.st11{clip-path:url(#SVGID_12_);}
	.st12{clip-path:url(#SVGID_14_);fill:#DC267F;}
	.st13{clip-path:url(#SVGID_14_);fill:none;stroke:#000000;stroke-width:4;}
	.st14{clip-path:url(#SVGID_16_);}
	.st15{clip-path:url(#SVGID_18_);fill:#785EF0;}
	.st16{clip-path:url(#SVGID_18_);fill:none;stroke:#000000;stroke-width:4;}
	.st17{clip-path:url(#SVGID_20_);}
	.st18{clip-path:url(#SVGID_22_);fill:#785EF0;}
	.st19{clip-path:url(#SVGID_22_);fill:none;stroke:#000000;stroke-width:4;}
	.st20{clip-path:url(#SVGID_24_);}
	.st21{clip-path:url(#SVGID_26_);fill:#785EF0;}
	.st22{clip-path:url(#SVGID_26_);fill:none;stroke:#000000;stroke-width:4;}
	.st23{clip-path:url(#SVGID_28_);}
	.st24{clip-path:url(#SVGID_30_);fill:#785EF0;}
	.st25{clip-path:url(#SVGID_30_);fill:none;stroke:#000000;stroke-width:4;}
	.st26{clip-path:url(#SVGID_32_);}
	.st27{clip-path:url(#SVGID_34_);fill:#FFB000;}
	.st28{clip-path:url(#SVGID_34_);fill:none;stroke:#000000;stroke-width:4;}
	.st29{clip-path:url(#SVGID_36_);}
	.st30{clip-path:url(#SVGID_38_);fill:#FFB000;}
	.st31{clip-path:url(#SVGID_38_);fill:none;stroke:#000000;stroke-width:4;}
	.st32{clip-path:url(#SVGID_40_);}
	.st33{clip-path:url(#SVGID_42_);fill:#FFB000;}
	.st34{clip-path:url(#SVGID_42_);fill:none;stroke:#000000;stroke-width:4;}
	.st35{clip-path:url(#SVGID_44_);}
	.st36{clip-path:url(#SVGID_46_);fill:#FFB000;}
	.st37{clip-path:url(#SVGID_46_);fill:none;stroke:#000000;stroke-width:4;}
	.st38{clip-path:url(#SVGID_48_);}
	.st39{clip-path:url(#SVGID_50_);}
	.st40{clip-path:url(#SVGID_52_);}
	.st41{clip-path:url(#SVGID_54_);}
	.st42{clip-path:url(#SVGID_56_);}
	.st43{clip-path:url(#SVGID_58_);}
	.st44{clip-path:url(#SVGID_60_);}
	.st45{clip-path:url(#SVGID_62_);}
	.st46{clip-path:url(#SVGID_64_);}
</style>
<g>
</g>
<g>
	<defs>
		<rect id="SVGID_1_" x="2.5" width="167.8" height="106"/>
	</defs>
	<clipPath id="SVGID_2_">
		<use xlink:href="#SVGID_1_"  style="overflow:visible;"/>
	</clipPath>
	<rect x="5.5" y="3" class="st0" width="161.8" height="100"/>
	<rect x="5.5" y="3" class="st1" width="161.8" height="100"/>
</g>
<g>
	<defs>
		<rect id="SVGID_3_" y="5" width="172.8" height="96"/>
	</defs>
	<clipPath id="SVGID_4_">
		<use xlink:href="#SVGID_3_"  style="overflow:visible;"/>
	</clipPath>
	<g class="st2">
		<text transform="matrix(1 0 0 1 51.5083 66.0001)" class="st3 st4 st5">A[1]</text>
	</g>
</g>
<g>
	<defs>
		<rect id="SVGID_5_" x="2.5" y="99.4" width="167.8" height="106"/>
	</defs>
	<clipPath id="SVGID_6_">
		<use xlink:href="#SVGID_5_"  style="overflow:visible;"/>
	</clipPath>
	<rect x="5.5" y="102.4" class="st6" width="161.8" height="100"/>
	<rect x="5.5" y="102.4" class="st7" width="161.8" height="100"/>
</g>
<g>
	<defs>
		<rect id="SVGID_7_" y="104.4" width="172.8" height="96"/>
	</defs>
	<clipPath id="SVGID_8_">
		<use xlink:href="#SVGID_7_"  style="overflow:visible;"/>
	</clipPath>
	<g class="st8">
		<text transform="matrix(1 0 0 1 51.5083 165.3658)" class="st3 st4 st5">A[2]</text>
	</g>
</g>
<g>
	<defs>
		<rect id="SVGID_9_" x="2.5" y="199.6" width="167.8" height="106"/>
	</defs>
	<clipPath id="SVGID_10_">
		<use xlink:href="#SVGID_9_"  style="overflow:visible;"/>
	</clipPath>
	<rect x="5.5" y="202.6" class="st9" width="161.8" height="100"/>
	<rect x="5.5" y="202.6" class="st10" width="161.8" height="100"/>
</g>
<g>
	<defs>
		<rect id="SVGID_11_" y="204.6" width="172.8" height="96"/>
	</defs>
	<clipPath id="SVGID_12_">
		<use xlink:href="#SVGID_11_"  style="overflow:visible;"/>
	</clipPath>
	<g class="st11">
		<text transform="matrix(1 0 0 1 51.5083 265.6329)" class="st3 st4 st5">A[3]</text>
	</g>
</g>
<g>
	<defs>
		<rect id="SVGID_13_" x="2.5" y="298.4" width="167.8" height="106"/>
	</defs>
	<clipPath id="SVGID_14_">
		<use xlink:href="#SVGID_13_"  style="overflow:visible;"/>
	</clipPath>
	<rect x="5.5" y="301.4" class="st12" width="161.8" height="100"/>
	<rect x="5.5" y="301.4" class="st13" width="161.8" height="100"/>
</g>
<g>
	<defs>
		<rect id="SVGID_15_" x="0" y="303.4" width="172.8" height="96"/>
	</defs>
	<clipPath id="SVGID_16_">
		<use xlink:href="#SVGID_15_"  style="overflow:visible;"/>
	</clipPath>
	<g class="st14">
		<text transform="matrix(1 0 0 1 51.5311 364.4357)" class="st3 st4 st5">A[4]</text>
	</g>
</g>
<g>
	<defs>
		<rect id="SVGID_17_" x="332.6" width="167.8" height="106"/>
	</defs>
	<clipPath id="SVGID_18_">
		<use xlink:href="#SVGID_17_"  style="overflow:visible;"/>
	</clipPath>
	<rect x="335.6" y="3" class="st15" width="161.8" height="100"/>
	<rect x="335.6" y="3" class="st16" width="161.8" height="100"/>
</g>
<g>
	<defs>
		<rect id="SVGID_19_" x="330.1" y="5" width="172.8" height="96"/>
	</defs>
	<clipPath id="SVGID_20_">
		<use xlink:href="#SVGID_19_"  style="overflow:visible;"/>
	</clipPath>
	<g class="st17">
		<text transform="matrix(1 0 0 1 381.656 66.0002)" class="st3 st4 st5">B[1]</text>
	</g>
</g>
<g>
	<defs>
		<rect id="SVGID_21_" x="332.6" y="99.4" width="167.8" height="106"/>
	</defs>
	<clipPath id="SVGID_22_">
		<use xlink:href="#SVGID_21_"  style="overflow:visible;"/>
	</clipPath>
	<rect x="335.6" y="102.4" class="st18" width="161.8" height="100"/>
	<rect x="335.6" y="102.4" class="st19" width="161.8" height="100"/>
</g>
<g>
	<defs>
		<rect id="SVGID_23_" x="330.1" y="104.4" width="172.8" height="96"/>
	</defs>
	<clipPath id="SVGID_24_">
		<use xlink:href="#SVGID_23_"  style="overflow:visible;"/>
	</clipPath>
	<g class="st20">
		<text transform="matrix(1 0 0 1 381.656 165.3658)" class="st3 st4 st5">B[2]</text>
	</g>
</g>
<g>
	<defs>
		<rect id="SVGID_25_" x="332.6" y="199.6" width="167.8" height="106"/>
	</defs>
	<clipPath id="SVGID_26_">
		<use xlink:href="#SVGID_25_"  style="overflow:visible;"/>
	</clipPath>
	<rect x="335.6" y="202.6" class="st21" width="161.8" height="100"/>
	<rect x="335.6" y="202.6" class="st22" width="161.8" height="100"/>
</g>
<g>
	<defs>
		<rect id="SVGID_27_" x="330.1" y="204.6" width="172.8" height="96"/>
	</defs>
	<clipPath id="SVGID_28_">
		<use xlink:href="#SVGID_27_"  style="overflow:visible;"/>
	</clipPath>
	<g class="st23">
		<text transform="matrix(1 0 0 1 381.656 265.6329)" class="st3 st4 st5">B[3]</text>
	</g>
</g>
<g>
	<defs>
		<rect id="SVGID_29_" x="332.7" y="298.4" width="167.8" height="106"/>
	</defs>
	<clipPath id="SVGID_30_">
		<use xlink:href="#SVGID_29_"  style="overflow:visible;"/>
	</clipPath>
	<rect x="335.7" y="301.4" class="st24" width="161.8" height="100"/>
	<rect x="335.7" y="301.4" class="st25" width="161.8" height="100"/>
</g>
<g>
	<defs>
		<rect id="SVGID_31_" x="330.2" y="303.4" width="172.8" height="96"/>
	</defs>
	<clipPath id="SVGID_32_">
		<use xlink:href="#SVGID_31_"  style="overflow:visible;"/>
	</clipPath>
	<g class="st26">
		<text transform="matrix(1 0 0 1 381.6788 364.4357)" class="st3 st4 st5">B[4]</text>
	</g>
</g>
<g>
	<defs>
		<rect id="SVGID_33_" x="662.8" width="167.8" height="106"/>
	</defs>
	<clipPath id="SVGID_34_">
		<use xlink:href="#SVGID_33_"  style="overflow:visible;"/>
	</clipPath>
	<rect x="665.8" y="3" class="st27" width="161.8" height="100"/>
	<rect x="665.8" y="3" class="st28" width="161.8" height="100"/>
</g>
<g>
	<defs>
		<rect id="SVGID_35_" x="660.3" y="5" width="172.8" height="96"/>
	</defs>
	<clipPath id="SVGID_36_">
		<use xlink:href="#SVGID_35_"  style="overflow:visible;"/>
	</clipPath>
	<g class="st29">
		<text transform="matrix(1 0 0 1 712.3634 66.0002)" class="st3 st4 st5">C[1]</text>
	</g>
</g>
<g>
	<defs>
		<rect id="SVGID_37_" x="662.8" y="99.4" width="167.8" height="106"/>
	</defs>
	<clipPath id="SVGID_38_">
		<use xlink:href="#SVGID_37_"  style="overflow:visible;"/>
	</clipPath>
	<rect x="665.8" y="102.4" class="st30" width="161.8" height="100"/>
	<rect x="665.8" y="102.4" class="st31" width="161.8" height="100"/>
</g>
<g>
	<defs>
		<rect id="SVGID_39_" x="660.3" y="104.4" width="172.8" height="96"/>
	</defs>
	<clipPath id="SVGID_40_">
		<use xlink:href="#SVGID_39_"  style="overflow:visible;"/>
	</clipPath>
	<g class="st32">
		<text transform="matrix(1 0 0 1 712.3634 165.3658)" class="st3 st4 st5">C[2]</text>
	</g>
</g>
<g>
	<defs>
		<rect id="SVGID_41_" x="662.8" y="199.6" width="167.8" height="106"/>
	</defs>
	<clipPath id="SVGID_42_">
		<use xlink:href="#SVGID_41_"  style="overflow:visible;"/>
	</clipPath>
	<rect x="665.8" y="202.6" class="st33" width="161.8" height="100"/>
	<rect x="665.8" y="202.6" class="st34" width="161.8" height="100"/>
</g>
<g>
	<defs>
		<rect id="SVGID_43_" x="660.3" y="204.6" width="172.8" height="96"/>
	</defs>
	<clipPath id="SVGID_44_">
		<use xlink:href="#SVGID_43_"  style="overflow:visible;"/>
	</clipPath>
	<g class="st35">
		<text transform="matrix(1 0 0 1 712.3634 265.6329)" class="st3 st4 st5">C[3]</text>
	</g>
</g>
<g>
	<defs>
		<rect id="SVGID_45_" x="662.8" y="298.4" width="167.8" height="106"/>
	</defs>
	<clipPath id="SVGID_46_">
		<use xlink:href="#SVGID_45_"  style="overflow:visible;"/>
	</clipPath>
	<rect x="665.8" y="301.4" class="st36" width="161.8" height="100"/>
	<rect x="665.8" y="301.4" class="st37" width="161.8" height="100"/>
</g>
<g>
	<defs>
		<rect id="SVGID_47_" x="660.3" y="303.4" width="172.8" height="96"/>
	</defs>
	<clipPath id="SVGID_48_">
		<use xlink:href="#SVGID_47_"  style="overflow:visible;"/>
	</clipPath>
	<g class="st38">
		<text transform="matrix(1 0 0 1 712.3864 364.4357)" class="st3 st4 st5">C[4]</text>
	</g>
</g>
<g>
	<defs>
		<rect id="SVGID_49_" x="223.9" y="18.5" width="55.1" height="77"/>
	</defs>
	<clipPath id="SVGID_50_">
		<use xlink:href="#SVGID_49_"  style="overflow:visible;"/>
	</clipPath>
	<g class="st39">
		<text transform="matrix(1 0 0 1 235.4221 66.0001)" class="st4 st5">=</text>
	</g>
</g>
<g>
	<defs>
		<rect id="SVGID_51_" x="223.9" y="115.2" width="55.1" height="77"/>
	</defs>
	<clipPath id="SVGID_52_">
		<use xlink:href="#SVGID_51_"  style="overflow:visible;"/>
	</clipPath>
	<g class="st40">
		<text transform="matrix(1 0 0 1 235.4221 162.7064)" class="st4 st5">=</text>
	</g>
</g>
<g>
	<defs>
		<rect id="SVGID_53_" x="223.9" y="218.1" width="55.1" height="77"/>
	</defs>
	<clipPath id="SVGID_54_">
		<use xlink:href="#SVGID_53_"  style="overflow:visible;"/>
	</clipPath>
	<g class="st41">
		<text transform="matrix(1 0 0 1 235.4221 265.6328)" class="st4 st5">=</text>
	</g>
</g>
<g>
	<defs>
		<rect id="SVGID_55_" x="223.9" y="316.9" width="55.1" height="77"/>
	</defs>
	<clipPath id="SVGID_56_">
		<use xlink:href="#SVGID_55_"  style="overflow:visible;"/>
	</clipPath>
	<g class="st42">
		<text transform="matrix(1 0 0 1 235.4221 364.4356)" class="st4 st5">=</text>
	</g>
</g>
<g>
	<defs>
		<rect id="SVGID_57_" x="554.1" y="18.5" width="55.1" height="77"/>
	</defs>
	<clipPath id="SVGID_58_">
		<use xlink:href="#SVGID_57_"  style="overflow:visible;"/>
	</clipPath>
	<g class="st43">
		<text transform="matrix(1 0 0 1 565.5693 66.0001)" class="st4 st5">+</text>
	</g>
</g>
<g>
	<defs>
		<rect id="SVGID_59_" x="554.1" y="115.2" width="55.1" height="77"/>
	</defs>
	<clipPath id="SVGID_60_">
		<use xlink:href="#SVGID_59_"  style="overflow:visible;"/>
	</clipPath>
	<g class="st44">
		<text transform="matrix(1 0 0 1 565.5693 162.7064)" class="st4 st5">+</text>
	</g>
</g>
<g>
	<defs>
		<rect id="SVGID_61_" x="554.1" y="218.1" width="55.1" height="77"/>
	</defs>
	<clipPath id="SVGID_62_">
		<use xlink:href="#SVGID_61_"  style="overflow:visible;"/>
	</clipPath>
	<g class="st45">
		<text transform="matrix(1 0 0 1 565.5693 265.6328)" class="st4 st5">+</text>
	</g>
</g>
<g>
	<defs>
		<rect id="SVGID_63_" x="554.1" y="316.9" width="55.1" height="77"/>
	</defs>
	<clipPath id="SVGID_64_">
		<use xlink:href="#SVGID_63_"  style="overflow:visible;"/>
	</clipPath>
	<g class="st46">
		<text transform="matrix(1 0 0 1 565.5693 364.4356)" class="st4 st5">+</text>
	</g>
</g>
</svg>
