<?xml version="1.0" encoding="utf-8"?>
<svg xmlns="http://www.w3.org/2000/svg" xmlns:xlink="http://www.w3.org/1999/xlink" width="600" height="400" viewBox="0 0 2400 1600">
<defs>
  <clipPath id="clip510">
    <rect x="0" y="0" width="2400" height="1600"/>
  </clipPath>
</defs>
<path clip-path="url(#clip510)" d="M0 1600 L2400 1600 L2400 0 L0 0  Z" fill="#ffffff" fill-rule="evenodd" fill-opacity="1"/>
<defs>
  <clipPath id="clip511">
    <rect x="480" y="0" width="1681" height="1600"/>
  </clipPath>
</defs>
<path clip-path="url(#clip510)" d="M234.125 1410.9 L2352.76 1410.9 L2352.76 47.2441 L234.125 47.2441  Z" fill="#ffffff" fill-rule="evenodd" fill-opacity="1"/>
<defs>
  <clipPath id="clip512">
    <rect x="234" y="47" width="2120" height="1365"/>
  </clipPath>
</defs>
<polyline clip-path="url(#clip512)" style="stroke:#000000; stroke-linecap:round; stroke-linejoin:round; stroke-width:2; stroke-opacity:0.1; fill:none" points="790.344,1410.9 790.344,47.2441 "/>
<polyline clip-path="url(#clip512)" style="stroke:#000000; stroke-linecap:round; stroke-linejoin:round; stroke-width:2; stroke-opacity:0.1; fill:none" points="1786.28,1410.9 1786.28,47.2441 "/>
<polyline clip-path="url(#clip510)" style="stroke:#000000; stroke-linecap:round; stroke-linejoin:round; stroke-width:4; stroke-opacity:1; fill:none" points="234.125,1410.9 2352.76,1410.9 "/>
<polyline clip-path="url(#clip510)" style="stroke:#000000; stroke-linecap:round; stroke-linejoin:round; stroke-width:4; stroke-opacity:1; fill:none" points="234.125,47.2441 2352.76,47.2441 "/>
<polyline clip-path="url(#clip510)" style="stroke:#000000; stroke-linecap:round; stroke-linejoin:round; stroke-width:4; stroke-opacity:1; fill:none" points="790.344,1410.9 790.344,1392 "/>
<polyline clip-path="url(#clip510)" style="stroke:#000000; stroke-linecap:round; stroke-linejoin:round; stroke-width:4; stroke-opacity:1; fill:none" points="1786.28,1410.9 1786.28,1392 "/>
<path clip-path="url(#clip510)" d="M755.788 1485.02 L763.427 1485.02 L763.427 1458.66 L755.117 1460.32 L755.117 1456.06 L763.38 1454.4 L768.056 1454.4 L768.056 1485.02 L775.695 1485.02 L775.695 1488.96 L755.788 1488.96 L755.788 1485.02 Z" fill="#000000" fill-rule="nonzero" fill-opacity="1" /><path clip-path="url(#clip510)" d="M795.14 1457.48 Q791.528 1457.48 789.7 1461.04 Q787.894 1464.58 787.894 1471.71 Q787.894 1478.82 789.7 1482.38 Q791.528 1485.92 795.14 1485.92 Q798.774 1485.92 800.579 1482.38 Q802.408 1478.82 802.408 1471.71 Q802.408 1464.58 800.579 1461.04 Q798.774 1457.48 795.14 1457.48 M795.14 1453.77 Q800.95 1453.77 804.005 1458.38 Q807.084 1462.96 807.084 1471.71 Q807.084 1480.44 804.005 1485.04 Q800.95 1489.63 795.14 1489.63 Q789.329 1489.63 786.251 1485.04 Q783.195 1480.44 783.195 1471.71 Q783.195 1462.96 786.251 1458.38 Q789.329 1453.77 795.14 1453.77 Z" fill="#000000" fill-rule="nonzero" fill-opacity="1" /><path clip-path="url(#clip510)" d="M819.779 1446.41 Q822.506 1446.99 824.03 1448.83 Q825.572 1450.68 825.572 1453.38 Q825.572 1457.54 822.713 1459.82 Q819.854 1462.09 814.588 1462.09 Q812.82 1462.09 810.94 1461.73 Q809.078 1461.4 807.084 1460.7 L807.084 1457.03 Q808.664 1457.95 810.545 1458.42 Q812.425 1458.89 814.475 1458.89 Q818.049 1458.89 819.911 1457.48 Q821.792 1456.07 821.792 1453.38 Q821.792 1450.9 820.043 1449.51 Q818.312 1448.1 815.209 1448.1 L811.936 1448.1 L811.936 1444.98 L815.359 1444.98 Q818.162 1444.98 819.648 1443.87 Q821.133 1442.74 821.133 1440.63 Q821.133 1438.47 819.591 1437.32 Q818.068 1436.16 815.209 1436.16 Q813.648 1436.16 811.861 1436.49 Q810.074 1436.83 807.93 1437.55 L807.93 1434.16 Q810.093 1433.56 811.974 1433.26 Q813.874 1432.96 815.547 1432.96 Q819.873 1432.96 822.393 1434.93 Q824.914 1436.89 824.914 1440.24 Q824.914 1442.57 823.578 1444.19 Q822.243 1445.79 819.779 1446.41 Z" fill="#000000" fill-rule="nonzero" fill-opacity="1" /><path clip-path="url(#clip510)" d="M1751.27 1485.02 L1758.91 1485.02 L1758.91 1458.66 L1750.6 1460.32 L1750.6 1456.06 L1758.86 1454.4 L1763.54 1454.4 L1763.54 1485.02 L1771.18 1485.02 L1771.18 1488.96 L1751.27 1488.96 L1751.27 1485.02 Z" fill="#000000" fill-rule="nonzero" fill-opacity="1" /><path clip-path="url(#clip510)" d="M1790.62 1457.48 Q1787.01 1457.48 1785.18 1461.04 Q1783.38 1464.58 1783.38 1471.71 Q1783.38 1478.82 1785.18 1482.38 Q1787.01 1485.92 1790.62 1485.92 Q1794.26 1485.92 1796.06 1482.38 Q1797.89 1478.82 1797.89 1471.71 Q1797.89 1464.58 1796.06 1461.04 Q1794.26 1457.48 1790.62 1457.48 M1790.62 1453.77 Q1796.43 1453.77 1799.49 1458.38 Q1802.57 1462.96 1802.57 1471.71 Q1802.57 1480.44 1799.49 1485.04 Q1796.43 1489.63 1790.62 1489.63 Q1784.81 1489.63 1781.73 1485.04 Q1778.68 1480.44 1778.68 1471.71 Q1778.68 1462.96 1781.73 1458.38 Q1784.81 1453.77 1790.62 1453.77 Z" fill="#000000" fill-rule="nonzero" fill-opacity="1" /><path clip-path="url(#clip510)" d="M1812.59 1445.99 Q1810.03 1445.99 1808.53 1447.74 Q1807.04 1449.49 1807.04 1452.54 Q1807.04 1455.57 1808.53 1457.33 Q1810.03 1459.08 1812.59 1459.08 Q1815.15 1459.08 1816.64 1457.33 Q1818.14 1455.57 1818.14 1452.54 Q1818.14 1449.49 1816.64 1447.74 Q1815.15 1445.99 1812.59 1445.99 M1820.13 1434.09 L1820.13 1437.55 Q1818.7 1436.87 1817.24 1436.51 Q1815.79 1436.16 1814.36 1436.16 Q1810.6 1436.16 1808.6 1438.69 Q1806.63 1441.23 1806.35 1446.37 Q1807.46 1444.73 1809.13 1443.87 Q1810.81 1442.98 1812.82 1442.98 Q1817.05 1442.98 1819.49 1445.56 Q1821.96 1448.12 1821.96 1452.54 Q1821.96 1456.86 1819.4 1459.48 Q1816.84 1462.09 1812.59 1462.09 Q1807.72 1462.09 1805.14 1458.37 Q1802.57 1454.62 1802.57 1447.53 Q1802.57 1440.88 1805.73 1436.93 Q1808.89 1432.96 1814.21 1432.96 Q1815.64 1432.96 1817.09 1433.24 Q1818.55 1433.52 1820.13 1434.09 Z" fill="#000000" fill-rule="nonzero" fill-opacity="1" /><path clip-path="url(#clip510)" d="M1089.23 1538.54 L1095.44 1538.54 L1106.58 1568.46 L1117.72 1538.54 L1123.92 1538.54 L1110.55 1574.19 L1102.6 1574.19 L1089.23 1538.54 Z" fill="#000000" fill-rule="nonzero" fill-opacity="1" /><path clip-path="url(#clip510)" d="M1162.5 1554.9 L1162.5 1557.76 L1135.57 1557.76 Q1135.95 1563.81 1139.2 1566.99 Q1142.48 1570.14 1148.3 1570.14 Q1151.68 1570.14 1154.83 1569.32 Q1158.01 1568.49 1161.13 1566.83 L1161.13 1572.37 Q1157.98 1573.71 1154.67 1574.41 Q1151.36 1575.11 1147.95 1575.11 Q1139.42 1575.11 1134.43 1570.14 Q1129.46 1565.18 1129.46 1556.71 Q1129.46 1547.96 1134.17 1542.83 Q1138.91 1537.68 1146.93 1537.68 Q1154.13 1537.68 1158.3 1542.33 Q1162.5 1546.94 1162.5 1554.9 M1156.64 1553.18 Q1156.58 1548.37 1153.94 1545.51 Q1151.33 1542.64 1147 1542.64 Q1142.1 1542.64 1139.14 1545.41 Q1136.21 1548.18 1135.76 1553.21 L1156.64 1553.18 Z" fill="#000000" fill-rule="nonzero" fill-opacity="1" /><path clip-path="url(#clip510)" d="M1197.76 1539.91 L1197.76 1545.38 Q1195.28 1544.01 1192.77 1543.34 Q1190.28 1542.64 1187.74 1542.64 Q1182.04 1542.64 1178.89 1546.27 Q1175.74 1549.87 1175.74 1556.39 Q1175.74 1562.92 1178.89 1566.55 Q1182.04 1570.14 1187.74 1570.14 Q1190.28 1570.14 1192.77 1569.47 Q1195.28 1568.77 1197.76 1567.41 L1197.76 1572.82 Q1195.31 1573.96 1192.67 1574.54 Q1190.06 1575.11 1187.1 1575.11 Q1179.05 1575.11 1174.31 1570.05 Q1169.56 1564.99 1169.56 1556.39 Q1169.56 1547.67 1174.34 1542.68 Q1179.14 1537.68 1187.48 1537.68 Q1190.19 1537.68 1192.77 1538.25 Q1195.35 1538.79 1197.76 1539.91 Z" fill="#000000" fill-rule="nonzero" fill-opacity="1" /><path clip-path="url(#clip510)" d="M1213.74 1528.42 L1213.74 1538.54 L1225.81 1538.54 L1225.81 1543.09 L1213.74 1543.09 L1213.74 1562.44 Q1213.74 1566.8 1214.92 1568.04 Q1216.13 1569.28 1219.79 1569.28 L1225.81 1569.28 L1225.81 1574.19 L1219.79 1574.19 Q1213.01 1574.19 1210.43 1571.67 Q1207.85 1569.12 1207.85 1562.44 L1207.85 1543.09 L1203.56 1543.09 L1203.56 1538.54 L1207.85 1538.54 L1207.85 1528.42 L1213.74 1528.42 Z" fill="#000000" fill-rule="nonzero" fill-opacity="1" /><path clip-path="url(#clip510)" d="M1247.32 1542.64 Q1242.61 1542.64 1239.87 1546.34 Q1237.14 1550 1237.14 1556.39 Q1237.14 1562.79 1239.84 1566.48 Q1242.58 1570.14 1247.32 1570.14 Q1252 1570.14 1254.74 1566.45 Q1257.47 1562.76 1257.47 1556.39 Q1257.47 1550.06 1254.74 1546.37 Q1252 1542.64 1247.32 1542.64 M1247.32 1537.68 Q1254.96 1537.68 1259.32 1542.64 Q1263.68 1547.61 1263.68 1556.39 Q1263.68 1565.15 1259.32 1570.14 Q1254.96 1575.11 1247.32 1575.11 Q1239.65 1575.11 1235.29 1570.14 Q1230.96 1565.15 1230.96 1556.39 Q1230.96 1547.61 1235.29 1542.64 Q1239.65 1537.68 1247.32 1537.68 Z" fill="#000000" fill-rule="nonzero" fill-opacity="1" /><path clip-path="url(#clip510)" d="M1294.05 1544.01 Q1293.06 1543.44 1291.88 1543.18 Q1290.74 1542.9 1289.33 1542.9 Q1284.37 1542.9 1281.7 1546.14 Q1279.05 1549.36 1279.05 1555.41 L1279.05 1574.19 L1273.17 1574.19 L1273.17 1538.54 L1279.05 1538.54 L1279.05 1544.08 Q1280.9 1540.83 1283.86 1539.27 Q1286.82 1537.68 1291.05 1537.68 Q1291.66 1537.68 1292.39 1537.77 Q1293.12 1537.84 1294.01 1538 L1294.05 1544.01 Z" fill="#000000" fill-rule="nonzero" fill-opacity="1" /><path clip-path="url(#clip510)" d="M1343.63 1539.59 L1343.63 1545.13 Q1341.15 1543.85 1338.48 1543.22 Q1335.8 1542.58 1332.94 1542.58 Q1328.58 1542.58 1326.38 1543.92 Q1324.22 1545.25 1324.22 1547.93 Q1324.22 1549.96 1325.78 1551.14 Q1327.34 1552.29 1332.05 1553.34 L1334.05 1553.78 Q1340.29 1555.12 1342.9 1557.57 Q1345.54 1559.99 1345.54 1564.35 Q1345.54 1569.32 1341.6 1572.21 Q1337.68 1575.11 1330.81 1575.11 Q1327.94 1575.11 1324.82 1574.54 Q1321.74 1573.99 1318.3 1572.88 L1318.3 1566.83 Q1321.55 1568.52 1324.7 1569.38 Q1327.85 1570.21 1330.93 1570.21 Q1335.07 1570.21 1337.3 1568.81 Q1339.53 1567.37 1339.53 1564.8 Q1339.53 1562.41 1337.91 1561.14 Q1336.31 1559.86 1330.87 1558.68 L1328.83 1558.21 Q1323.39 1557.06 1320.97 1554.71 Q1318.55 1552.32 1318.55 1548.18 Q1318.55 1543.15 1322.12 1540.42 Q1325.68 1537.68 1332.24 1537.68 Q1335.49 1537.68 1338.35 1538.16 Q1341.22 1538.63 1343.63 1539.59 Z" fill="#000000" fill-rule="nonzero" fill-opacity="1" /><path clip-path="url(#clip510)" d="M1354.87 1538.54 L1360.73 1538.54 L1360.73 1574.19 L1354.87 1574.19 L1354.87 1538.54 M1354.87 1524.66 L1360.73 1524.66 L1360.73 1532.08 L1354.87 1532.08 L1354.87 1524.66 Z" fill="#000000" fill-rule="nonzero" fill-opacity="1" /><path clip-path="url(#clip510)" d="M1370.43 1538.54 L1398.25 1538.54 L1398.25 1543.88 L1376.23 1569.51 L1398.25 1569.51 L1398.25 1574.19 L1369.64 1574.19 L1369.64 1568.84 L1391.66 1543.22 L1370.43 1543.22 L1370.43 1538.54 Z" fill="#000000" fill-rule="nonzero" fill-opacity="1" /><path clip-path="url(#clip510)" d="M1437.69 1554.9 L1437.69 1557.76 L1410.76 1557.76 Q1411.14 1563.81 1414.39 1566.99 Q1417.67 1570.14 1423.49 1570.14 Q1426.87 1570.14 1430.02 1569.32 Q1433.2 1568.49 1436.32 1566.83 L1436.32 1572.37 Q1433.17 1573.71 1429.86 1574.41 Q1426.55 1575.11 1423.14 1575.11 Q1414.61 1575.11 1409.61 1570.14 Q1404.65 1565.18 1404.65 1556.71 Q1404.65 1547.96 1409.36 1542.83 Q1414.1 1537.68 1422.12 1537.68 Q1429.32 1537.68 1433.49 1542.33 Q1437.69 1546.94 1437.69 1554.9 M1431.83 1553.18 Q1431.77 1548.37 1429.13 1545.51 Q1426.52 1542.64 1422.19 1542.64 Q1417.29 1542.64 1414.33 1545.41 Q1411.4 1548.18 1410.95 1553.21 L1431.83 1553.18 Z" fill="#000000" fill-rule="nonzero" fill-opacity="1" /><path clip-path="url(#clip510)" d="M1497.65 1552.67 L1497.65 1574.19 L1491.8 1574.19 L1491.8 1552.86 Q1491.8 1547.8 1489.82 1545.29 Q1487.85 1542.77 1483.9 1542.77 Q1479.16 1542.77 1476.42 1545.79 Q1473.69 1548.82 1473.69 1554.04 L1473.69 1574.19 L1467.8 1574.19 L1467.8 1538.54 L1473.69 1538.54 L1473.69 1544.08 Q1475.79 1540.86 1478.62 1539.27 Q1481.48 1537.68 1485.21 1537.68 Q1491.35 1537.68 1494.5 1541.5 Q1497.65 1545.29 1497.65 1552.67 Z" fill="#000000" fill-rule="nonzero" fill-opacity="1" /><polyline clip-path="url(#clip512)" style="stroke:#000000; stroke-linecap:round; stroke-linejoin:round; stroke-width:2; stroke-opacity:0.1; fill:none" points="234.125,1301.94 2352.76,1301.94 "/>
<polyline clip-path="url(#clip512)" style="stroke:#000000; stroke-linecap:round; stroke-linejoin:round; stroke-width:2; stroke-opacity:0.1; fill:none" points="234.125,1024.63 2352.76,1024.63 "/>
<polyline clip-path="url(#clip512)" style="stroke:#000000; stroke-linecap:round; stroke-linejoin:round; stroke-width:2; stroke-opacity:0.1; fill:none" points="234.125,747.315 2352.76,747.315 "/>
<polyline clip-path="url(#clip512)" style="stroke:#000000; stroke-linecap:round; stroke-linejoin:round; stroke-width:2; stroke-opacity:0.1; fill:none" points="234.125,470.004 2352.76,470.004 "/>
<polyline clip-path="url(#clip512)" style="stroke:#000000; stroke-linecap:round; stroke-linejoin:round; stroke-width:2; stroke-opacity:0.1; fill:none" points="234.125,192.693 2352.76,192.693 "/>
<polyline clip-path="url(#clip510)" style="stroke:#000000; stroke-linecap:round; stroke-linejoin:round; stroke-width:4; stroke-opacity:1; fill:none" points="234.125,1410.9 234.125,47.2441 "/>
<polyline clip-path="url(#clip510)" style="stroke:#000000; stroke-linecap:round; stroke-linejoin:round; stroke-width:4; stroke-opacity:1; fill:none" points="2352.76,1410.9 2352.76,47.2441 "/>
<polyline clip-path="url(#clip510)" style="stroke:#000000; stroke-linecap:round; stroke-linejoin:round; stroke-width:4; stroke-opacity:1; fill:none" points="234.125,1301.94 253.023,1301.94 "/>
<polyline clip-path="url(#clip510)" style="stroke:#000000; stroke-linecap:round; stroke-linejoin:round; stroke-width:4; stroke-opacity:1; fill:none" points="234.125,1024.63 253.023,1024.63 "/>
<polyline clip-path="url(#clip510)" style="stroke:#000000; stroke-linecap:round; stroke-linejoin:round; stroke-width:4; stroke-opacity:1; fill:none" points="234.125,747.315 253.023,747.315 "/>
<polyline clip-path="url(#clip510)" style="stroke:#000000; stroke-linecap:round; stroke-linejoin:round; stroke-width:4; stroke-opacity:1; fill:none" points="234.125,470.004 253.023,470.004 "/>
<polyline clip-path="url(#clip510)" style="stroke:#000000; stroke-linecap:round; stroke-linejoin:round; stroke-width:4; stroke-opacity:1; fill:none" points="234.125,192.693 253.023,192.693 "/>
<path clip-path="url(#clip510)" d="M146.066 1284.66 L164.422 1284.66 L164.422 1288.59 L150.348 1288.59 L150.348 1297.06 Q151.366 1296.72 152.385 1296.55 Q153.403 1296.37 154.422 1296.37 Q160.209 1296.37 163.589 1299.54 Q166.968 1302.71 166.968 1308.13 Q166.968 1313.71 163.496 1316.81 Q160.024 1319.89 153.704 1319.89 Q151.528 1319.89 149.26 1319.52 Q147.015 1319.15 144.607 1318.41 L144.607 1313.71 Q146.691 1314.84 148.913 1315.4 Q151.135 1315.95 153.612 1315.95 Q157.616 1315.95 159.954 1313.85 Q162.292 1311.74 162.292 1308.13 Q162.292 1304.52 159.954 1302.41 Q157.616 1300.3 153.612 1300.3 Q151.737 1300.3 149.862 1300.72 Q148.01 1301.14 146.066 1302.02 L146.066 1284.66 Z" fill="#000000" fill-rule="nonzero" fill-opacity="1" /><path clip-path="url(#clip510)" d="M186.181 1287.74 Q182.57 1287.74 180.741 1291.3 Q178.936 1294.84 178.936 1301.97 Q178.936 1309.08 180.741 1312.64 Q182.57 1316.18 186.181 1316.18 Q189.815 1316.18 191.621 1312.64 Q193.45 1309.08 193.45 1301.97 Q193.45 1294.84 191.621 1291.3 Q189.815 1287.74 186.181 1287.74 M186.181 1284.03 Q191.991 1284.03 195.047 1288.64 Q198.125 1293.22 198.125 1301.97 Q198.125 1310.7 195.047 1315.3 Q191.991 1319.89 186.181 1319.89 Q180.371 1319.89 177.292 1315.3 Q174.237 1310.7 174.237 1301.97 Q174.237 1293.22 177.292 1288.64 Q180.371 1284.03 186.181 1284.03 Z" fill="#000000" fill-rule="nonzero" fill-opacity="1" /><path clip-path="url(#clip510)" d="M116.668 1037.97 L124.306 1037.97 L124.306 1011.61 L115.996 1013.27 L115.996 1009.01 L124.26 1007.35 L128.936 1007.35 L128.936 1037.97 L136.575 1037.97 L136.575 1041.91 L116.668 1041.91 L116.668 1037.97 Z" fill="#000000" fill-rule="nonzero" fill-opacity="1" /><path clip-path="url(#clip510)" d="M156.019 1010.42 Q152.408 1010.42 150.579 1013.99 Q148.774 1017.53 148.774 1024.66 Q148.774 1031.77 150.579 1035.33 Q152.408 1038.87 156.019 1038.87 Q159.653 1038.87 161.459 1035.33 Q163.288 1031.77 163.288 1024.66 Q163.288 1017.53 161.459 1013.99 Q159.653 1010.42 156.019 1010.42 M156.019 1006.72 Q161.829 1006.72 164.885 1011.33 Q167.964 1015.91 167.964 1024.66 Q167.964 1033.39 164.885 1037.99 Q161.829 1042.58 156.019 1042.58 Q150.209 1042.58 147.13 1037.99 Q144.075 1033.39 144.075 1024.66 Q144.075 1015.91 147.13 1011.33 Q150.209 1006.72 156.019 1006.72 Z" fill="#000000" fill-rule="nonzero" fill-opacity="1" /><path clip-path="url(#clip510)" d="M186.181 1010.42 Q182.57 1010.42 180.741 1013.99 Q178.936 1017.53 178.936 1024.66 Q178.936 1031.77 180.741 1035.33 Q182.57 1038.87 186.181 1038.87 Q189.815 1038.87 191.621 1035.33 Q193.45 1031.77 193.45 1024.66 Q193.45 1017.53 191.621 1013.99 Q189.815 1010.42 186.181 1010.42 M186.181 1006.72 Q191.991 1006.72 195.047 1011.33 Q198.125 1015.91 198.125 1024.66 Q198.125 1033.39 195.047 1037.99 Q191.991 1042.58 186.181 1042.58 Q180.371 1042.58 177.292 1037.99 Q174.237 1033.39 174.237 1024.66 Q174.237 1015.91 177.292 1011.33 Q180.371 1006.72 186.181 1006.72 Z" fill="#000000" fill-rule="nonzero" fill-opacity="1" /><path clip-path="url(#clip510)" d="M116.668 760.66 L124.306 760.66 L124.306 734.294 L115.996 735.961 L115.996 731.702 L124.26 730.035 L128.936 730.035 L128.936 760.66 L136.575 760.66 L136.575 764.595 L116.668 764.595 L116.668 760.66 Z" fill="#000000" fill-rule="nonzero" fill-opacity="1" /><path clip-path="url(#clip510)" d="M146.066 730.035 L164.422 730.035 L164.422 733.97 L150.348 733.97 L150.348 742.442 Q151.366 742.095 152.385 741.933 Q153.403 741.748 154.422 741.748 Q160.209 741.748 163.589 744.919 Q166.968 748.09 166.968 753.507 Q166.968 759.086 163.496 762.187 Q160.024 765.266 153.704 765.266 Q151.528 765.266 149.26 764.896 Q147.015 764.525 144.607 763.785 L144.607 759.086 Q146.691 760.22 148.913 760.775 Q151.135 761.331 153.612 761.331 Q157.616 761.331 159.954 759.225 Q162.292 757.118 162.292 753.507 Q162.292 749.896 159.954 747.789 Q157.616 745.683 153.612 745.683 Q151.737 745.683 149.862 746.1 Q148.01 746.516 146.066 747.396 L146.066 730.035 Z" fill="#000000" fill-rule="nonzero" fill-opacity="1" /><path clip-path="url(#clip510)" d="M186.181 733.114 Q182.57 733.114 180.741 736.678 Q178.936 740.22 178.936 747.35 Q178.936 754.456 180.741 758.021 Q182.57 761.562 186.181 761.562 Q189.815 761.562 191.621 758.021 Q193.45 754.456 193.45 747.35 Q193.45 740.22 191.621 736.678 Q189.815 733.114 186.181 733.114 M186.181 729.41 Q191.991 729.41 195.047 734.016 Q198.125 738.6 198.125 747.35 Q198.125 756.076 195.047 760.683 Q191.991 765.266 186.181 765.266 Q180.371 765.266 177.292 760.683 Q174.237 756.076 174.237 747.35 Q174.237 738.6 177.292 734.016 Q180.371 729.41 186.181 729.41 Z" fill="#000000" fill-rule="nonzero" fill-opacity="1" /><path clip-path="url(#clip510)" d="M119.885 483.349 L136.204 483.349 L136.204 487.284 L114.26 487.284 L114.26 483.349 Q116.922 480.594 121.505 475.964 Q126.112 471.312 127.292 469.969 Q129.538 467.446 130.417 465.71 Q131.32 463.951 131.32 462.261 Q131.32 459.506 129.376 457.77 Q127.455 456.034 124.353 456.034 Q122.154 456.034 119.7 456.798 Q117.269 457.562 114.492 459.113 L114.492 454.391 Q117.316 453.256 119.769 452.678 Q122.223 452.099 124.26 452.099 Q129.63 452.099 132.825 454.784 Q136.019 457.469 136.019 461.96 Q136.019 464.09 135.209 466.011 Q134.422 467.909 132.316 470.502 Q131.737 471.173 128.635 474.39 Q125.533 477.585 119.885 483.349 Z" fill="#000000" fill-rule="nonzero" fill-opacity="1" /><path clip-path="url(#clip510)" d="M156.019 455.803 Q152.408 455.803 150.579 459.367 Q148.774 462.909 148.774 470.039 Q148.774 477.145 150.579 480.71 Q152.408 484.251 156.019 484.251 Q159.653 484.251 161.459 480.71 Q163.288 477.145 163.288 470.039 Q163.288 462.909 161.459 459.367 Q159.653 455.803 156.019 455.803 M156.019 452.099 Q161.829 452.099 164.885 456.705 Q167.964 461.289 167.964 470.039 Q167.964 478.765 164.885 483.372 Q161.829 487.955 156.019 487.955 Q150.209 487.955 147.13 483.372 Q144.075 478.765 144.075 470.039 Q144.075 461.289 147.13 456.705 Q150.209 452.099 156.019 452.099 Z" fill="#000000" fill-rule="nonzero" fill-opacity="1" /><path clip-path="url(#clip510)" d="M186.181 455.803 Q182.57 455.803 180.741 459.367 Q178.936 462.909 178.936 470.039 Q178.936 477.145 180.741 480.71 Q182.57 484.251 186.181 484.251 Q189.815 484.251 191.621 480.71 Q193.45 477.145 193.45 470.039 Q193.45 462.909 191.621 459.367 Q189.815 455.803 186.181 455.803 M186.181 452.099 Q191.991 452.099 195.047 456.705 Q198.125 461.289 198.125 470.039 Q198.125 478.765 195.047 483.372 Q191.991 487.955 186.181 487.955 Q180.371 487.955 177.292 483.372 Q174.237 478.765 174.237 470.039 Q174.237 461.289 177.292 456.705 Q180.371 452.099 186.181 452.099 Z" fill="#000000" fill-rule="nonzero" fill-opacity="1" /><path clip-path="url(#clip510)" d="M119.885 206.038 L136.204 206.038 L136.204 209.973 L114.26 209.973 L114.26 206.038 Q116.922 203.283 121.505 198.653 Q126.112 194.001 127.292 192.658 Q129.538 190.135 130.417 188.399 Q131.32 186.64 131.32 184.95 Q131.32 182.195 129.376 180.459 Q127.455 178.723 124.353 178.723 Q122.154 178.723 119.7 179.487 Q117.269 180.251 114.492 181.802 L114.492 177.08 Q117.316 175.945 119.769 175.367 Q122.223 174.788 124.26 174.788 Q129.63 174.788 132.825 177.473 Q136.019 180.158 136.019 184.649 Q136.019 186.779 135.209 188.7 Q134.422 190.598 132.316 193.191 Q131.737 193.862 128.635 197.079 Q125.533 200.274 119.885 206.038 Z" fill="#000000" fill-rule="nonzero" fill-opacity="1" /><path clip-path="url(#clip510)" d="M146.066 175.413 L164.422 175.413 L164.422 179.348 L150.348 179.348 L150.348 187.82 Q151.366 187.473 152.385 187.311 Q153.403 187.126 154.422 187.126 Q160.209 187.126 163.589 190.297 Q166.968 193.468 166.968 198.885 Q166.968 204.464 163.496 207.565 Q160.024 210.644 153.704 210.644 Q151.528 210.644 149.26 210.274 Q147.015 209.903 144.607 209.163 L144.607 204.464 Q146.691 205.598 148.913 206.153 Q151.135 206.709 153.612 206.709 Q157.616 206.709 159.954 204.603 Q162.292 202.496 162.292 198.885 Q162.292 195.274 159.954 193.167 Q157.616 191.061 153.612 191.061 Q151.737 191.061 149.862 191.478 Q148.01 191.894 146.066 192.774 L146.066 175.413 Z" fill="#000000" fill-rule="nonzero" fill-opacity="1" /><path clip-path="url(#clip510)" d="M186.181 178.492 Q182.57 178.492 180.741 182.056 Q178.936 185.598 178.936 192.728 Q178.936 199.834 180.741 203.399 Q182.57 206.94 186.181 206.94 Q189.815 206.94 191.621 203.399 Q193.45 199.834 193.45 192.728 Q193.45 185.598 191.621 182.056 Q189.815 178.492 186.181 178.492 M186.181 174.788 Q191.991 174.788 195.047 179.394 Q198.125 183.978 198.125 192.728 Q198.125 201.454 195.047 206.061 Q191.991 210.644 186.181 210.644 Q180.371 210.644 177.292 206.061 Q174.237 201.454 174.237 192.728 Q174.237 183.978 177.292 179.394 Q180.371 174.788 186.181 174.788 Z" fill="#000000" fill-rule="nonzero" fill-opacity="1" /><path clip-path="url(#clip510)" d="M46.212 980.707 Q39.7508 980.707 36.0905 983.38 Q32.3984 986.022 32.3984 990.669 Q32.3984 995.316 36.0905 997.99 Q39.7508 1000.63 46.212 1000.63 Q52.6732 1000.63 56.3653 997.99 Q60.0256 995.316 60.0256 990.669 Q60.0256 986.022 56.3653 983.38 Q52.6732 980.707 46.212 980.707 M33.7671 1000.63 Q30.5842 998.785 29.0564 995.984 Q27.4968 993.152 27.4968 989.237 Q27.4968 982.744 32.6531 978.702 Q37.8093 974.628 46.212 974.628 Q54.6147 974.628 59.771 978.702 Q64.9272 982.744 64.9272 989.237 Q64.9272 993.152 63.3994 995.984 Q61.8398 998.785 58.657 1000.63 L64.0042 1000.63 L64.0042 1006.52 L14.479 1006.52 L14.479 1000.63 L33.7671 1000.63 Z" fill="#000000" fill-rule="nonzero" fill-opacity="1" /><path clip-path="url(#clip510)" d="M46.0847 948.719 Q46.0847 955.817 47.7079 958.554 Q49.3312 961.291 53.2461 961.291 Q56.3653 961.291 58.2114 959.254 Q60.0256 957.185 60.0256 953.652 Q60.0256 948.783 56.5881 945.855 Q53.1188 942.894 47.3897 942.894 L46.0847 942.894 L46.0847 948.719 M43.6657 937.038 L64.0042 937.038 L64.0042 942.894 L58.5933 942.894 Q61.8398 944.9 63.3994 947.892 Q64.9272 950.883 64.9272 955.212 Q64.9272 960.687 61.8716 963.933 Q58.7843 967.148 53.6281 967.148 Q47.6125 967.148 44.5569 963.137 Q41.5014 959.095 41.5014 951.106 L41.5014 942.894 L40.9285 942.894 Q36.8862 942.894 34.6901 945.568 Q32.4621 948.21 32.4621 953.016 Q32.4621 956.071 33.1941 958.968 Q33.9262 961.864 35.3903 964.538 L29.9795 964.538 Q28.7381 961.323 28.1334 958.299 Q27.4968 955.276 27.4968 952.411 Q27.4968 944.677 31.5072 940.857 Q35.5176 937.038 43.6657 937.038 Z" fill="#000000" fill-rule="nonzero" fill-opacity="1" /><path clip-path="url(#clip510)" d="M42.4881 895.343 L64.0042 895.343 L64.0042 901.199 L42.679 901.199 Q37.6183 901.199 35.1038 903.172 Q32.5894 905.146 32.5894 909.093 Q32.5894 913.835 35.6131 916.572 Q38.6368 919.31 43.8567 919.31 L64.0042 919.31 L64.0042 925.198 L28.3562 925.198 L28.3562 919.31 L33.8944 919.31 Q30.6797 917.209 29.0883 914.376 Q27.4968 911.512 27.4968 907.788 Q27.4968 901.645 31.3163 898.494 Q35.1038 895.343 42.4881 895.343 Z" fill="#000000" fill-rule="nonzero" fill-opacity="1" /><path clip-path="url(#clip510)" d="M33.7671 860.204 L14.479 860.204 L14.479 854.347 L64.0042 854.347 L64.0042 860.204 L58.657 860.204 Q61.8398 862.05 63.3994 864.883 Q64.9272 867.684 64.9272 871.63 Q64.9272 878.092 59.771 882.166 Q54.6147 886.208 46.212 886.208 Q37.8093 886.208 32.6531 882.166 Q27.4968 878.092 27.4968 871.63 Q27.4968 867.684 29.0564 864.883 Q30.5842 862.05 33.7671 860.204 M46.212 880.16 Q52.6732 880.16 56.3653 877.519 Q60.0256 874.845 60.0256 870.198 Q60.0256 865.551 56.3653 862.878 Q52.6732 860.204 46.212 860.204 Q39.7508 860.204 36.0905 862.878 Q32.3984 865.551 32.3984 870.198 Q32.3984 874.845 36.0905 877.519 Q39.7508 880.16 46.212 880.16 Z" fill="#000000" fill-rule="nonzero" fill-opacity="1" /><path clip-path="url(#clip510)" d="M28.3562 845.69 L28.3562 839.834 L56.1743 832.513 L28.3562 825.224 L28.3562 818.318 L56.1743 810.997 L28.3562 803.708 L28.3562 797.852 L64.0042 807.178 L64.0042 814.084 L34.7856 821.755 L64.0042 829.458 L64.0042 836.364 L28.3562 845.69 Z" fill="#000000" fill-rule="nonzero" fill-opacity="1" /><path clip-path="url(#clip510)" d="M28.3562 788.972 L28.3562 783.115 L64.0042 783.115 L64.0042 788.972 L28.3562 788.972 M14.479 788.972 L14.479 783.115 L21.895 783.115 L21.895 788.972 L14.479 788.972 Z" fill="#000000" fill-rule="nonzero" fill-opacity="1" /><path clip-path="url(#clip510)" d="M33.7671 747.404 L14.479 747.404 L14.479 741.547 L64.0042 741.547 L64.0042 747.404 L58.657 747.404 Q61.8398 749.25 63.3994 752.082 Q64.9272 754.883 64.9272 758.83 Q64.9272 765.291 59.771 769.365 Q54.6147 773.408 46.212 773.408 Q37.8093 773.408 32.6531 769.365 Q27.4968 765.291 27.4968 758.83 Q27.4968 754.883 29.0564 752.082 Q30.5842 749.25 33.7671 747.404 M46.212 767.36 Q52.6732 767.36 56.3653 764.718 Q60.0256 762.045 60.0256 757.398 Q60.0256 752.751 56.3653 750.077 Q52.6732 747.404 46.212 747.404 Q39.7508 747.404 36.0905 750.077 Q32.3984 752.751 32.3984 757.398 Q32.3984 762.045 36.0905 764.718 Q39.7508 767.36 46.212 767.36 Z" fill="#000000" fill-rule="nonzero" fill-opacity="1" /><path clip-path="url(#clip510)" d="M18.2347 723.691 L28.3562 723.691 L28.3562 711.628 L32.9077 711.628 L32.9077 723.691 L52.2594 723.691 Q56.6199 723.691 57.8613 722.514 Q59.1026 721.304 59.1026 717.644 L59.1026 711.628 L64.0042 711.628 L64.0042 717.644 Q64.0042 724.423 61.4897 727.002 Q58.9434 729.58 52.2594 729.58 L32.9077 729.58 L32.9077 733.876 L28.3562 733.876 L28.3562 729.58 L18.2347 729.58 L18.2347 723.691 Z" fill="#000000" fill-rule="nonzero" fill-opacity="1" /><path clip-path="url(#clip510)" d="M42.4881 674.293 L64.0042 674.293 L64.0042 680.15 L42.679 680.15 Q37.6183 680.15 35.1038 682.123 Q32.5894 684.097 32.5894 688.043 Q32.5894 692.786 35.6131 695.523 Q38.6368 698.26 43.8567 698.26 L64.0042 698.26 L64.0042 704.149 L14.479 704.149 L14.479 698.26 L33.8944 698.26 Q30.6797 696.16 29.0883 693.327 Q27.4968 690.462 27.4968 686.738 Q27.4968 680.596 31.3163 677.444 Q35.1038 674.293 42.4881 674.293 Z" fill="#000000" fill-rule="nonzero" fill-opacity="1" /><path clip-path="url(#clip510)" d="M14.479 642.433 L14.479 628.938 L19.0304 628.938 L19.0304 636.577 L68.0464 636.577 L68.0464 628.938 L72.5979 628.938 L72.5979 642.433 L14.479 642.433 Z" fill="#000000" fill-rule="nonzero" fill-opacity="1" /><path clip-path="url(#clip510)" d="M57.2247 583.805 L44.4614 583.805 L44.4614 594.308 L39.1779 594.308 L39.1779 577.439 L59.58 577.439 Q62.2218 581.163 63.5904 585.651 Q64.9272 590.139 64.9272 595.231 Q64.9272 606.371 58.4342 612.673 Q51.9093 618.944 40.2919 618.944 Q28.6427 618.944 22.1496 612.673 Q15.6248 606.371 15.6248 595.231 Q15.6248 590.584 16.7706 586.415 Q17.9164 582.214 20.1444 578.681 L26.9876 578.681 Q23.9639 582.245 22.4361 586.256 Q20.9083 590.266 20.9083 594.69 Q20.9083 603.411 25.7781 607.804 Q30.6479 612.164 40.2919 612.164 Q49.9041 612.164 54.7739 607.804 Q59.6436 603.411 59.6436 594.69 Q59.6436 591.285 59.0707 588.611 Q58.466 585.937 57.2247 583.805 Z" fill="#000000" fill-rule="nonzero" fill-opacity="1" /><path clip-path="url(#clip510)" d="M41.3104 559.265 L58.7206 559.265 L58.7206 548.953 Q58.7206 543.765 56.5881 541.282 Q54.4238 538.768 49.9996 538.768 Q45.5436 538.768 43.4429 541.282 Q41.3104 543.765 41.3104 548.953 L41.3104 559.265 M21.7677 559.265 L36.0905 559.265 L36.0905 549.748 Q36.0905 545.038 34.34 542.746 Q32.5576 540.423 28.9291 540.423 Q25.3325 540.423 23.5501 542.746 Q21.7677 545.038 21.7677 549.748 L21.7677 559.265 M16.4842 565.695 L16.4842 549.271 Q16.4842 541.919 19.5397 537.94 Q22.5952 533.961 28.2289 533.961 Q32.5894 533.961 35.1675 535.998 Q37.7456 538.036 38.3822 541.982 Q39.4007 537.24 42.6472 534.63 Q45.8619 531.988 50.6998 531.988 Q57.0655 531.988 60.5348 536.317 Q64.0042 540.645 64.0042 548.634 L64.0042 565.695 L16.4842 565.695 Z" fill="#000000" fill-rule="nonzero" fill-opacity="1" /><path clip-path="url(#clip510)" d="M16.4842 510.822 L16.4842 505.411 L70.0516 521.962 L70.0516 527.373 L16.4842 510.822 Z" fill="#000000" fill-rule="nonzero" fill-opacity="1" /><path clip-path="url(#clip510)" d="M29.4065 476.543 L34.9447 476.543 Q33.6716 479.025 33.035 481.699 Q32.3984 484.373 32.3984 487.237 Q32.3984 491.598 33.7352 493.794 Q35.072 495.958 37.7456 495.958 Q39.7826 495.958 40.9603 494.399 Q42.1061 492.839 43.1565 488.128 L43.6021 486.123 Q44.9389 479.885 47.3897 477.275 Q49.8086 474.633 54.1691 474.633 Q59.1344 474.633 62.0308 478.58 Q64.9272 482.495 64.9272 489.37 Q64.9272 492.234 64.3543 495.353 Q63.8132 498.441 62.6992 501.878 L56.6518 501.878 Q58.3387 498.632 59.198 495.481 Q60.0256 492.33 60.0256 489.242 Q60.0256 485.105 58.6251 482.877 Q57.1929 480.649 54.6147 480.649 Q52.2276 480.649 50.9545 482.272 Q49.6813 483.863 48.5037 489.306 L48.0262 491.343 Q46.8804 496.786 44.5251 499.205 Q42.138 501.624 38.0002 501.624 Q32.9713 501.624 30.2341 498.059 Q27.4968 494.494 27.4968 487.937 Q27.4968 484.691 27.9743 481.826 Q28.4517 478.962 29.4065 476.543 Z" fill="#000000" fill-rule="nonzero" fill-opacity="1" /><path clip-path="url(#clip510)" d="M14.479 451.621 L72.5979 451.621 L72.5979 465.116 L68.0464 465.116 L68.0464 457.509 L19.0304 457.509 L19.0304 465.116 L14.479 465.116 L14.479 451.621 Z" fill="#000000" fill-rule="nonzero" fill-opacity="1" /><polyline clip-path="url(#clip512)" style="stroke:#009af9; stroke-linecap:round; stroke-linejoin:round; stroke-width:4; stroke-opacity:1; fill:none" points="294.087,530.464 394.022,131.968 452.481,115.357 493.957,106.631 552.416,98.5568 610.874,92.7917 652.351,89.9149 702.569,87.5002 746.151,85.838 793.764,283.362 852.222,607.481 889.122,635.617 925.871,706.836 963.698,706.566 1002.38,706.258 1041.18,705.946 1079.38,705.793 1117.39,734.783 1155,707.247 1193.51,706.401 1251.96,775.999 1311.92,858.779 1372.18,887.306 1432.15,886.993 1492.46,885.91 1552.52,890.524 1612.71,897.689 1672.84,887.625 1732.98,890.84 1793.12,932.931 1851.58,1087.76 1914.6,1249.77 1977.64,1300.08 2040.67,1335.27 2103.7,1354.94 2166.73,1359.15 2229.76,1363.3 2292.79,1372.3 "/>
<circle clip-path="url(#clip512)" cx="294.087" cy="530.464" r="7.2" fill="#009af9" fill-rule="evenodd" fill-opacity="1" stroke="#000000" stroke-opacity="1" stroke-width="3.2"/>
<circle clip-path="url(#clip512)" cx="394.022" cy="131.968" r="7.2" fill="#009af9" fill-rule="evenodd" fill-opacity="1" stroke="#000000" stroke-opacity="1" stroke-width="3.2"/>
<circle clip-path="url(#clip512)" cx="452.481" cy="115.357" r="7.2" fill="#009af9" fill-rule="evenodd" fill-opacity="1" stroke="#000000" stroke-opacity="1" stroke-width="3.2"/>
<circle clip-path="url(#clip512)" cx="493.957" cy="106.631" r="7.2" fill="#009af9" fill-rule="evenodd" fill-opacity="1" stroke="#000000" stroke-opacity="1" stroke-width="3.2"/>
<circle clip-path="url(#clip512)" cx="552.416" cy="98.5568" r="7.2" fill="#009af9" fill-rule="evenodd" fill-opacity="1" stroke="#000000" stroke-opacity="1" stroke-width="3.2"/>
<circle clip-path="url(#clip512)" cx="610.874" cy="92.7917" r="7.2" fill="#009af9" fill-rule="evenodd" fill-opacity="1" stroke="#000000" stroke-opacity="1" stroke-width="3.2"/>
<circle clip-path="url(#clip512)" cx="652.351" cy="89.9149" r="7.2" fill="#009af9" fill-rule="evenodd" fill-opacity="1" stroke="#000000" stroke-opacity="1" stroke-width="3.2"/>
<circle clip-path="url(#clip512)" cx="702.569" cy="87.5002" r="7.2" fill="#009af9" fill-rule="evenodd" fill-opacity="1" stroke="#000000" stroke-opacity="1" stroke-width="3.2"/>
<circle clip-path="url(#clip512)" cx="746.151" cy="85.838" r="7.2" fill="#009af9" fill-rule="evenodd" fill-opacity="1" stroke="#000000" stroke-opacity="1" stroke-width="3.2"/>
<circle clip-path="url(#clip512)" cx="793.764" cy="283.362" r="7.2" fill="#009af9" fill-rule="evenodd" fill-opacity="1" stroke="#000000" stroke-opacity="1" stroke-width="3.2"/>
<circle clip-path="url(#clip512)" cx="852.222" cy="607.481" r="7.2" fill="#009af9" fill-rule="evenodd" fill-opacity="1" stroke="#000000" stroke-opacity="1" stroke-width="3.2"/>
<circle clip-path="url(#clip512)" cx="889.122" cy="635.617" r="7.2" fill="#009af9" fill-rule="evenodd" fill-opacity="1" stroke="#000000" stroke-opacity="1" stroke-width="3.2"/>
<circle clip-path="url(#clip512)" cx="925.871" cy="706.836" r="7.2" fill="#009af9" fill-rule="evenodd" fill-opacity="1" stroke="#000000" stroke-opacity="1" stroke-width="3.2"/>
<circle clip-path="url(#clip512)" cx="963.698" cy="706.566" r="7.2" fill="#009af9" fill-rule="evenodd" fill-opacity="1" stroke="#000000" stroke-opacity="1" stroke-width="3.2"/>
<circle clip-path="url(#clip512)" cx="1002.38" cy="706.258" r="7.2" fill="#009af9" fill-rule="evenodd" fill-opacity="1" stroke="#000000" stroke-opacity="1" stroke-width="3.2"/>
<circle clip-path="url(#clip512)" cx="1041.18" cy="705.946" r="7.2" fill="#009af9" fill-rule="evenodd" fill-opacity="1" stroke="#000000" stroke-opacity="1" stroke-width="3.2"/>
<circle clip-path="url(#clip512)" cx="1079.38" cy="705.793" r="7.2" fill="#009af9" fill-rule="evenodd" fill-opacity="1" stroke="#000000" stroke-opacity="1" stroke-width="3.2"/>
<circle clip-path="url(#clip512)" cx="1117.39" cy="734.783" r="7.2" fill="#009af9" fill-rule="evenodd" fill-opacity="1" stroke="#000000" stroke-opacity="1" stroke-width="3.2"/>
<circle clip-path="url(#clip512)" cx="1155" cy="707.247" r="7.2" fill="#009af9" fill-rule="evenodd" fill-opacity="1" stroke="#000000" stroke-opacity="1" stroke-width="3.2"/>
<circle clip-path="url(#clip512)" cx="1193.51" cy="706.401" r="7.2" fill="#009af9" fill-rule="evenodd" fill-opacity="1" stroke="#000000" stroke-opacity="1" stroke-width="3.2"/>
<circle clip-path="url(#clip512)" cx="1251.96" cy="775.999" r="7.2" fill="#009af9" fill-rule="evenodd" fill-opacity="1" stroke="#000000" stroke-opacity="1" stroke-width="3.2"/>
<circle clip-path="url(#clip512)" cx="1311.92" cy="858.779" r="7.2" fill="#009af9" fill-rule="evenodd" fill-opacity="1" stroke="#000000" stroke-opacity="1" stroke-width="3.2"/>
<circle clip-path="url(#clip512)" cx="1372.18" cy="887.306" r="7.2" fill="#009af9" fill-rule="evenodd" fill-opacity="1" stroke="#000000" stroke-opacity="1" stroke-width="3.2"/>
<circle clip-path="url(#clip512)" cx="1432.15" cy="886.993" r="7.2" fill="#009af9" fill-rule="evenodd" fill-opacity="1" stroke="#000000" stroke-opacity="1" stroke-width="3.2"/>
<circle clip-path="url(#clip512)" cx="1492.46" cy="885.91" r="7.2" fill="#009af9" fill-rule="evenodd" fill-opacity="1" stroke="#000000" stroke-opacity="1" stroke-width="3.2"/>
<circle clip-path="url(#clip512)" cx="1552.52" cy="890.524" r="7.2" fill="#009af9" fill-rule="evenodd" fill-opacity="1" stroke="#000000" stroke-opacity="1" stroke-width="3.2"/>
<circle clip-path="url(#clip512)" cx="1612.71" cy="897.689" r="7.2" fill="#009af9" fill-rule="evenodd" fill-opacity="1" stroke="#000000" stroke-opacity="1" stroke-width="3.2"/>
<circle clip-path="url(#clip512)" cx="1672.84" cy="887.625" r="7.2" fill="#009af9" fill-rule="evenodd" fill-opacity="1" stroke="#000000" stroke-opacity="1" stroke-width="3.2"/>
<circle clip-path="url(#clip512)" cx="1732.98" cy="890.84" r="7.2" fill="#009af9" fill-rule="evenodd" fill-opacity="1" stroke="#000000" stroke-opacity="1" stroke-width="3.2"/>
<circle clip-path="url(#clip512)" cx="1793.12" cy="932.931" r="7.2" fill="#009af9" fill-rule="evenodd" fill-opacity="1" stroke="#000000" stroke-opacity="1" stroke-width="3.2"/>
<circle clip-path="url(#clip512)" cx="1851.58" cy="1087.76" r="7.2" fill="#009af9" fill-rule="evenodd" fill-opacity="1" stroke="#000000" stroke-opacity="1" stroke-width="3.2"/>
<circle clip-path="url(#clip512)" cx="1914.6" cy="1249.77" r="7.2" fill="#009af9" fill-rule="evenodd" fill-opacity="1" stroke="#000000" stroke-opacity="1" stroke-width="3.2"/>
<circle clip-path="url(#clip512)" cx="1977.64" cy="1300.08" r="7.2" fill="#009af9" fill-rule="evenodd" fill-opacity="1" stroke="#000000" stroke-opacity="1" stroke-width="3.2"/>
<circle clip-path="url(#clip512)" cx="2040.67" cy="1335.27" r="7.2" fill="#009af9" fill-rule="evenodd" fill-opacity="1" stroke="#000000" stroke-opacity="1" stroke-width="3.2"/>
<circle clip-path="url(#clip512)" cx="2103.7" cy="1354.94" r="7.2" fill="#009af9" fill-rule="evenodd" fill-opacity="1" stroke="#000000" stroke-opacity="1" stroke-width="3.2"/>
<circle clip-path="url(#clip512)" cx="2166.73" cy="1359.15" r="7.2" fill="#009af9" fill-rule="evenodd" fill-opacity="1" stroke="#000000" stroke-opacity="1" stroke-width="3.2"/>
<circle clip-path="url(#clip512)" cx="2229.76" cy="1363.3" r="7.2" fill="#009af9" fill-rule="evenodd" fill-opacity="1" stroke="#000000" stroke-opacity="1" stroke-width="3.2"/>
<circle clip-path="url(#clip512)" cx="2292.79" cy="1372.3" r="7.2" fill="#009af9" fill-rule="evenodd" fill-opacity="1" stroke="#000000" stroke-opacity="1" stroke-width="3.2"/>
<polyline clip-path="url(#clip512)" style="stroke:#ffa500; stroke-linecap:round; stroke-linejoin:round; stroke-width:8; stroke-opacity:1; fill:none" points="793.764,2774.55 793.764,-1316.41 "/>
<polyline clip-path="url(#clip512)" style="stroke:#ff0000; stroke-linecap:round; stroke-linejoin:round; stroke-width:8; stroke-opacity:1; fill:none" points="1193.51,2774.55 1193.51,-1316.41 "/>
<polyline clip-path="url(#clip512)" style="stroke:#800080; stroke-linecap:round; stroke-linejoin:round; stroke-width:8; stroke-opacity:1; fill:none" points="1793.12,2774.55 1793.12,-1316.41 "/>
<path clip-path="url(#clip510)" d="M1401.48 351.899 L2282.13 351.899 L2282.13 92.6992 L1401.48 92.6992  Z" fill="#ffffff" fill-rule="evenodd" fill-opacity="1"/>
<polyline clip-path="url(#clip510)" style="stroke:#000000; stroke-linecap:round; stroke-linejoin:round; stroke-width:4; stroke-opacity:1; fill:none" points="1401.48,351.899 2282.13,351.899 2282.13,92.6992 1401.48,92.6992 1401.48,351.899 "/>
<polyline clip-path="url(#clip510)" style="stroke:#009af9; stroke-linecap:round; stroke-linejoin:round; stroke-width:4; stroke-opacity:1; fill:none" points="1425.02,144.539 1566.26,144.539 "/>
<circle clip-path="url(#clip510)" cx="1495.64" cy="144.539" r="18.432" fill="#009af9" fill-rule="evenodd" fill-opacity="1" stroke="#000000" stroke-opacity="1" stroke-width="8.192"/>
<path clip-path="url(#clip510)" d="M1608.23 136.657 L1608.23 140.685 Q1606.42 139.759 1604.48 139.296 Q1602.53 138.833 1600.45 138.833 Q1597.28 138.833 1595.68 139.805 Q1594.11 140.778 1594.11 142.722 Q1594.11 144.204 1595.24 145.06 Q1596.38 145.893 1599.8 146.657 L1601.26 146.981 Q1605.8 147.954 1607.7 149.736 Q1609.62 151.495 1609.62 154.666 Q1609.62 158.278 1606.75 160.384 Q1603.9 162.49 1598.9 162.49 Q1596.82 162.49 1594.55 162.074 Q1592.3 161.68 1589.8 160.87 L1589.8 156.472 Q1592.16 157.699 1594.45 158.324 Q1596.75 158.926 1598.99 158.926 Q1602 158.926 1603.62 157.907 Q1605.24 156.866 1605.24 154.991 Q1605.24 153.254 1604.06 152.328 Q1602.9 151.403 1598.95 150.546 L1597.46 150.199 Q1593.51 149.366 1591.75 147.653 Q1589.99 145.916 1589.99 142.907 Q1589.99 139.25 1592.58 137.259 Q1595.17 135.268 1599.94 135.268 Q1602.3 135.268 1604.39 135.616 Q1606.47 135.963 1608.23 136.657 Z" fill="#000000" fill-rule="nonzero" fill-opacity="1" /><path clip-path="url(#clip510)" d="M1633.46 139.829 L1633.46 125.801 L1637.72 125.801 L1637.72 161.819 L1633.46 161.819 L1633.46 157.93 Q1632.12 160.245 1630.06 161.379 Q1628.02 162.49 1625.15 162.49 Q1620.45 162.49 1617.49 158.74 Q1614.55 154.991 1614.55 148.879 Q1614.55 142.768 1617.49 139.018 Q1620.45 135.268 1625.15 135.268 Q1628.02 135.268 1630.06 136.403 Q1632.12 137.514 1633.46 139.829 M1618.95 148.879 Q1618.95 153.578 1620.87 156.264 Q1622.81 158.926 1626.19 158.926 Q1629.57 158.926 1631.51 156.264 Q1633.46 153.578 1633.46 148.879 Q1633.46 144.18 1631.51 141.518 Q1629.57 138.833 1626.19 138.833 Q1622.81 138.833 1620.87 141.518 Q1618.95 144.18 1618.95 148.879 Z" fill="#000000" fill-rule="nonzero" fill-opacity="1" /><path clip-path="url(#clip510)" d="M1658.27 148.787 Q1653.11 148.787 1651.12 149.967 Q1649.13 151.148 1649.13 153.995 Q1649.13 156.264 1650.61 157.606 Q1652.12 158.926 1654.69 158.926 Q1658.23 158.926 1660.36 156.426 Q1662.51 153.903 1662.51 149.736 L1662.51 148.787 L1658.27 148.787 M1666.77 147.028 L1666.77 161.819 L1662.51 161.819 L1662.51 157.884 Q1661.05 160.245 1658.88 161.379 Q1656.7 162.49 1653.55 162.49 Q1649.57 162.49 1647.21 160.268 Q1644.87 158.023 1644.87 154.273 Q1644.87 149.898 1647.79 147.676 Q1650.73 145.454 1656.54 145.454 L1662.51 145.454 L1662.51 145.037 Q1662.51 142.097 1660.57 140.5 Q1658.64 138.879 1655.15 138.879 Q1652.93 138.879 1650.82 139.412 Q1648.71 139.944 1646.77 141.009 L1646.77 137.074 Q1649.11 136.171 1651.31 135.731 Q1653.51 135.268 1655.59 135.268 Q1661.21 135.268 1663.99 138.185 Q1666.77 141.102 1666.77 147.028 Z" fill="#000000" fill-rule="nonzero" fill-opacity="1" /><path clip-path="url(#clip510)" d="M1697.09 135.893 L1687.72 148.509 L1697.58 161.819 L1692.56 161.819 L1685.01 151.634 L1677.46 161.819 L1672.44 161.819 L1682.51 148.254 L1673.3 135.893 L1678.32 135.893 L1685.19 145.129 L1692.07 135.893 L1697.09 135.893 Z" fill="#000000" fill-rule="nonzero" fill-opacity="1" /><path clip-path="url(#clip510)" d="M1707.72 157.93 L1707.72 171.68 L1703.44 171.68 L1703.44 135.893 L1707.72 135.893 L1707.72 139.829 Q1709.06 137.514 1711.1 136.403 Q1713.16 135.268 1716 135.268 Q1720.73 135.268 1723.67 139.018 Q1726.63 142.768 1726.63 148.879 Q1726.63 154.991 1723.67 158.74 Q1720.73 162.49 1716 162.49 Q1713.16 162.49 1711.1 161.379 Q1709.06 160.245 1707.72 157.93 M1722.21 148.879 Q1722.21 144.18 1720.26 141.518 Q1718.34 138.833 1714.96 138.833 Q1711.58 138.833 1709.64 141.518 Q1707.72 144.18 1707.72 148.879 Q1707.72 153.578 1709.64 156.264 Q1711.58 158.926 1714.96 158.926 Q1718.34 158.926 1720.26 156.264 Q1722.21 153.578 1722.21 148.879 Z" fill="#000000" fill-rule="nonzero" fill-opacity="1" /><path clip-path="url(#clip510)" d="M1744.48 164.227 Q1742.67 168.856 1740.96 170.268 Q1739.25 171.68 1736.38 171.68 L1732.97 171.68 L1732.97 168.115 L1735.47 168.115 Q1737.23 168.115 1738.2 167.282 Q1739.18 166.449 1740.36 163.347 L1741.12 161.403 L1730.63 135.893 L1735.15 135.893 L1743.25 156.171 L1751.35 135.893 L1755.87 135.893 L1744.48 164.227 Z" fill="#000000" fill-rule="nonzero" fill-opacity="1" /><path clip-path="url(#clip510)" d="M1764.43 155.94 L1769.13 155.94 L1769.13 161.819 L1764.43 161.819 L1764.43 155.94 M1764.43 127.259 L1769.13 127.259 L1769.13 142.421 L1768.67 150.685 L1764.92 150.685 L1764.43 142.421 L1764.43 127.259 Z" fill="#000000" fill-rule="nonzero" fill-opacity="1" /><polyline clip-path="url(#clip510)" style="stroke:#ffa500; stroke-linecap:round; stroke-linejoin:round; stroke-width:8; stroke-opacity:1; fill:none" points="1425.02,196.379 1566.26,196.379 "/>
<path clip-path="url(#clip510)" d="M1589.8 179.099 L1594.48 179.099 L1594.48 209.724 L1611.31 209.724 L1611.31 213.659 L1589.8 213.659 L1589.8 179.099 Z" fill="#000000" fill-rule="nonzero" fill-opacity="1" /><path clip-path="url(#clip510)" d="M1617.44 209.724 L1625.08 209.724 L1625.08 183.358 L1616.77 185.025 L1616.77 180.766 L1625.03 179.099 L1629.71 179.099 L1629.71 209.724 L1637.35 209.724 L1637.35 213.659 L1617.44 213.659 L1617.44 209.724 Z" fill="#000000" fill-rule="nonzero" fill-opacity="1" /><path clip-path="url(#clip510)" d="M1661.82 192.132 L1691.49 192.132 L1691.49 196.02 L1661.82 196.02 L1661.82 192.132 M1661.82 201.576 L1691.49 201.576 L1691.49 205.511 L1661.82 205.511 L1661.82 201.576 Z" fill="#000000" fill-rule="nonzero" fill-opacity="1" /><path clip-path="url(#clip510)" d="M1717.46 209.724 L1725.1 209.724 L1725.1 183.358 L1716.79 185.025 L1716.79 180.766 L1725.06 179.099 L1729.73 179.099 L1729.73 209.724 L1737.37 209.724 L1737.37 213.659 L1717.46 213.659 L1717.46 209.724 Z" fill="#000000" fill-rule="nonzero" fill-opacity="1" /><path clip-path="url(#clip510)" d="M1756.81 182.178 Q1753.2 182.178 1751.38 185.743 Q1749.57 189.284 1749.57 196.414 Q1749.57 203.52 1751.38 207.085 Q1753.2 210.627 1756.81 210.627 Q1760.45 210.627 1762.25 207.085 Q1764.08 203.52 1764.08 196.414 Q1764.08 189.284 1762.25 185.743 Q1760.45 182.178 1756.81 182.178 M1756.81 178.474 Q1762.62 178.474 1765.68 183.081 Q1768.76 187.664 1768.76 196.414 Q1768.76 205.141 1765.68 209.747 Q1762.62 214.33 1756.81 214.33 Q1751 214.33 1747.93 209.747 Q1744.87 205.141 1744.87 196.414 Q1744.87 187.664 1747.93 183.081 Q1751 178.474 1756.81 178.474 Z" fill="#000000" fill-rule="nonzero" fill-opacity="1" /><path clip-path="url(#clip510)" d="M1781 209.724 L1797.32 209.724 L1797.32 213.659 L1775.38 213.659 L1775.38 209.724 Q1778.04 206.969 1782.62 202.34 Q1787.23 197.687 1788.41 196.344 Q1790.66 193.821 1791.54 192.085 Q1792.44 190.326 1792.44 188.636 Q1792.44 185.882 1790.5 184.145 Q1788.57 182.409 1785.47 182.409 Q1783.27 182.409 1780.82 183.173 Q1778.39 183.937 1775.61 185.488 L1775.61 180.766 Q1778.44 179.632 1780.89 179.053 Q1783.34 178.474 1785.38 178.474 Q1790.75 178.474 1793.94 181.159 Q1797.14 183.845 1797.14 188.335 Q1797.14 190.465 1796.33 192.386 Q1795.54 194.284 1793.44 196.877 Q1792.86 197.548 1789.75 200.766 Q1786.65 203.96 1781 209.724 Z" fill="#000000" fill-rule="nonzero" fill-opacity="1" /><path clip-path="url(#clip510)" d="M1819.99 183.173 L1808.18 201.622 L1819.99 201.622 L1819.99 183.173 M1818.76 179.099 L1824.64 179.099 L1824.64 201.622 L1829.57 201.622 L1829.57 205.511 L1824.64 205.511 L1824.64 213.659 L1819.99 213.659 L1819.99 205.511 L1804.38 205.511 L1804.38 200.997 L1818.76 179.099 Z" fill="#000000" fill-rule="nonzero" fill-opacity="1" /><path clip-path="url(#clip510)" d="M1862 177.687 Q1858.9 183.011 1857.39 188.22 Q1855.89 193.428 1855.89 198.775 Q1855.89 204.122 1857.39 209.377 Q1858.92 214.608 1862 219.909 L1858.3 219.909 Q1854.82 214.469 1853.09 209.215 Q1851.37 203.96 1851.37 198.775 Q1851.37 193.613 1853.09 188.382 Q1854.8 183.15 1858.3 177.687 L1862 177.687 Z" fill="#000000" fill-rule="nonzero" fill-opacity="1" /><path clip-path="url(#clip510)" d="M1885.03 195.025 Q1888.39 195.743 1890.26 198.011 Q1892.16 200.28 1892.16 203.613 Q1892.16 208.729 1888.64 211.53 Q1885.12 214.33 1878.64 214.33 Q1876.47 214.33 1874.15 213.891 Q1871.86 213.474 1869.41 212.618 L1869.41 208.104 Q1871.35 209.238 1873.67 209.817 Q1875.98 210.395 1878.5 210.395 Q1882.9 210.395 1885.19 208.659 Q1887.51 206.923 1887.51 203.613 Q1887.51 200.557 1885.36 198.844 Q1883.23 197.108 1879.41 197.108 L1875.38 197.108 L1875.38 193.266 L1879.59 193.266 Q1883.04 193.266 1884.87 191.9 Q1886.7 190.511 1886.7 187.919 Q1886.7 185.257 1884.8 183.845 Q1882.93 182.409 1879.41 182.409 Q1877.49 182.409 1875.29 182.826 Q1873.09 183.243 1870.45 184.122 L1870.45 179.956 Q1873.11 179.215 1875.43 178.845 Q1877.76 178.474 1879.82 178.474 Q1885.15 178.474 1888.25 180.905 Q1891.35 183.312 1891.35 187.432 Q1891.35 190.303 1889.71 192.294 Q1888.06 194.261 1885.03 195.025 Z" fill="#000000" fill-rule="nonzero" fill-opacity="1" /><path clip-path="url(#clip510)" d="M1905.05 209.724 L1921.37 209.724 L1921.37 213.659 L1899.43 213.659 L1899.43 209.724 Q1902.09 206.969 1906.68 202.34 Q1911.28 197.687 1912.46 196.344 Q1914.71 193.821 1915.59 192.085 Q1916.49 190.326 1916.49 188.636 Q1916.49 185.882 1914.55 184.145 Q1912.62 182.409 1909.52 182.409 Q1907.32 182.409 1904.87 183.173 Q1902.44 183.937 1899.66 185.488 L1899.66 180.766 Q1902.49 179.632 1904.94 179.053 Q1907.39 178.474 1909.43 178.474 Q1914.8 178.474 1917.99 181.159 Q1921.19 183.845 1921.19 188.335 Q1921.19 190.465 1920.38 192.386 Q1919.59 194.284 1917.49 196.877 Q1916.91 197.548 1913.8 200.766 Q1910.7 203.96 1905.05 209.724 Z" fill="#000000" fill-rule="nonzero" fill-opacity="1" /><path clip-path="url(#clip510)" d="M1931.19 207.78 L1936.07 207.78 L1936.07 213.659 L1931.19 213.659 L1931.19 207.78 Z" fill="#000000" fill-rule="nonzero" fill-opacity="1" /><path clip-path="url(#clip510)" d="M1956.26 182.178 Q1952.65 182.178 1950.82 185.743 Q1949.01 189.284 1949.01 196.414 Q1949.01 203.52 1950.82 207.085 Q1952.65 210.627 1956.26 210.627 Q1959.89 210.627 1961.7 207.085 Q1963.53 203.52 1963.53 196.414 Q1963.53 189.284 1961.7 185.743 Q1959.89 182.178 1956.26 182.178 M1956.26 178.474 Q1962.07 178.474 1965.12 183.081 Q1968.2 187.664 1968.2 196.414 Q1968.2 205.141 1965.12 209.747 Q1962.07 214.33 1956.26 214.33 Q1950.45 214.33 1947.37 209.747 Q1944.31 205.141 1944.31 196.414 Q1944.31 187.664 1947.37 183.081 Q1950.45 178.474 1956.26 178.474 Z" fill="#000000" fill-rule="nonzero" fill-opacity="1" /><path clip-path="url(#clip510)" d="M1991.07 179.099 L1995.75 179.099 L1995.75 193.706 L2011.26 179.099 L2017.28 179.099 L2000.12 195.21 L2018.5 213.659 L2012.35 213.659 L1995.75 197.016 L1995.75 213.659 L1991.07 213.659 L1991.07 179.099 Z" fill="#000000" fill-rule="nonzero" fill-opacity="1" /><path clip-path="url(#clip510)" d="M2021.98 187.733 L2026.23 187.733 L2026.23 213.659 L2021.98 213.659 L2021.98 187.733 M2021.98 177.641 L2026.23 177.641 L2026.23 183.034 L2021.98 183.034 L2021.98 177.641 Z" fill="#000000" fill-rule="nonzero" fill-opacity="1" /><path clip-path="url(#clip510)" d="M2040.01 197.155 L2040.01 209.817 L2047.51 209.817 Q2051.28 209.817 2053.09 208.266 Q2054.92 206.692 2054.92 203.474 Q2054.92 200.233 2053.09 198.706 Q2051.28 197.155 2047.51 197.155 L2040.01 197.155 M2040.01 182.942 L2040.01 193.358 L2046.93 193.358 Q2050.35 193.358 2052.02 192.085 Q2053.71 190.789 2053.71 188.15 Q2053.71 185.534 2052.02 184.238 Q2050.35 182.942 2046.93 182.942 L2040.01 182.942 M2035.33 179.099 L2047.28 179.099 Q2052.62 179.099 2055.52 181.321 Q2058.41 183.544 2058.41 187.641 Q2058.41 190.812 2056.93 192.687 Q2055.45 194.562 2052.58 195.025 Q2056.03 195.766 2057.92 198.127 Q2059.85 200.465 2059.85 203.983 Q2059.85 208.613 2056.7 211.136 Q2053.55 213.659 2047.74 213.659 L2035.33 213.659 L2035.33 179.099 Z" fill="#000000" fill-rule="nonzero" fill-opacity="1" /><path clip-path="url(#clip510)" d="M2067 177.687 L2070.7 177.687 Q2074.17 183.15 2075.89 188.382 Q2077.62 193.613 2077.62 198.775 Q2077.62 203.96 2075.89 209.215 Q2074.17 214.469 2070.7 219.909 L2067 219.909 Q2070.08 214.608 2071.58 209.377 Q2073.11 204.122 2073.11 198.775 Q2073.11 193.428 2071.58 188.22 Q2070.08 183.011 2067 177.687 Z" fill="#000000" fill-rule="nonzero" fill-opacity="1" /><polyline clip-path="url(#clip510)" style="stroke:#ff0000; stroke-linecap:round; stroke-linejoin:round; stroke-width:8; stroke-opacity:1; fill:none" points="1425.02,248.219 1566.26,248.219 "/>
<path clip-path="url(#clip510)" d="M1589.8 230.939 L1594.48 230.939 L1594.48 261.564 L1611.31 261.564 L1611.31 265.499 L1589.8 265.499 L1589.8 230.939 Z" fill="#000000" fill-rule="nonzero" fill-opacity="1" /><path clip-path="url(#clip510)" d="M1620.66 261.564 L1636.98 261.564 L1636.98 265.499 L1615.03 265.499 L1615.03 261.564 Q1617.7 258.809 1622.28 254.18 Q1626.88 249.527 1628.07 248.184 Q1630.31 245.661 1631.19 243.925 Q1632.09 242.166 1632.09 240.476 Q1632.09 237.722 1630.15 235.985 Q1628.23 234.249 1625.13 234.249 Q1622.93 234.249 1620.47 235.013 Q1618.04 235.777 1615.26 237.328 L1615.26 232.606 Q1618.09 231.472 1620.54 230.893 Q1623 230.314 1625.03 230.314 Q1630.4 230.314 1633.6 232.999 Q1636.79 235.685 1636.79 240.175 Q1636.79 242.305 1635.98 244.226 Q1635.2 246.124 1633.09 248.717 Q1632.51 249.388 1629.41 252.606 Q1626.31 255.8 1620.66 261.564 Z" fill="#000000" fill-rule="nonzero" fill-opacity="1" /><path clip-path="url(#clip510)" d="M1661.82 243.972 L1691.49 243.972 L1691.49 247.86 L1661.82 247.86 L1661.82 243.972 M1661.82 253.416 L1691.49 253.416 L1691.49 257.351 L1661.82 257.351 L1661.82 253.416 Z" fill="#000000" fill-rule="nonzero" fill-opacity="1" /><path clip-path="url(#clip510)" d="M1717.46 261.564 L1725.1 261.564 L1725.1 235.198 L1716.79 236.865 L1716.79 232.606 L1725.06 230.939 L1729.73 230.939 L1729.73 261.564 L1737.37 261.564 L1737.37 265.499 L1717.46 265.499 L1717.46 261.564 Z" fill="#000000" fill-rule="nonzero" fill-opacity="1" /><path clip-path="url(#clip510)" d="M1757.39 246.356 Q1754.25 246.356 1752.39 248.509 Q1750.56 250.661 1750.56 254.411 Q1750.56 258.138 1752.39 260.314 Q1754.25 262.467 1757.39 262.467 Q1760.54 262.467 1762.37 260.314 Q1764.22 258.138 1764.22 254.411 Q1764.22 250.661 1762.37 248.509 Q1760.54 246.356 1757.39 246.356 M1766.68 231.703 L1766.68 235.962 Q1764.92 235.129 1763.11 234.689 Q1761.33 234.249 1759.57 234.249 Q1754.94 234.249 1752.49 237.374 Q1750.06 240.499 1749.71 246.819 Q1751.07 244.805 1753.13 243.74 Q1755.19 242.652 1757.67 242.652 Q1762.88 242.652 1765.89 245.823 Q1768.92 248.971 1768.92 254.411 Q1768.92 259.735 1765.77 262.953 Q1762.62 266.17 1757.39 266.17 Q1751.4 266.17 1748.23 261.587 Q1745.06 256.981 1745.06 248.254 Q1745.06 240.06 1748.94 235.198 Q1752.83 230.314 1759.38 230.314 Q1761.14 230.314 1762.93 230.661 Q1764.73 231.009 1766.68 231.703 Z" fill="#000000" fill-rule="nonzero" fill-opacity="1" /><path clip-path="url(#clip510)" d="M1791.14 246.865 Q1794.5 247.583 1796.37 249.851 Q1798.27 252.12 1798.27 255.453 Q1798.27 260.569 1794.75 263.37 Q1791.24 266.17 1784.75 266.17 Q1782.58 266.17 1780.26 265.731 Q1777.97 265.314 1775.52 264.458 L1775.52 259.944 Q1777.46 261.078 1779.78 261.657 Q1782.09 262.235 1784.62 262.235 Q1789.01 262.235 1791.31 260.499 Q1793.62 258.763 1793.62 255.453 Q1793.62 252.397 1791.47 250.684 Q1789.34 248.948 1785.52 248.948 L1781.49 248.948 L1781.49 245.106 L1785.7 245.106 Q1789.15 245.106 1790.98 243.74 Q1792.81 242.351 1792.81 239.759 Q1792.81 237.097 1790.91 235.685 Q1789.04 234.249 1785.52 234.249 Q1783.6 234.249 1781.4 234.666 Q1779.2 235.083 1776.56 235.962 L1776.56 231.796 Q1779.22 231.055 1781.54 230.685 Q1783.87 230.314 1785.94 230.314 Q1791.26 230.314 1794.36 232.745 Q1797.46 235.152 1797.46 239.272 Q1797.46 242.143 1795.82 244.134 Q1794.18 246.101 1791.14 246.865 Z" fill="#000000" fill-rule="nonzero" fill-opacity="1" /><path clip-path="url(#clip510)" d="M1817.14 249.087 Q1813.81 249.087 1811.88 250.87 Q1809.99 252.652 1809.99 255.777 Q1809.99 258.902 1811.88 260.684 Q1813.81 262.467 1817.14 262.467 Q1820.47 262.467 1822.39 260.684 Q1824.31 258.879 1824.31 255.777 Q1824.31 252.652 1822.39 250.87 Q1820.5 249.087 1817.14 249.087 M1812.46 247.097 Q1809.45 246.356 1807.76 244.296 Q1806.1 242.235 1806.1 239.272 Q1806.1 235.129 1809.04 232.722 Q1812 230.314 1817.14 230.314 Q1822.3 230.314 1825.24 232.722 Q1828.18 235.129 1828.18 239.272 Q1828.18 242.235 1826.49 244.296 Q1824.82 246.356 1821.84 247.097 Q1825.22 247.884 1827.09 250.175 Q1828.99 252.467 1828.99 255.777 Q1828.99 260.8 1825.91 263.485 Q1822.86 266.17 1817.14 266.17 Q1811.42 266.17 1808.34 263.485 Q1805.29 260.8 1805.29 255.777 Q1805.29 252.467 1807.18 250.175 Q1809.08 247.884 1812.46 247.097 M1810.75 239.712 Q1810.75 242.397 1812.42 243.902 Q1814.11 245.407 1817.14 245.407 Q1820.15 245.407 1821.84 243.902 Q1823.55 242.397 1823.55 239.712 Q1823.55 237.027 1821.84 235.522 Q1820.15 234.018 1817.14 234.018 Q1814.11 234.018 1812.42 235.522 Q1810.75 237.027 1810.75 239.712 Z" fill="#000000" fill-rule="nonzero" fill-opacity="1" /><path clip-path="url(#clip510)" d="M1850.15 235.013 L1838.34 253.462 L1850.15 253.462 L1850.15 235.013 M1848.92 230.939 L1854.8 230.939 L1854.8 253.462 L1859.73 253.462 L1859.73 257.351 L1854.8 257.351 L1854.8 265.499 L1850.15 265.499 L1850.15 257.351 L1834.55 257.351 L1834.55 252.837 L1848.92 230.939 Z" fill="#000000" fill-rule="nonzero" fill-opacity="1" /><path clip-path="url(#clip510)" d="M1892.16 229.527 Q1889.06 234.851 1887.55 240.06 Q1886.05 245.268 1886.05 250.615 Q1886.05 255.962 1887.55 261.217 Q1889.08 266.448 1892.16 271.749 L1888.46 271.749 Q1884.99 266.309 1883.25 261.055 Q1881.54 255.8 1881.54 250.615 Q1881.54 245.453 1883.25 240.222 Q1884.96 234.99 1888.46 229.527 L1892.16 229.527 Z" fill="#000000" fill-rule="nonzero" fill-opacity="1" /><path clip-path="url(#clip510)" d="M1901.07 230.939 L1919.43 230.939 L1919.43 234.874 L1905.36 234.874 L1905.36 243.347 Q1906.37 242.999 1907.39 242.837 Q1908.41 242.652 1909.43 242.652 Q1915.22 242.652 1918.6 245.823 Q1921.98 248.995 1921.98 254.411 Q1921.98 259.99 1918.5 263.092 Q1915.03 266.17 1908.71 266.17 Q1906.54 266.17 1904.27 265.8 Q1902.02 265.43 1899.61 264.689 L1899.61 259.99 Q1901.7 261.124 1903.92 261.68 Q1906.14 262.235 1908.62 262.235 Q1912.62 262.235 1914.96 260.129 Q1917.3 258.022 1917.3 254.411 Q1917.3 250.8 1914.96 248.694 Q1912.62 246.587 1908.62 246.587 Q1906.74 246.587 1904.87 247.004 Q1903.02 247.421 1901.07 248.3 L1901.07 230.939 Z" fill="#000000" fill-rule="nonzero" fill-opacity="1" /><path clip-path="url(#clip510)" d="M1932 261.564 L1939.64 261.564 L1939.64 235.198 L1931.33 236.865 L1931.33 232.606 L1939.59 230.939 L1944.27 230.939 L1944.27 261.564 L1951.91 261.564 L1951.91 265.499 L1932 265.499 L1932 261.564 Z" fill="#000000" fill-rule="nonzero" fill-opacity="1" /><path clip-path="url(#clip510)" d="M1965.38 261.564 L1981.7 261.564 L1981.7 265.499 L1959.75 265.499 L1959.75 261.564 Q1962.42 258.809 1967 254.18 Q1971.61 249.527 1972.79 248.184 Q1975.03 245.661 1975.91 243.925 Q1976.81 242.166 1976.81 240.476 Q1976.81 237.722 1974.87 235.985 Q1972.95 234.249 1969.85 234.249 Q1967.65 234.249 1965.19 235.013 Q1962.76 235.777 1959.99 237.328 L1959.99 232.606 Q1962.81 231.472 1965.26 230.893 Q1967.72 230.314 1969.75 230.314 Q1975.12 230.314 1978.32 232.999 Q1981.51 235.685 1981.51 240.175 Q1981.51 242.305 1980.7 244.226 Q1979.92 246.124 1977.81 248.717 Q1977.23 249.388 1974.13 252.606 Q1971.03 255.8 1965.38 261.564 Z" fill="#000000" fill-rule="nonzero" fill-opacity="1" /><path clip-path="url(#clip510)" d="M1991.51 259.62 L1996.4 259.62 L1996.4 265.499 L1991.51 265.499 L1991.51 259.62 Z" fill="#000000" fill-rule="nonzero" fill-opacity="1" /><path clip-path="url(#clip510)" d="M2016.58 234.018 Q2012.97 234.018 2011.14 237.583 Q2009.34 241.124 2009.34 248.254 Q2009.34 255.36 2011.14 258.925 Q2012.97 262.467 2016.58 262.467 Q2020.22 262.467 2022.02 258.925 Q2023.85 255.36 2023.85 248.254 Q2023.85 241.124 2022.02 237.583 Q2020.22 234.018 2016.58 234.018 M2016.58 230.314 Q2022.39 230.314 2025.45 234.921 Q2028.53 239.504 2028.53 248.254 Q2028.53 256.981 2025.45 261.587 Q2022.39 266.17 2016.58 266.17 Q2010.77 266.17 2007.69 261.587 Q2004.64 256.981 2004.64 248.254 Q2004.64 239.504 2007.69 234.921 Q2010.77 230.314 2016.58 230.314 Z" fill="#000000" fill-rule="nonzero" fill-opacity="1" /><path clip-path="url(#clip510)" d="M2051.4 230.939 L2056.07 230.939 L2056.07 245.546 L2071.58 230.939 L2077.6 230.939 L2060.45 247.05 L2078.83 265.499 L2072.67 265.499 L2056.07 248.856 L2056.07 265.499 L2051.4 265.499 L2051.4 230.939 Z" fill="#000000" fill-rule="nonzero" fill-opacity="1" /><path clip-path="url(#clip510)" d="M2082.3 239.573 L2086.56 239.573 L2086.56 265.499 L2082.3 265.499 L2082.3 239.573 M2082.3 229.481 L2086.56 229.481 L2086.56 234.874 L2082.3 234.874 L2082.3 229.481 Z" fill="#000000" fill-rule="nonzero" fill-opacity="1" /><path clip-path="url(#clip510)" d="M2100.33 248.995 L2100.33 261.657 L2107.83 261.657 Q2111.6 261.657 2113.41 260.106 Q2115.24 258.532 2115.24 255.314 Q2115.24 252.073 2113.41 250.546 Q2111.6 248.995 2107.83 248.995 L2100.33 248.995 M2100.33 234.782 L2100.33 245.198 L2107.25 245.198 Q2110.68 245.198 2112.35 243.925 Q2114.04 242.629 2114.04 239.99 Q2114.04 237.374 2112.35 236.078 Q2110.68 234.782 2107.25 234.782 L2100.33 234.782 M2095.66 230.939 L2107.6 230.939 Q2112.95 230.939 2115.84 233.161 Q2118.73 235.384 2118.73 239.481 Q2118.73 242.652 2117.25 244.527 Q2115.77 246.402 2112.9 246.865 Q2116.35 247.606 2118.25 249.967 Q2120.17 252.305 2120.17 255.823 Q2120.17 260.453 2117.02 262.976 Q2113.87 265.499 2108.06 265.499 L2095.66 265.499 L2095.66 230.939 Z" fill="#000000" fill-rule="nonzero" fill-opacity="1" /><path clip-path="url(#clip510)" d="M2127.32 229.527 L2131.03 229.527 Q2134.5 234.99 2136.21 240.222 Q2137.95 245.453 2137.95 250.615 Q2137.95 255.8 2136.21 261.055 Q2134.5 266.309 2131.03 271.749 L2127.32 271.749 Q2130.4 266.448 2131.91 261.217 Q2133.43 255.962 2133.43 250.615 Q2133.43 245.268 2131.91 240.06 Q2130.4 234.851 2127.32 229.527 Z" fill="#000000" fill-rule="nonzero" fill-opacity="1" /><polyline clip-path="url(#clip510)" style="stroke:#800080; stroke-linecap:round; stroke-linejoin:round; stroke-width:8; stroke-opacity:1; fill:none" points="1425.02,300.059 1566.26,300.059 "/>
<path clip-path="url(#clip510)" d="M1589.8 282.779 L1594.48 282.779 L1594.48 313.404 L1611.31 313.404 L1611.31 317.339 L1589.8 317.339 L1589.8 282.779 Z" fill="#000000" fill-rule="nonzero" fill-opacity="1" /><path clip-path="url(#clip510)" d="M1630.8 298.705 Q1634.15 299.423 1636.03 301.691 Q1637.93 303.96 1637.93 307.293 Q1637.93 312.409 1634.41 315.21 Q1630.89 318.01 1624.41 318.01 Q1622.23 318.01 1619.92 317.571 Q1617.63 317.154 1615.17 316.298 L1615.17 311.784 Q1617.12 312.918 1619.43 313.497 Q1621.75 314.075 1624.27 314.075 Q1628.67 314.075 1630.96 312.339 Q1633.27 310.603 1633.27 307.293 Q1633.27 304.237 1631.12 302.524 Q1628.99 300.788 1625.17 300.788 L1621.14 300.788 L1621.14 296.946 L1625.36 296.946 Q1628.81 296.946 1630.63 295.58 Q1632.46 294.191 1632.46 291.599 Q1632.46 288.937 1630.57 287.525 Q1628.69 286.089 1625.17 286.089 Q1623.25 286.089 1621.05 286.506 Q1618.85 286.923 1616.21 287.802 L1616.21 283.636 Q1618.88 282.895 1621.19 282.525 Q1623.53 282.154 1625.59 282.154 Q1630.91 282.154 1634.01 284.585 Q1637.12 286.992 1637.12 291.112 Q1637.12 293.983 1635.47 295.974 Q1633.83 297.941 1630.8 298.705 Z" fill="#000000" fill-rule="nonzero" fill-opacity="1" /><path clip-path="url(#clip510)" d="M1661.82 295.812 L1691.49 295.812 L1691.49 299.7 L1661.82 299.7 L1661.82 295.812 M1661.82 305.256 L1691.49 305.256 L1691.49 309.191 L1661.82 309.191 L1661.82 305.256 Z" fill="#000000" fill-rule="nonzero" fill-opacity="1" /><path clip-path="url(#clip510)" d="M1717.46 313.404 L1725.1 313.404 L1725.1 287.038 L1716.79 288.705 L1716.79 284.446 L1725.06 282.779 L1729.73 282.779 L1729.73 313.404 L1737.37 313.404 L1737.37 317.339 L1717.46 317.339 L1717.46 313.404 Z" fill="#000000" fill-rule="nonzero" fill-opacity="1" /><path clip-path="url(#clip510)" d="M1756.81 285.858 Q1753.2 285.858 1751.38 289.423 Q1749.57 292.964 1749.57 300.094 Q1749.57 307.2 1751.38 310.765 Q1753.2 314.307 1756.81 314.307 Q1760.45 314.307 1762.25 310.765 Q1764.08 307.2 1764.08 300.094 Q1764.08 292.964 1762.25 289.423 Q1760.45 285.858 1756.81 285.858 M1756.81 282.154 Q1762.62 282.154 1765.68 286.761 Q1768.76 291.344 1768.76 300.094 Q1768.76 308.821 1765.68 313.427 Q1762.62 318.01 1756.81 318.01 Q1751 318.01 1747.93 313.427 Q1744.87 308.821 1744.87 300.094 Q1744.87 291.344 1747.93 286.761 Q1751 282.154 1756.81 282.154 Z" fill="#000000" fill-rule="nonzero" fill-opacity="1" /><path clip-path="url(#clip510)" d="M1789.82 286.853 L1778.02 305.302 L1789.82 305.302 L1789.82 286.853 M1788.6 282.779 L1794.48 282.779 L1794.48 305.302 L1799.41 305.302 L1799.41 309.191 L1794.48 309.191 L1794.48 317.339 L1789.82 317.339 L1789.82 309.191 L1774.22 309.191 L1774.22 304.677 L1788.6 282.779 Z" fill="#000000" fill-rule="nonzero" fill-opacity="1" /><path clip-path="url(#clip510)" d="M1817.14 300.927 Q1813.81 300.927 1811.88 302.71 Q1809.99 304.492 1809.99 307.617 Q1809.99 310.742 1811.88 312.524 Q1813.81 314.307 1817.14 314.307 Q1820.47 314.307 1822.39 312.524 Q1824.31 310.719 1824.31 307.617 Q1824.31 304.492 1822.39 302.71 Q1820.5 300.927 1817.14 300.927 M1812.46 298.937 Q1809.45 298.196 1807.76 296.136 Q1806.1 294.075 1806.1 291.112 Q1806.1 286.969 1809.04 284.562 Q1812 282.154 1817.14 282.154 Q1822.3 282.154 1825.24 284.562 Q1828.18 286.969 1828.18 291.112 Q1828.18 294.075 1826.49 296.136 Q1824.82 298.196 1821.84 298.937 Q1825.22 299.724 1827.09 302.015 Q1828.99 304.307 1828.99 307.617 Q1828.99 312.64 1825.91 315.325 Q1822.86 318.01 1817.14 318.01 Q1811.42 318.01 1808.34 315.325 Q1805.29 312.64 1805.29 307.617 Q1805.29 304.307 1807.18 302.015 Q1809.08 299.724 1812.46 298.937 M1810.75 291.552 Q1810.75 294.237 1812.42 295.742 Q1814.11 297.247 1817.14 297.247 Q1820.15 297.247 1821.84 295.742 Q1823.55 294.237 1823.55 291.552 Q1823.55 288.867 1821.84 287.362 Q1820.15 285.858 1817.14 285.858 Q1814.11 285.858 1812.42 287.362 Q1810.75 288.867 1810.75 291.552 Z" fill="#000000" fill-rule="nonzero" fill-opacity="1" /><path clip-path="url(#clip510)" d="M1837.35 282.779 L1855.7 282.779 L1855.7 286.714 L1841.63 286.714 L1841.63 295.187 Q1842.65 294.839 1843.67 294.677 Q1844.68 294.492 1845.7 294.492 Q1851.49 294.492 1854.87 297.663 Q1858.25 300.835 1858.25 306.251 Q1858.25 311.83 1854.78 314.932 Q1851.31 318.01 1844.99 318.01 Q1842.81 318.01 1840.54 317.64 Q1838.3 317.27 1835.89 316.529 L1835.89 311.83 Q1837.97 312.964 1840.19 313.52 Q1842.42 314.075 1844.89 314.075 Q1848.9 314.075 1851.24 311.969 Q1853.57 309.862 1853.57 306.251 Q1853.57 302.64 1851.24 300.534 Q1848.9 298.427 1844.89 298.427 Q1843.02 298.427 1841.14 298.844 Q1839.29 299.261 1837.35 300.14 L1837.35 282.779 Z" fill="#000000" fill-rule="nonzero" fill-opacity="1" /><path clip-path="url(#clip510)" d="M1866.28 282.779 L1888.5 282.779 L1888.5 284.77 L1875.96 317.339 L1871.07 317.339 L1882.88 286.714 L1866.28 286.714 L1866.28 282.779 Z" fill="#000000" fill-rule="nonzero" fill-opacity="1" /><path clip-path="url(#clip510)" d="M1908.2 298.196 Q1905.05 298.196 1903.2 300.349 Q1901.37 302.501 1901.37 306.251 Q1901.37 309.978 1903.2 312.154 Q1905.05 314.307 1908.2 314.307 Q1911.35 314.307 1913.18 312.154 Q1915.03 309.978 1915.03 306.251 Q1915.03 302.501 1913.18 300.349 Q1911.35 298.196 1908.2 298.196 M1917.49 283.543 L1917.49 287.802 Q1915.73 286.969 1913.92 286.529 Q1912.14 286.089 1910.38 286.089 Q1905.75 286.089 1903.3 289.214 Q1900.86 292.339 1900.52 298.659 Q1901.88 296.645 1903.94 295.58 Q1906 294.492 1908.48 294.492 Q1913.69 294.492 1916.7 297.663 Q1919.73 300.811 1919.73 306.251 Q1919.73 311.575 1916.58 314.793 Q1913.43 318.01 1908.2 318.01 Q1902.21 318.01 1899.04 313.427 Q1895.87 308.821 1895.87 300.094 Q1895.87 291.9 1899.75 287.038 Q1903.64 282.154 1910.19 282.154 Q1911.95 282.154 1913.74 282.501 Q1915.54 282.849 1917.49 283.543 Z" fill="#000000" fill-rule="nonzero" fill-opacity="1" /><path clip-path="url(#clip510)" d="M1952.49 281.367 Q1949.38 286.691 1947.88 291.9 Q1946.37 297.108 1946.37 302.455 Q1946.37 307.802 1947.88 313.057 Q1949.41 318.288 1952.49 323.589 L1948.78 323.589 Q1945.31 318.149 1943.57 312.895 Q1941.86 307.64 1941.86 302.455 Q1941.86 297.293 1943.57 292.062 Q1945.29 286.83 1948.78 281.367 L1952.49 281.367 Z" fill="#000000" fill-rule="nonzero" fill-opacity="1" /><path clip-path="url(#clip510)" d="M1975.52 298.705 Q1978.87 299.423 1980.75 301.691 Q1982.65 303.96 1982.65 307.293 Q1982.65 312.409 1979.13 315.21 Q1975.61 318.01 1969.13 318.01 Q1966.95 318.01 1964.64 317.571 Q1962.35 317.154 1959.89 316.298 L1959.89 311.784 Q1961.84 312.918 1964.15 313.497 Q1966.47 314.075 1968.99 314.075 Q1973.39 314.075 1975.68 312.339 Q1977.99 310.603 1977.99 307.293 Q1977.99 304.237 1975.84 302.524 Q1973.71 300.788 1969.89 300.788 L1965.86 300.788 L1965.86 296.946 L1970.08 296.946 Q1973.53 296.946 1975.36 295.58 Q1977.18 294.191 1977.18 291.599 Q1977.18 288.937 1975.29 287.525 Q1973.41 286.089 1969.89 286.089 Q1967.97 286.089 1965.77 286.506 Q1963.57 286.923 1960.93 287.802 L1960.93 283.636 Q1963.6 282.895 1965.91 282.525 Q1968.25 282.154 1970.31 282.154 Q1975.63 282.154 1978.73 284.585 Q1981.84 286.992 1981.84 291.112 Q1981.84 293.983 1980.19 295.974 Q1978.55 297.941 1975.52 298.705 Z" fill="#000000" fill-rule="nonzero" fill-opacity="1" /><path clip-path="url(#clip510)" d="M1995.54 313.404 L2011.86 313.404 L2011.86 317.339 L1989.92 317.339 L1989.92 313.404 Q1992.58 310.649 1997.16 306.02 Q2001.77 301.367 2002.95 300.024 Q2005.19 297.501 2006.07 295.765 Q2006.98 294.006 2006.98 292.316 Q2006.98 289.562 2005.03 287.825 Q2003.11 286.089 2000.01 286.089 Q1997.81 286.089 1995.36 286.853 Q1992.92 287.617 1990.15 289.168 L1990.15 284.446 Q1992.97 283.312 1995.42 282.733 Q1997.88 282.154 1999.92 282.154 Q2005.29 282.154 2008.48 284.839 Q2011.67 287.525 2011.67 292.015 Q2011.67 294.145 2010.86 296.066 Q2010.08 297.964 2007.97 300.557 Q2007.39 301.228 2004.29 304.446 Q2001.19 307.64 1995.54 313.404 Z" fill="#000000" fill-rule="nonzero" fill-opacity="1" /><path clip-path="url(#clip510)" d="M2020.49 282.779 L2042.72 282.779 L2042.72 284.77 L2030.17 317.339 L2025.29 317.339 L2037.09 286.714 L2020.49 286.714 L2020.49 282.779 Z" fill="#000000" fill-rule="nonzero" fill-opacity="1" /><path clip-path="url(#clip510)" d="M2062.42 298.196 Q2059.27 298.196 2057.42 300.349 Q2055.59 302.501 2055.59 306.251 Q2055.59 309.978 2057.42 312.154 Q2059.27 314.307 2062.42 314.307 Q2065.56 314.307 2067.39 312.154 Q2069.24 309.978 2069.24 306.251 Q2069.24 302.501 2067.39 300.349 Q2065.56 298.196 2062.42 298.196 M2071.7 283.543 L2071.7 287.802 Q2069.94 286.969 2068.13 286.529 Q2066.35 286.089 2064.59 286.089 Q2059.96 286.089 2057.51 289.214 Q2055.08 292.339 2054.73 298.659 Q2056.1 296.645 2058.16 295.58 Q2060.22 294.492 2062.69 294.492 Q2067.9 294.492 2070.91 297.663 Q2073.94 300.811 2073.94 306.251 Q2073.94 311.575 2070.79 314.793 Q2067.65 318.01 2062.42 318.01 Q2056.42 318.01 2053.25 313.427 Q2050.08 308.821 2050.08 300.094 Q2050.08 291.9 2053.97 287.038 Q2057.85 282.154 2064.41 282.154 Q2066.17 282.154 2067.95 282.501 Q2069.75 282.849 2071.7 283.543 Z" fill="#000000" fill-rule="nonzero" fill-opacity="1" /><path clip-path="url(#clip510)" d="M2092 300.927 Q2088.66 300.927 2086.74 302.71 Q2084.85 304.492 2084.85 307.617 Q2084.85 310.742 2086.74 312.524 Q2088.66 314.307 2092 314.307 Q2095.33 314.307 2097.25 312.524 Q2099.17 310.719 2099.17 307.617 Q2099.17 304.492 2097.25 302.71 Q2095.35 300.927 2092 300.927 M2087.32 298.937 Q2084.31 298.196 2082.62 296.136 Q2080.96 294.075 2080.96 291.112 Q2080.96 286.969 2083.9 284.562 Q2086.86 282.154 2092 282.154 Q2097.16 282.154 2100.1 284.562 Q2103.04 286.969 2103.04 291.112 Q2103.04 294.075 2101.35 296.136 Q2099.68 298.196 2096.7 298.937 Q2100.08 299.724 2101.95 302.015 Q2103.85 304.307 2103.85 307.617 Q2103.85 312.64 2100.77 315.325 Q2097.72 318.01 2092 318.01 Q2086.28 318.01 2083.2 315.325 Q2080.15 312.64 2080.15 307.617 Q2080.15 304.307 2082.04 302.015 Q2083.94 299.724 2087.32 298.937 M2085.61 291.552 Q2085.61 294.237 2087.28 295.742 Q2088.97 297.247 2092 297.247 Q2095.01 297.247 2096.7 295.742 Q2098.41 294.237 2098.41 291.552 Q2098.41 288.867 2096.7 287.362 Q2095.01 285.858 2092 285.858 Q2088.97 285.858 2087.28 287.362 Q2085.61 288.867 2085.61 291.552 Z" fill="#000000" fill-rule="nonzero" fill-opacity="1" /><path clip-path="url(#clip510)" d="M2112.16 311.46 L2117.04 311.46 L2117.04 317.339 L2112.16 317.339 L2112.16 311.46 Z" fill="#000000" fill-rule="nonzero" fill-opacity="1" /><path clip-path="url(#clip510)" d="M2137.23 285.858 Q2133.62 285.858 2131.79 289.423 Q2129.98 292.964 2129.98 300.094 Q2129.98 307.2 2131.79 310.765 Q2133.62 314.307 2137.23 314.307 Q2140.86 314.307 2142.67 310.765 Q2144.5 307.2 2144.5 300.094 Q2144.5 292.964 2142.67 289.423 Q2140.86 285.858 2137.23 285.858 M2137.23 282.154 Q2143.04 282.154 2146.1 286.761 Q2149.17 291.344 2149.17 300.094 Q2149.17 308.821 2146.1 313.427 Q2143.04 318.01 2137.23 318.01 Q2131.42 318.01 2128.34 313.427 Q2125.29 308.821 2125.29 300.094 Q2125.29 291.344 2128.34 286.761 Q2131.42 282.154 2137.23 282.154 Z" fill="#000000" fill-rule="nonzero" fill-opacity="1" /><path clip-path="url(#clip510)" d="M2172.04 282.779 L2176.72 282.779 L2176.72 297.386 L2192.23 282.779 L2198.25 282.779 L2181.09 298.89 L2199.47 317.339 L2193.32 317.339 L2176.72 300.696 L2176.72 317.339 L2172.04 317.339 L2172.04 282.779 Z" fill="#000000" fill-rule="nonzero" fill-opacity="1" /><path clip-path="url(#clip510)" d="M2202.95 291.413 L2207.21 291.413 L2207.21 317.339 L2202.95 317.339 L2202.95 291.413 M2202.95 281.321 L2207.21 281.321 L2207.21 286.714 L2202.95 286.714 L2202.95 281.321 Z" fill="#000000" fill-rule="nonzero" fill-opacity="1" /><path clip-path="url(#clip510)" d="M2220.98 300.835 L2220.98 313.497 L2228.48 313.497 Q2232.25 313.497 2234.06 311.946 Q2235.89 310.372 2235.89 307.154 Q2235.89 303.913 2234.06 302.386 Q2232.25 300.835 2228.48 300.835 L2220.98 300.835 M2220.98 286.622 L2220.98 297.038 L2227.9 297.038 Q2231.33 297.038 2232.99 295.765 Q2234.68 294.469 2234.68 291.83 Q2234.68 289.214 2232.99 287.918 Q2231.33 286.622 2227.9 286.622 L2220.98 286.622 M2216.3 282.779 L2228.25 282.779 Q2233.59 282.779 2236.49 285.001 Q2239.38 287.224 2239.38 291.321 Q2239.38 294.492 2237.9 296.367 Q2236.42 298.242 2233.55 298.705 Q2237 299.446 2238.9 301.807 Q2240.82 304.145 2240.82 307.663 Q2240.82 312.293 2237.67 314.816 Q2234.52 317.339 2228.71 317.339 L2216.3 317.339 L2216.3 282.779 Z" fill="#000000" fill-rule="nonzero" fill-opacity="1" /><path clip-path="url(#clip510)" d="M2247.97 281.367 L2251.67 281.367 Q2255.15 286.83 2256.86 292.062 Q2258.59 297.293 2258.59 302.455 Q2258.59 307.64 2256.86 312.895 Q2255.15 318.149 2251.67 323.589 L2247.97 323.589 Q2251.05 318.288 2252.55 313.057 Q2254.08 307.802 2254.08 302.455 Q2254.08 297.108 2252.55 291.9 Q2251.05 286.691 2247.97 281.367 Z" fill="#000000" fill-rule="nonzero" fill-opacity="1" /></svg>
