<?xml version="1.0" encoding="utf-8"?>
<svg xmlns="http://www.w3.org/2000/svg" xmlns:xlink="http://www.w3.org/1999/xlink" width="600" height="400" viewBox="0 0 2400 1600">
<defs>
  <clipPath id="clip640">
    <rect x="0" y="0" width="2400" height="1600"/>
  </clipPath>
</defs>
<path clip-path="url(#clip640)" d="M0 1600 L2400 1600 L2400 0 L0 0  Z" fill="#ffffff" fill-rule="evenodd" fill-opacity="1"/>
<defs>
  <clipPath id="clip641">
    <rect x="480" y="0" width="1681" height="1600"/>
  </clipPath>
</defs>
<path clip-path="url(#clip640)" d="M205.121 1410.9 L2352.76 1410.9 L2352.76 47.2441 L205.121 47.2441  Z" fill="#ffffff" fill-rule="evenodd" fill-opacity="1"/>
<defs>
  <clipPath id="clip642">
    <rect x="205" y="47" width="2149" height="1365"/>
  </clipPath>
</defs>
<polyline clip-path="url(#clip642)" style="stroke:#000000; stroke-linecap:round; stroke-linejoin:round; stroke-width:2; stroke-opacity:0.1; fill:none" points="768.955,1410.9 768.955,47.2441 "/>
<polyline clip-path="url(#clip642)" style="stroke:#000000; stroke-linecap:round; stroke-linejoin:round; stroke-width:2; stroke-opacity:0.1; fill:none" points="1778.52,1410.9 1778.52,47.2441 "/>
<polyline clip-path="url(#clip640)" style="stroke:#000000; stroke-linecap:round; stroke-linejoin:round; stroke-width:4; stroke-opacity:1; fill:none" points="205.121,1410.9 2352.76,1410.9 "/>
<polyline clip-path="url(#clip640)" style="stroke:#000000; stroke-linecap:round; stroke-linejoin:round; stroke-width:4; stroke-opacity:1; fill:none" points="205.121,47.2441 2352.76,47.2441 "/>
<polyline clip-path="url(#clip640)" style="stroke:#000000; stroke-linecap:round; stroke-linejoin:round; stroke-width:4; stroke-opacity:1; fill:none" points="768.955,1410.9 768.955,1392 "/>
<polyline clip-path="url(#clip640)" style="stroke:#000000; stroke-linecap:round; stroke-linejoin:round; stroke-width:4; stroke-opacity:1; fill:none" points="1778.52,1410.9 1778.52,1392 "/>
<path clip-path="url(#clip640)" d="M734.398 1485.02 L742.037 1485.02 L742.037 1458.66 L733.727 1460.32 L733.727 1456.06 L741.991 1454.4 L746.667 1454.4 L746.667 1485.02 L754.306 1485.02 L754.306 1488.96 L734.398 1488.96 L734.398 1485.02 Z" fill="#000000" fill-rule="nonzero" fill-opacity="1" /><path clip-path="url(#clip640)" d="M773.75 1457.48 Q770.139 1457.48 768.31 1461.04 Q766.505 1464.58 766.505 1471.71 Q766.505 1478.82 768.31 1482.38 Q770.139 1485.92 773.75 1485.92 Q777.384 1485.92 779.19 1482.38 Q781.018 1478.82 781.018 1471.71 Q781.018 1464.58 779.19 1461.04 Q777.384 1457.48 773.75 1457.48 M773.75 1453.77 Q779.56 1453.77 782.616 1458.38 Q785.694 1462.96 785.694 1471.71 Q785.694 1480.44 782.616 1485.04 Q779.56 1489.63 773.75 1489.63 Q767.94 1489.63 764.861 1485.04 Q761.805 1480.44 761.805 1471.71 Q761.805 1462.96 764.861 1458.38 Q767.94 1453.77 773.75 1453.77 Z" fill="#000000" fill-rule="nonzero" fill-opacity="1" /><path clip-path="url(#clip640)" d="M798.389 1446.41 Q801.117 1446.99 802.64 1448.83 Q804.182 1450.68 804.182 1453.38 Q804.182 1457.54 801.323 1459.82 Q798.465 1462.09 793.199 1462.09 Q791.431 1462.09 789.55 1461.73 Q787.688 1461.4 785.694 1460.7 L785.694 1457.03 Q787.274 1457.95 789.155 1458.42 Q791.036 1458.89 793.086 1458.89 Q796.659 1458.89 798.521 1457.48 Q800.402 1456.07 800.402 1453.38 Q800.402 1450.9 798.653 1449.51 Q796.922 1448.1 793.819 1448.1 L790.547 1448.1 L790.547 1444.98 L793.97 1444.98 Q796.772 1444.98 798.258 1443.87 Q799.744 1442.74 799.744 1440.63 Q799.744 1438.47 798.201 1437.32 Q796.678 1436.16 793.819 1436.16 Q792.258 1436.16 790.471 1436.49 Q788.685 1436.83 786.541 1437.55 L786.541 1434.16 Q788.703 1433.56 790.584 1433.26 Q792.484 1432.96 794.158 1432.96 Q798.484 1432.96 801.004 1434.93 Q803.524 1436.89 803.524 1440.24 Q803.524 1442.57 802.189 1444.19 Q800.853 1445.79 798.389 1446.41 Z" fill="#000000" fill-rule="nonzero" fill-opacity="1" /><path clip-path="url(#clip640)" d="M1743.52 1485.02 L1751.15 1485.02 L1751.15 1458.66 L1742.84 1460.32 L1742.84 1456.06 L1751.11 1454.4 L1755.78 1454.4 L1755.78 1485.02 L1763.42 1485.02 L1763.42 1488.96 L1743.52 1488.96 L1743.52 1485.02 Z" fill="#000000" fill-rule="nonzero" fill-opacity="1" /><path clip-path="url(#clip640)" d="M1782.87 1457.48 Q1779.26 1457.48 1777.43 1461.04 Q1775.62 1464.58 1775.62 1471.71 Q1775.62 1478.82 1777.43 1482.38 Q1779.26 1485.92 1782.87 1485.92 Q1786.5 1485.92 1788.31 1482.38 Q1790.14 1478.82 1790.14 1471.71 Q1790.14 1464.58 1788.31 1461.04 Q1786.5 1457.48 1782.87 1457.48 M1782.87 1453.77 Q1788.68 1453.77 1791.73 1458.38 Q1794.81 1462.96 1794.81 1471.71 Q1794.81 1480.44 1791.73 1485.04 Q1788.68 1489.63 1782.87 1489.63 Q1777.06 1489.63 1773.98 1485.04 Q1770.92 1480.44 1770.92 1471.71 Q1770.92 1462.96 1773.98 1458.38 Q1777.06 1453.77 1782.87 1453.77 Z" fill="#000000" fill-rule="nonzero" fill-opacity="1" /><path clip-path="url(#clip640)" d="M1804.84 1445.99 Q1802.28 1445.99 1800.77 1447.74 Q1799.29 1449.49 1799.29 1452.54 Q1799.29 1455.57 1800.77 1457.33 Q1802.28 1459.08 1804.84 1459.08 Q1807.39 1459.08 1808.88 1457.33 Q1810.38 1455.57 1810.38 1452.54 Q1810.38 1449.49 1808.88 1447.74 Q1807.39 1445.99 1804.84 1445.99 M1812.38 1434.09 L1812.38 1437.55 Q1810.95 1436.87 1809.48 1436.51 Q1808.03 1436.16 1806.6 1436.16 Q1802.84 1436.16 1800.85 1438.69 Q1798.87 1441.23 1798.59 1446.37 Q1799.7 1444.73 1801.38 1443.87 Q1803.05 1442.98 1805.06 1442.98 Q1809.29 1442.98 1811.74 1445.56 Q1814.2 1448.12 1814.2 1452.54 Q1814.2 1456.86 1811.64 1459.48 Q1809.09 1462.09 1804.84 1462.09 Q1799.97 1462.09 1797.39 1458.37 Q1794.81 1454.62 1794.81 1447.53 Q1794.81 1440.88 1797.97 1436.93 Q1801.13 1432.96 1806.45 1432.96 Q1807.88 1432.96 1809.33 1433.24 Q1810.8 1433.52 1812.38 1434.09 Z" fill="#000000" fill-rule="nonzero" fill-opacity="1" /><path clip-path="url(#clip640)" d="M1074.73 1538.54 L1080.93 1538.54 L1092.07 1568.46 L1103.21 1538.54 L1109.42 1538.54 L1096.05 1574.19 L1088.09 1574.19 L1074.73 1538.54 Z" fill="#000000" fill-rule="nonzero" fill-opacity="1" /><path clip-path="url(#clip640)" d="M1148 1554.9 L1148 1557.76 L1121.07 1557.76 Q1121.45 1563.81 1124.7 1566.99 Q1127.98 1570.14 1133.8 1570.14 Q1137.17 1570.14 1140.33 1569.32 Q1143.51 1568.49 1146.63 1566.83 L1146.63 1572.37 Q1143.48 1573.71 1140.17 1574.41 Q1136.86 1575.11 1133.45 1575.11 Q1124.92 1575.11 1119.92 1570.14 Q1114.96 1565.18 1114.96 1556.71 Q1114.96 1547.96 1119.67 1542.83 Q1124.41 1537.68 1132.43 1537.68 Q1139.62 1537.68 1143.79 1542.33 Q1148 1546.94 1148 1554.9 M1142.14 1553.18 Q1142.08 1548.37 1139.43 1545.51 Q1136.82 1542.64 1132.5 1542.64 Q1127.59 1542.64 1124.63 1545.41 Q1121.71 1548.18 1121.26 1553.21 L1142.14 1553.18 Z" fill="#000000" fill-rule="nonzero" fill-opacity="1" /><path clip-path="url(#clip640)" d="M1183.26 1539.91 L1183.26 1545.38 Q1180.78 1544.01 1178.26 1543.34 Q1175.78 1542.64 1173.24 1542.64 Q1167.54 1542.64 1164.39 1546.27 Q1161.24 1549.87 1161.24 1556.39 Q1161.24 1562.92 1164.39 1566.55 Q1167.54 1570.14 1173.24 1570.14 Q1175.78 1570.14 1178.26 1569.47 Q1180.78 1568.77 1183.26 1567.41 L1183.26 1572.82 Q1180.81 1573.96 1178.17 1574.54 Q1175.56 1575.11 1172.6 1575.11 Q1164.55 1575.11 1159.8 1570.05 Q1155.06 1564.99 1155.06 1556.39 Q1155.06 1547.67 1159.84 1542.68 Q1164.64 1537.68 1172.98 1537.68 Q1175.69 1537.68 1178.26 1538.25 Q1180.84 1538.79 1183.26 1539.91 Z" fill="#000000" fill-rule="nonzero" fill-opacity="1" /><path clip-path="url(#clip640)" d="M1199.24 1528.42 L1199.24 1538.54 L1211.3 1538.54 L1211.3 1543.09 L1199.24 1543.09 L1199.24 1562.44 Q1199.24 1566.8 1200.42 1568.04 Q1201.63 1569.28 1205.29 1569.28 L1211.3 1569.28 L1211.3 1574.19 L1205.29 1574.19 Q1198.51 1574.19 1195.93 1571.67 Q1193.35 1569.12 1193.35 1562.44 L1193.35 1543.09 L1189.05 1543.09 L1189.05 1538.54 L1193.35 1538.54 L1193.35 1528.42 L1199.24 1528.42 Z" fill="#000000" fill-rule="nonzero" fill-opacity="1" /><path clip-path="url(#clip640)" d="M1232.82 1542.64 Q1228.11 1542.64 1225.37 1546.34 Q1222.63 1550 1222.63 1556.39 Q1222.63 1562.79 1225.34 1566.48 Q1228.08 1570.14 1232.82 1570.14 Q1237.5 1570.14 1240.23 1566.45 Q1242.97 1562.76 1242.97 1556.39 Q1242.97 1550.06 1240.23 1546.37 Q1237.5 1542.64 1232.82 1542.64 M1232.82 1537.68 Q1240.46 1537.68 1244.82 1542.64 Q1249.18 1547.61 1249.18 1556.39 Q1249.18 1565.15 1244.82 1570.14 Q1240.46 1575.11 1232.82 1575.11 Q1225.15 1575.11 1220.79 1570.14 Q1216.46 1565.15 1216.46 1556.39 Q1216.46 1547.61 1220.79 1542.64 Q1225.15 1537.68 1232.82 1537.68 Z" fill="#000000" fill-rule="nonzero" fill-opacity="1" /><path clip-path="url(#clip640)" d="M1279.54 1544.01 Q1278.56 1543.44 1277.38 1543.18 Q1276.23 1542.9 1274.83 1542.9 Q1269.87 1542.9 1267.19 1546.14 Q1264.55 1549.36 1264.55 1555.41 L1264.55 1574.19 L1258.66 1574.19 L1258.66 1538.54 L1264.55 1538.54 L1264.55 1544.08 Q1266.4 1540.83 1269.36 1539.27 Q1272.32 1537.68 1276.55 1537.68 Q1277.16 1537.68 1277.89 1537.77 Q1278.62 1537.84 1279.51 1538 L1279.54 1544.01 Z" fill="#000000" fill-rule="nonzero" fill-opacity="1" /><path clip-path="url(#clip640)" d="M1329.13 1539.59 L1329.13 1545.13 Q1326.65 1543.85 1323.98 1543.22 Q1321.3 1542.58 1318.44 1542.58 Q1314.08 1542.58 1311.88 1543.92 Q1309.72 1545.25 1309.72 1547.93 Q1309.72 1549.96 1311.28 1551.14 Q1312.84 1552.29 1317.55 1553.34 L1319.55 1553.78 Q1325.79 1555.12 1328.4 1557.57 Q1331.04 1559.99 1331.04 1564.35 Q1331.04 1569.32 1327.1 1572.21 Q1323.18 1575.11 1316.31 1575.11 Q1313.44 1575.11 1310.32 1574.54 Q1307.23 1573.99 1303.8 1572.88 L1303.8 1566.83 Q1307.04 1568.52 1310.19 1569.38 Q1313.35 1570.21 1316.43 1570.21 Q1320.57 1570.21 1322.8 1568.81 Q1325.03 1567.37 1325.03 1564.8 Q1325.03 1562.41 1323.4 1561.14 Q1321.81 1559.86 1316.37 1558.68 L1314.33 1558.21 Q1308.89 1557.06 1306.47 1554.71 Q1304.05 1552.32 1304.05 1548.18 Q1304.05 1543.15 1307.62 1540.42 Q1311.18 1537.68 1317.74 1537.68 Q1320.98 1537.68 1323.85 1538.16 Q1326.71 1538.63 1329.13 1539.59 Z" fill="#000000" fill-rule="nonzero" fill-opacity="1" /><path clip-path="url(#clip640)" d="M1340.37 1538.54 L1346.22 1538.54 L1346.22 1574.19 L1340.37 1574.19 L1340.37 1538.54 M1340.37 1524.66 L1346.22 1524.66 L1346.22 1532.08 L1340.37 1532.08 L1340.37 1524.66 Z" fill="#000000" fill-rule="nonzero" fill-opacity="1" /><path clip-path="url(#clip640)" d="M1355.93 1538.54 L1383.75 1538.54 L1383.75 1543.88 L1361.72 1569.51 L1383.75 1569.51 L1383.75 1574.19 L1355.14 1574.19 L1355.14 1568.84 L1377.16 1543.22 L1355.93 1543.22 L1355.93 1538.54 Z" fill="#000000" fill-rule="nonzero" fill-opacity="1" /><path clip-path="url(#clip640)" d="M1423.19 1554.9 L1423.19 1557.76 L1396.26 1557.76 Q1396.64 1563.81 1399.89 1566.99 Q1403.17 1570.14 1408.99 1570.14 Q1412.36 1570.14 1415.51 1569.32 Q1418.7 1568.49 1421.82 1566.83 L1421.82 1572.37 Q1418.67 1573.71 1415.36 1574.41 Q1412.05 1575.11 1408.64 1575.11 Q1400.11 1575.11 1395.11 1570.14 Q1390.15 1565.18 1390.15 1556.71 Q1390.15 1547.96 1394.86 1542.83 Q1399.6 1537.68 1407.62 1537.68 Q1414.81 1537.68 1418.98 1542.33 Q1423.19 1546.94 1423.19 1554.9 M1417.33 1553.18 Q1417.27 1548.37 1414.62 1545.51 Q1412.01 1542.64 1407.68 1542.64 Q1402.78 1542.64 1399.82 1545.41 Q1396.89 1548.18 1396.45 1553.21 L1417.33 1553.18 Z" fill="#000000" fill-rule="nonzero" fill-opacity="1" /><path clip-path="url(#clip640)" d="M1483.15 1552.67 L1483.15 1574.19 L1477.29 1574.19 L1477.29 1552.86 Q1477.29 1547.8 1475.32 1545.29 Q1473.35 1542.77 1469.4 1542.77 Q1464.66 1542.77 1461.92 1545.79 Q1459.18 1548.82 1459.18 1554.04 L1459.18 1574.19 L1453.3 1574.19 L1453.3 1538.54 L1459.18 1538.54 L1459.18 1544.08 Q1461.28 1540.86 1464.12 1539.27 Q1466.98 1537.68 1470.71 1537.68 Q1476.85 1537.68 1480 1541.5 Q1483.15 1545.29 1483.15 1552.67 Z" fill="#000000" fill-rule="nonzero" fill-opacity="1" /><polyline clip-path="url(#clip642)" style="stroke:#000000; stroke-linecap:round; stroke-linejoin:round; stroke-width:2; stroke-opacity:0.1; fill:none" points="205.121,1298.63 2352.76,1298.63 "/>
<polyline clip-path="url(#clip642)" style="stroke:#000000; stroke-linecap:round; stroke-linejoin:round; stroke-width:2; stroke-opacity:0.1; fill:none" points="205.121,1069.32 2352.76,1069.32 "/>
<polyline clip-path="url(#clip642)" style="stroke:#000000; stroke-linecap:round; stroke-linejoin:round; stroke-width:2; stroke-opacity:0.1; fill:none" points="205.121,840.014 2352.76,840.014 "/>
<polyline clip-path="url(#clip642)" style="stroke:#000000; stroke-linecap:round; stroke-linejoin:round; stroke-width:2; stroke-opacity:0.1; fill:none" points="205.121,610.705 2352.76,610.705 "/>
<polyline clip-path="url(#clip642)" style="stroke:#000000; stroke-linecap:round; stroke-linejoin:round; stroke-width:2; stroke-opacity:0.1; fill:none" points="205.121,381.396 2352.76,381.396 "/>
<polyline clip-path="url(#clip642)" style="stroke:#000000; stroke-linecap:round; stroke-linejoin:round; stroke-width:2; stroke-opacity:0.1; fill:none" points="205.121,152.087 2352.76,152.087 "/>
<polyline clip-path="url(#clip640)" style="stroke:#000000; stroke-linecap:round; stroke-linejoin:round; stroke-width:4; stroke-opacity:1; fill:none" points="205.121,1410.9 205.121,47.2441 "/>
<polyline clip-path="url(#clip640)" style="stroke:#000000; stroke-linecap:round; stroke-linejoin:round; stroke-width:4; stroke-opacity:1; fill:none" points="2352.76,1410.9 2352.76,47.2441 "/>
<polyline clip-path="url(#clip640)" style="stroke:#000000; stroke-linecap:round; stroke-linejoin:round; stroke-width:4; stroke-opacity:1; fill:none" points="205.121,1298.63 224.019,1298.63 "/>
<polyline clip-path="url(#clip640)" style="stroke:#000000; stroke-linecap:round; stroke-linejoin:round; stroke-width:4; stroke-opacity:1; fill:none" points="205.121,1069.32 224.019,1069.32 "/>
<polyline clip-path="url(#clip640)" style="stroke:#000000; stroke-linecap:round; stroke-linejoin:round; stroke-width:4; stroke-opacity:1; fill:none" points="205.121,840.014 224.019,840.014 "/>
<polyline clip-path="url(#clip640)" style="stroke:#000000; stroke-linecap:round; stroke-linejoin:round; stroke-width:4; stroke-opacity:1; fill:none" points="205.121,610.705 224.019,610.705 "/>
<polyline clip-path="url(#clip640)" style="stroke:#000000; stroke-linecap:round; stroke-linejoin:round; stroke-width:4; stroke-opacity:1; fill:none" points="205.121,381.396 224.019,381.396 "/>
<polyline clip-path="url(#clip640)" style="stroke:#000000; stroke-linecap:round; stroke-linejoin:round; stroke-width:4; stroke-opacity:1; fill:none" points="205.121,152.087 224.019,152.087 "/>
<path clip-path="url(#clip640)" d="M121.043 1311.98 L137.362 1311.98 L137.362 1315.91 L115.418 1315.91 L115.418 1311.98 Q118.08 1309.22 122.663 1304.59 Q127.269 1299.94 128.45 1298.6 Q130.695 1296.08 131.575 1294.34 Q132.478 1292.58 132.478 1290.89 Q132.478 1288.14 130.533 1286.4 Q128.612 1284.66 125.51 1284.66 Q123.311 1284.66 120.857 1285.43 Q118.427 1286.19 115.649 1287.74 L115.649 1283.02 Q118.473 1281.89 120.927 1281.31 Q123.38 1280.73 125.418 1280.73 Q130.788 1280.73 133.982 1283.41 Q137.177 1286.1 137.177 1290.59 Q137.177 1292.72 136.367 1294.64 Q135.579 1296.54 133.473 1299.13 Q132.894 1299.8 129.792 1303.02 Q126.691 1306.21 121.043 1311.98 Z" fill="#000000" fill-rule="nonzero" fill-opacity="1" /><path clip-path="url(#clip640)" d="M157.177 1284.43 Q153.566 1284.43 151.737 1288 Q149.931 1291.54 149.931 1298.67 Q149.931 1305.77 151.737 1309.34 Q153.566 1312.88 157.177 1312.88 Q160.811 1312.88 162.616 1309.34 Q164.445 1305.77 164.445 1298.67 Q164.445 1291.54 162.616 1288 Q160.811 1284.43 157.177 1284.43 M157.177 1280.73 Q162.987 1280.73 166.042 1285.33 Q169.121 1289.92 169.121 1298.67 Q169.121 1307.39 166.042 1312 Q162.987 1316.58 157.177 1316.58 Q151.366 1316.58 148.288 1312 Q145.232 1307.39 145.232 1298.67 Q145.232 1289.92 148.288 1285.33 Q151.366 1280.73 157.177 1280.73 Z" fill="#000000" fill-rule="nonzero" fill-opacity="1" /><path clip-path="url(#clip640)" d="M131.181 1067.97 Q134.538 1068.69 136.413 1070.96 Q138.311 1073.22 138.311 1076.56 Q138.311 1081.67 134.792 1084.47 Q131.274 1087.28 124.793 1087.28 Q122.617 1087.28 120.302 1086.84 Q118.01 1086.42 115.556 1085.56 L115.556 1081.05 Q117.501 1082.18 119.816 1082.76 Q122.13 1083.34 124.654 1083.34 Q129.052 1083.34 131.343 1081.6 Q133.658 1079.87 133.658 1076.56 Q133.658 1073.5 131.505 1071.79 Q129.376 1070.05 125.556 1070.05 L121.529 1070.05 L121.529 1066.21 L125.742 1066.21 Q129.191 1066.21 131.019 1064.84 Q132.848 1063.46 132.848 1060.86 Q132.848 1058.2 130.95 1056.79 Q129.075 1055.35 125.556 1055.35 Q123.635 1055.35 121.436 1055.77 Q119.237 1056.19 116.598 1057.07 L116.598 1052.9 Q119.26 1052.16 121.575 1051.79 Q123.913 1051.42 125.973 1051.42 Q131.297 1051.42 134.399 1053.85 Q137.501 1056.26 137.501 1060.38 Q137.501 1063.25 135.857 1065.24 Q134.214 1067.21 131.181 1067.97 Z" fill="#000000" fill-rule="nonzero" fill-opacity="1" /><path clip-path="url(#clip640)" d="M157.177 1055.12 Q153.566 1055.12 151.737 1058.69 Q149.931 1062.23 149.931 1069.36 Q149.931 1076.46 151.737 1080.03 Q153.566 1083.57 157.177 1083.57 Q160.811 1083.57 162.616 1080.03 Q164.445 1076.46 164.445 1069.36 Q164.445 1062.23 162.616 1058.69 Q160.811 1055.12 157.177 1055.12 M157.177 1051.42 Q162.987 1051.42 166.042 1056.03 Q169.121 1060.61 169.121 1069.36 Q169.121 1078.09 166.042 1082.69 Q162.987 1087.28 157.177 1087.28 Q151.366 1087.28 148.288 1082.69 Q145.232 1078.09 145.232 1069.36 Q145.232 1060.61 148.288 1056.03 Q151.366 1051.42 157.177 1051.42 Z" fill="#000000" fill-rule="nonzero" fill-opacity="1" /><path clip-path="url(#clip640)" d="M129.862 826.808 L118.056 845.257 L129.862 845.257 L129.862 826.808 M128.635 822.734 L134.515 822.734 L134.515 845.257 L139.445 845.257 L139.445 849.146 L134.515 849.146 L134.515 857.294 L129.862 857.294 L129.862 849.146 L114.26 849.146 L114.26 844.632 L128.635 822.734 Z" fill="#000000" fill-rule="nonzero" fill-opacity="1" /><path clip-path="url(#clip640)" d="M157.177 825.813 Q153.566 825.813 151.737 829.378 Q149.931 832.92 149.931 840.049 Q149.931 847.156 151.737 850.72 Q153.566 854.262 157.177 854.262 Q160.811 854.262 162.616 850.72 Q164.445 847.156 164.445 840.049 Q164.445 832.92 162.616 829.378 Q160.811 825.813 157.177 825.813 M157.177 822.109 Q162.987 822.109 166.042 826.716 Q169.121 831.299 169.121 840.049 Q169.121 848.776 166.042 853.382 Q162.987 857.966 157.177 857.966 Q151.366 857.966 148.288 853.382 Q145.232 848.776 145.232 840.049 Q145.232 831.299 148.288 826.716 Q151.366 822.109 157.177 822.109 Z" fill="#000000" fill-rule="nonzero" fill-opacity="1" /><path clip-path="url(#clip640)" d="M117.061 593.425 L135.417 593.425 L135.417 597.36 L121.343 597.36 L121.343 605.832 Q122.362 605.485 123.38 605.323 Q124.399 605.138 125.418 605.138 Q131.205 605.138 134.584 608.309 Q137.964 611.481 137.964 616.897 Q137.964 622.476 134.492 625.578 Q131.019 628.656 124.7 628.656 Q122.524 628.656 120.255 628.286 Q118.01 627.916 115.603 627.175 L115.603 622.476 Q117.686 623.61 119.908 624.166 Q122.13 624.721 124.607 624.721 Q128.612 624.721 130.95 622.615 Q133.288 620.508 133.288 616.897 Q133.288 613.286 130.95 611.18 Q128.612 609.073 124.607 609.073 Q122.732 609.073 120.857 609.49 Q119.006 609.907 117.061 610.786 L117.061 593.425 Z" fill="#000000" fill-rule="nonzero" fill-opacity="1" /><path clip-path="url(#clip640)" d="M157.177 596.504 Q153.566 596.504 151.737 600.069 Q149.931 603.61 149.931 610.74 Q149.931 617.846 151.737 621.411 Q153.566 624.953 157.177 624.953 Q160.811 624.953 162.616 621.411 Q164.445 617.846 164.445 610.74 Q164.445 603.61 162.616 600.069 Q160.811 596.504 157.177 596.504 M157.177 592.8 Q162.987 592.8 166.042 597.407 Q169.121 601.99 169.121 610.74 Q169.121 619.467 166.042 624.073 Q162.987 628.656 157.177 628.656 Q151.366 628.656 148.288 624.073 Q145.232 619.467 145.232 610.74 Q145.232 601.99 148.288 597.407 Q151.366 592.8 157.177 592.8 Z" fill="#000000" fill-rule="nonzero" fill-opacity="1" /><path clip-path="url(#clip640)" d="M127.593 379.532 Q124.445 379.532 122.593 381.685 Q120.765 383.838 120.765 387.588 Q120.765 391.315 122.593 393.491 Q124.445 395.643 127.593 395.643 Q130.742 395.643 132.57 393.491 Q134.422 391.315 134.422 387.588 Q134.422 383.838 132.57 381.685 Q130.742 379.532 127.593 379.532 M136.876 364.88 L136.876 369.139 Q135.117 368.306 133.311 367.866 Q131.529 367.426 129.769 367.426 Q125.14 367.426 122.686 370.551 Q120.255 373.676 119.908 379.995 Q121.274 377.981 123.334 376.917 Q125.394 375.829 127.871 375.829 Q133.08 375.829 136.089 379 Q139.121 382.148 139.121 387.588 Q139.121 392.912 135.973 396.13 Q132.825 399.347 127.593 399.347 Q121.598 399.347 118.427 394.764 Q115.256 390.157 115.256 381.431 Q115.256 373.236 119.144 368.375 Q123.033 363.491 129.584 363.491 Q131.343 363.491 133.126 363.838 Q134.931 364.185 136.876 364.88 Z" fill="#000000" fill-rule="nonzero" fill-opacity="1" /><path clip-path="url(#clip640)" d="M157.177 367.194 Q153.566 367.194 151.737 370.759 Q149.931 374.301 149.931 381.431 Q149.931 388.537 151.737 392.102 Q153.566 395.643 157.177 395.643 Q160.811 395.643 162.616 392.102 Q164.445 388.537 164.445 381.431 Q164.445 374.301 162.616 370.759 Q160.811 367.194 157.177 367.194 M157.177 363.491 Q162.987 363.491 166.042 368.097 Q169.121 372.681 169.121 381.431 Q169.121 390.157 166.042 394.764 Q162.987 399.347 157.177 399.347 Q151.366 399.347 148.288 394.764 Q145.232 390.157 145.232 381.431 Q145.232 372.681 148.288 368.097 Q151.366 363.491 157.177 363.491 Z" fill="#000000" fill-rule="nonzero" fill-opacity="1" /><path clip-path="url(#clip640)" d="M115.834 134.807 L138.056 134.807 L138.056 136.797 L125.51 169.367 L120.626 169.367 L132.431 138.742 L115.834 138.742 L115.834 134.807 Z" fill="#000000" fill-rule="nonzero" fill-opacity="1" /><path clip-path="url(#clip640)" d="M157.177 137.885 Q153.566 137.885 151.737 141.45 Q149.931 144.992 149.931 152.121 Q149.931 159.228 151.737 162.792 Q153.566 166.334 157.177 166.334 Q160.811 166.334 162.616 162.792 Q164.445 159.228 164.445 152.121 Q164.445 144.992 162.616 141.45 Q160.811 137.885 157.177 137.885 M157.177 134.182 Q162.987 134.182 166.042 138.788 Q169.121 143.371 169.121 152.121 Q169.121 160.848 166.042 165.454 Q162.987 170.038 157.177 170.038 Q151.366 170.038 148.288 165.454 Q145.232 160.848 145.232 152.121 Q145.232 143.371 148.288 138.788 Q151.366 134.182 157.177 134.182 Z" fill="#000000" fill-rule="nonzero" fill-opacity="1" /><path clip-path="url(#clip640)" d="M46.212 980.707 Q39.7508 980.707 36.0905 983.38 Q32.3984 986.022 32.3984 990.669 Q32.3984 995.316 36.0905 997.99 Q39.7508 1000.63 46.212 1000.63 Q52.6732 1000.63 56.3653 997.99 Q60.0256 995.316 60.0256 990.669 Q60.0256 986.022 56.3653 983.38 Q52.6732 980.707 46.212 980.707 M33.7671 1000.63 Q30.5842 998.785 29.0564 995.984 Q27.4968 993.152 27.4968 989.237 Q27.4968 982.744 32.6531 978.702 Q37.8093 974.628 46.212 974.628 Q54.6147 974.628 59.771 978.702 Q64.9272 982.744 64.9272 989.237 Q64.9272 993.152 63.3994 995.984 Q61.8398 998.785 58.657 1000.63 L64.0042 1000.63 L64.0042 1006.52 L14.479 1006.52 L14.479 1000.63 L33.7671 1000.63 Z" fill="#000000" fill-rule="nonzero" fill-opacity="1" /><path clip-path="url(#clip640)" d="M46.0847 948.719 Q46.0847 955.817 47.7079 958.554 Q49.3312 961.291 53.2461 961.291 Q56.3653 961.291 58.2114 959.254 Q60.0256 957.185 60.0256 953.652 Q60.0256 948.783 56.5881 945.855 Q53.1188 942.894 47.3897 942.894 L46.0847 942.894 L46.0847 948.719 M43.6657 937.038 L64.0042 937.038 L64.0042 942.894 L58.5933 942.894 Q61.8398 944.9 63.3994 947.892 Q64.9272 950.883 64.9272 955.212 Q64.9272 960.687 61.8716 963.933 Q58.7843 967.148 53.6281 967.148 Q47.6125 967.148 44.5569 963.137 Q41.5014 959.095 41.5014 951.106 L41.5014 942.894 L40.9285 942.894 Q36.8862 942.894 34.6901 945.568 Q32.4621 948.21 32.4621 953.016 Q32.4621 956.071 33.1941 958.968 Q33.9262 961.864 35.3903 964.538 L29.9795 964.538 Q28.7381 961.323 28.1334 958.299 Q27.4968 955.276 27.4968 952.411 Q27.4968 944.677 31.5072 940.857 Q35.5176 937.038 43.6657 937.038 Z" fill="#000000" fill-rule="nonzero" fill-opacity="1" /><path clip-path="url(#clip640)" d="M42.4881 895.343 L64.0042 895.343 L64.0042 901.199 L42.679 901.199 Q37.6183 901.199 35.1038 903.172 Q32.5894 905.146 32.5894 909.093 Q32.5894 913.835 35.6131 916.572 Q38.6368 919.31 43.8567 919.31 L64.0042 919.31 L64.0042 925.198 L28.3562 925.198 L28.3562 919.31 L33.8944 919.31 Q30.6797 917.209 29.0883 914.376 Q27.4968 911.512 27.4968 907.788 Q27.4968 901.645 31.3163 898.494 Q35.1038 895.343 42.4881 895.343 Z" fill="#000000" fill-rule="nonzero" fill-opacity="1" /><path clip-path="url(#clip640)" d="M33.7671 860.204 L14.479 860.204 L14.479 854.347 L64.0042 854.347 L64.0042 860.204 L58.657 860.204 Q61.8398 862.05 63.3994 864.883 Q64.9272 867.684 64.9272 871.63 Q64.9272 878.092 59.771 882.166 Q54.6147 886.208 46.212 886.208 Q37.8093 886.208 32.6531 882.166 Q27.4968 878.092 27.4968 871.63 Q27.4968 867.684 29.0564 864.883 Q30.5842 862.05 33.7671 860.204 M46.212 880.16 Q52.6732 880.16 56.3653 877.519 Q60.0256 874.845 60.0256 870.198 Q60.0256 865.551 56.3653 862.878 Q52.6732 860.204 46.212 860.204 Q39.7508 860.204 36.0905 862.878 Q32.3984 865.551 32.3984 870.198 Q32.3984 874.845 36.0905 877.519 Q39.7508 880.16 46.212 880.16 Z" fill="#000000" fill-rule="nonzero" fill-opacity="1" /><path clip-path="url(#clip640)" d="M28.3562 845.69 L28.3562 839.834 L56.1743 832.513 L28.3562 825.224 L28.3562 818.318 L56.1743 810.997 L28.3562 803.708 L28.3562 797.852 L64.0042 807.178 L64.0042 814.084 L34.7856 821.755 L64.0042 829.458 L64.0042 836.364 L28.3562 845.69 Z" fill="#000000" fill-rule="nonzero" fill-opacity="1" /><path clip-path="url(#clip640)" d="M28.3562 788.972 L28.3562 783.115 L64.0042 783.115 L64.0042 788.972 L28.3562 788.972 M14.479 788.972 L14.479 783.115 L21.895 783.115 L21.895 788.972 L14.479 788.972 Z" fill="#000000" fill-rule="nonzero" fill-opacity="1" /><path clip-path="url(#clip640)" d="M33.7671 747.404 L14.479 747.404 L14.479 741.547 L64.0042 741.547 L64.0042 747.404 L58.657 747.404 Q61.8398 749.25 63.3994 752.082 Q64.9272 754.883 64.9272 758.83 Q64.9272 765.291 59.771 769.365 Q54.6147 773.408 46.212 773.408 Q37.8093 773.408 32.6531 769.365 Q27.4968 765.291 27.4968 758.83 Q27.4968 754.883 29.0564 752.082 Q30.5842 749.25 33.7671 747.404 M46.212 767.36 Q52.6732 767.36 56.3653 764.718 Q60.0256 762.045 60.0256 757.398 Q60.0256 752.751 56.3653 750.077 Q52.6732 747.404 46.212 747.404 Q39.7508 747.404 36.0905 750.077 Q32.3984 752.751 32.3984 757.398 Q32.3984 762.045 36.0905 764.718 Q39.7508 767.36 46.212 767.36 Z" fill="#000000" fill-rule="nonzero" fill-opacity="1" /><path clip-path="url(#clip640)" d="M18.2347 723.691 L28.3562 723.691 L28.3562 711.628 L32.9077 711.628 L32.9077 723.691 L52.2594 723.691 Q56.6199 723.691 57.8613 722.514 Q59.1026 721.304 59.1026 717.644 L59.1026 711.628 L64.0042 711.628 L64.0042 717.644 Q64.0042 724.423 61.4897 727.002 Q58.9434 729.58 52.2594 729.58 L32.9077 729.58 L32.9077 733.876 L28.3562 733.876 L28.3562 729.58 L18.2347 729.58 L18.2347 723.691 Z" fill="#000000" fill-rule="nonzero" fill-opacity="1" /><path clip-path="url(#clip640)" d="M42.4881 674.293 L64.0042 674.293 L64.0042 680.15 L42.679 680.15 Q37.6183 680.15 35.1038 682.123 Q32.5894 684.097 32.5894 688.043 Q32.5894 692.786 35.6131 695.523 Q38.6368 698.26 43.8567 698.26 L64.0042 698.26 L64.0042 704.149 L14.479 704.149 L14.479 698.26 L33.8944 698.26 Q30.6797 696.16 29.0883 693.327 Q27.4968 690.462 27.4968 686.738 Q27.4968 680.596 31.3163 677.444 Q35.1038 674.293 42.4881 674.293 Z" fill="#000000" fill-rule="nonzero" fill-opacity="1" /><path clip-path="url(#clip640)" d="M14.479 642.433 L14.479 628.938 L19.0304 628.938 L19.0304 636.577 L68.0464 636.577 L68.0464 628.938 L72.5979 628.938 L72.5979 642.433 L14.479 642.433 Z" fill="#000000" fill-rule="nonzero" fill-opacity="1" /><path clip-path="url(#clip640)" d="M57.2247 583.805 L44.4614 583.805 L44.4614 594.308 L39.1779 594.308 L39.1779 577.439 L59.58 577.439 Q62.2218 581.163 63.5904 585.651 Q64.9272 590.139 64.9272 595.231 Q64.9272 606.371 58.4342 612.673 Q51.9093 618.944 40.2919 618.944 Q28.6427 618.944 22.1496 612.673 Q15.6248 606.371 15.6248 595.231 Q15.6248 590.584 16.7706 586.415 Q17.9164 582.214 20.1444 578.681 L26.9876 578.681 Q23.9639 582.245 22.4361 586.256 Q20.9083 590.266 20.9083 594.69 Q20.9083 603.411 25.7781 607.804 Q30.6479 612.164 40.2919 612.164 Q49.9041 612.164 54.7739 607.804 Q59.6436 603.411 59.6436 594.69 Q59.6436 591.285 59.0707 588.611 Q58.466 585.937 57.2247 583.805 Z" fill="#000000" fill-rule="nonzero" fill-opacity="1" /><path clip-path="url(#clip640)" d="M41.3104 559.265 L58.7206 559.265 L58.7206 548.953 Q58.7206 543.765 56.5881 541.282 Q54.4238 538.768 49.9996 538.768 Q45.5436 538.768 43.4429 541.282 Q41.3104 543.765 41.3104 548.953 L41.3104 559.265 M21.7677 559.265 L36.0905 559.265 L36.0905 549.748 Q36.0905 545.038 34.34 542.746 Q32.5576 540.423 28.9291 540.423 Q25.3325 540.423 23.5501 542.746 Q21.7677 545.038 21.7677 549.748 L21.7677 559.265 M16.4842 565.695 L16.4842 549.271 Q16.4842 541.919 19.5397 537.94 Q22.5952 533.961 28.2289 533.961 Q32.5894 533.961 35.1675 535.998 Q37.7456 538.036 38.3822 541.982 Q39.4007 537.24 42.6472 534.63 Q45.8619 531.988 50.6998 531.988 Q57.0655 531.988 60.5348 536.317 Q64.0042 540.645 64.0042 548.634 L64.0042 565.695 L16.4842 565.695 Z" fill="#000000" fill-rule="nonzero" fill-opacity="1" /><path clip-path="url(#clip640)" d="M16.4842 510.822 L16.4842 505.411 L70.0516 521.962 L70.0516 527.373 L16.4842 510.822 Z" fill="#000000" fill-rule="nonzero" fill-opacity="1" /><path clip-path="url(#clip640)" d="M29.4065 476.543 L34.9447 476.543 Q33.6716 479.025 33.035 481.699 Q32.3984 484.373 32.3984 487.237 Q32.3984 491.598 33.7352 493.794 Q35.072 495.958 37.7456 495.958 Q39.7826 495.958 40.9603 494.399 Q42.1061 492.839 43.1565 488.128 L43.6021 486.123 Q44.9389 479.885 47.3897 477.275 Q49.8086 474.633 54.1691 474.633 Q59.1344 474.633 62.0308 478.58 Q64.9272 482.495 64.9272 489.37 Q64.9272 492.234 64.3543 495.353 Q63.8132 498.441 62.6992 501.878 L56.6518 501.878 Q58.3387 498.632 59.198 495.481 Q60.0256 492.33 60.0256 489.242 Q60.0256 485.105 58.6251 482.877 Q57.1929 480.649 54.6147 480.649 Q52.2276 480.649 50.9545 482.272 Q49.6813 483.863 48.5037 489.306 L48.0262 491.343 Q46.8804 496.786 44.5251 499.205 Q42.138 501.624 38.0002 501.624 Q32.9713 501.624 30.2341 498.059 Q27.4968 494.494 27.4968 487.937 Q27.4968 484.691 27.9743 481.826 Q28.4517 478.962 29.4065 476.543 Z" fill="#000000" fill-rule="nonzero" fill-opacity="1" /><path clip-path="url(#clip640)" d="M14.479 451.621 L72.5979 451.621 L72.5979 465.116 L68.0464 465.116 L68.0464 457.509 L19.0304 457.509 L19.0304 465.116 L14.479 465.116 L14.479 451.621 Z" fill="#000000" fill-rule="nonzero" fill-opacity="1" /><polyline clip-path="url(#clip642)" style="stroke:#009af9; stroke-linecap:round; stroke-linejoin:round; stroke-width:4; stroke-opacity:1; fill:none" points="265.903,633.296 367.207,645.121 426.465,279.047 468.51,535.657 527.769,163.369 587.028,529.837 629.072,159.333 679.978,473.129 724.156,85.838 772.421,440.579 831.68,209.228 869.084,431.012 906.337,289.105 944.681,421.671 983.888,274.982 1023.22,412.445 1061.94,275.825 1100.48,407.965 1138.6,270.919 1177.63,409.472 1236.89,298.925 1297.67,424.073 1358.76,333.705 1419.55,418.573 1480.69,358.837 1541.56,419.252 1602.58,329.769 1663.53,425.558 1724.49,368.702 1785.46,606.354 1844.71,902.925 1908.61,1143.48 1972.5,1207.27 2036.4,1280.59 2100.29,1296.35 2164.19,1318.47 2228.08,1326.04 2291.97,1372.3 "/>
<circle clip-path="url(#clip642)" cx="265.903" cy="633.296" r="7.2" fill="#009af9" fill-rule="evenodd" fill-opacity="1" stroke="#000000" stroke-opacity="1" stroke-width="3.2"/>
<circle clip-path="url(#clip642)" cx="367.207" cy="645.121" r="7.2" fill="#009af9" fill-rule="evenodd" fill-opacity="1" stroke="#000000" stroke-opacity="1" stroke-width="3.2"/>
<circle clip-path="url(#clip642)" cx="426.465" cy="279.047" r="7.2" fill="#009af9" fill-rule="evenodd" fill-opacity="1" stroke="#000000" stroke-opacity="1" stroke-width="3.2"/>
<circle clip-path="url(#clip642)" cx="468.51" cy="535.657" r="7.2" fill="#009af9" fill-rule="evenodd" fill-opacity="1" stroke="#000000" stroke-opacity="1" stroke-width="3.2"/>
<circle clip-path="url(#clip642)" cx="527.769" cy="163.369" r="7.2" fill="#009af9" fill-rule="evenodd" fill-opacity="1" stroke="#000000" stroke-opacity="1" stroke-width="3.2"/>
<circle clip-path="url(#clip642)" cx="587.028" cy="529.837" r="7.2" fill="#009af9" fill-rule="evenodd" fill-opacity="1" stroke="#000000" stroke-opacity="1" stroke-width="3.2"/>
<circle clip-path="url(#clip642)" cx="629.072" cy="159.333" r="7.2" fill="#009af9" fill-rule="evenodd" fill-opacity="1" stroke="#000000" stroke-opacity="1" stroke-width="3.2"/>
<circle clip-path="url(#clip642)" cx="679.978" cy="473.129" r="7.2" fill="#009af9" fill-rule="evenodd" fill-opacity="1" stroke="#000000" stroke-opacity="1" stroke-width="3.2"/>
<circle clip-path="url(#clip642)" cx="724.156" cy="85.838" r="7.2" fill="#009af9" fill-rule="evenodd" fill-opacity="1" stroke="#000000" stroke-opacity="1" stroke-width="3.2"/>
<circle clip-path="url(#clip642)" cx="772.421" cy="440.579" r="7.2" fill="#009af9" fill-rule="evenodd" fill-opacity="1" stroke="#000000" stroke-opacity="1" stroke-width="3.2"/>
<circle clip-path="url(#clip642)" cx="831.68" cy="209.228" r="7.2" fill="#009af9" fill-rule="evenodd" fill-opacity="1" stroke="#000000" stroke-opacity="1" stroke-width="3.2"/>
<circle clip-path="url(#clip642)" cx="869.084" cy="431.012" r="7.2" fill="#009af9" fill-rule="evenodd" fill-opacity="1" stroke="#000000" stroke-opacity="1" stroke-width="3.2"/>
<circle clip-path="url(#clip642)" cx="906.337" cy="289.105" r="7.2" fill="#009af9" fill-rule="evenodd" fill-opacity="1" stroke="#000000" stroke-opacity="1" stroke-width="3.2"/>
<circle clip-path="url(#clip642)" cx="944.681" cy="421.671" r="7.2" fill="#009af9" fill-rule="evenodd" fill-opacity="1" stroke="#000000" stroke-opacity="1" stroke-width="3.2"/>
<circle clip-path="url(#clip642)" cx="983.888" cy="274.982" r="7.2" fill="#009af9" fill-rule="evenodd" fill-opacity="1" stroke="#000000" stroke-opacity="1" stroke-width="3.2"/>
<circle clip-path="url(#clip642)" cx="1023.22" cy="412.445" r="7.2" fill="#009af9" fill-rule="evenodd" fill-opacity="1" stroke="#000000" stroke-opacity="1" stroke-width="3.2"/>
<circle clip-path="url(#clip642)" cx="1061.94" cy="275.825" r="7.2" fill="#009af9" fill-rule="evenodd" fill-opacity="1" stroke="#000000" stroke-opacity="1" stroke-width="3.2"/>
<circle clip-path="url(#clip642)" cx="1100.48" cy="407.965" r="7.2" fill="#009af9" fill-rule="evenodd" fill-opacity="1" stroke="#000000" stroke-opacity="1" stroke-width="3.2"/>
<circle clip-path="url(#clip642)" cx="1138.6" cy="270.919" r="7.2" fill="#009af9" fill-rule="evenodd" fill-opacity="1" stroke="#000000" stroke-opacity="1" stroke-width="3.2"/>
<circle clip-path="url(#clip642)" cx="1177.63" cy="409.472" r="7.2" fill="#009af9" fill-rule="evenodd" fill-opacity="1" stroke="#000000" stroke-opacity="1" stroke-width="3.2"/>
<circle clip-path="url(#clip642)" cx="1236.89" cy="298.925" r="7.2" fill="#009af9" fill-rule="evenodd" fill-opacity="1" stroke="#000000" stroke-opacity="1" stroke-width="3.2"/>
<circle clip-path="url(#clip642)" cx="1297.67" cy="424.073" r="7.2" fill="#009af9" fill-rule="evenodd" fill-opacity="1" stroke="#000000" stroke-opacity="1" stroke-width="3.2"/>
<circle clip-path="url(#clip642)" cx="1358.76" cy="333.705" r="7.2" fill="#009af9" fill-rule="evenodd" fill-opacity="1" stroke="#000000" stroke-opacity="1" stroke-width="3.2"/>
<circle clip-path="url(#clip642)" cx="1419.55" cy="418.573" r="7.2" fill="#009af9" fill-rule="evenodd" fill-opacity="1" stroke="#000000" stroke-opacity="1" stroke-width="3.2"/>
<circle clip-path="url(#clip642)" cx="1480.69" cy="358.837" r="7.2" fill="#009af9" fill-rule="evenodd" fill-opacity="1" stroke="#000000" stroke-opacity="1" stroke-width="3.2"/>
<circle clip-path="url(#clip642)" cx="1541.56" cy="419.252" r="7.2" fill="#009af9" fill-rule="evenodd" fill-opacity="1" stroke="#000000" stroke-opacity="1" stroke-width="3.2"/>
<circle clip-path="url(#clip642)" cx="1602.58" cy="329.769" r="7.2" fill="#009af9" fill-rule="evenodd" fill-opacity="1" stroke="#000000" stroke-opacity="1" stroke-width="3.2"/>
<circle clip-path="url(#clip642)" cx="1663.53" cy="425.558" r="7.2" fill="#009af9" fill-rule="evenodd" fill-opacity="1" stroke="#000000" stroke-opacity="1" stroke-width="3.2"/>
<circle clip-path="url(#clip642)" cx="1724.49" cy="368.702" r="7.2" fill="#009af9" fill-rule="evenodd" fill-opacity="1" stroke="#000000" stroke-opacity="1" stroke-width="3.2"/>
<circle clip-path="url(#clip642)" cx="1785.46" cy="606.354" r="7.2" fill="#009af9" fill-rule="evenodd" fill-opacity="1" stroke="#000000" stroke-opacity="1" stroke-width="3.2"/>
<circle clip-path="url(#clip642)" cx="1844.71" cy="902.925" r="7.2" fill="#009af9" fill-rule="evenodd" fill-opacity="1" stroke="#000000" stroke-opacity="1" stroke-width="3.2"/>
<circle clip-path="url(#clip642)" cx="1908.61" cy="1143.48" r="7.2" fill="#009af9" fill-rule="evenodd" fill-opacity="1" stroke="#000000" stroke-opacity="1" stroke-width="3.2"/>
<circle clip-path="url(#clip642)" cx="1972.5" cy="1207.27" r="7.2" fill="#009af9" fill-rule="evenodd" fill-opacity="1" stroke="#000000" stroke-opacity="1" stroke-width="3.2"/>
<circle clip-path="url(#clip642)" cx="2036.4" cy="1280.59" r="7.2" fill="#009af9" fill-rule="evenodd" fill-opacity="1" stroke="#000000" stroke-opacity="1" stroke-width="3.2"/>
<circle clip-path="url(#clip642)" cx="2100.29" cy="1296.35" r="7.2" fill="#009af9" fill-rule="evenodd" fill-opacity="1" stroke="#000000" stroke-opacity="1" stroke-width="3.2"/>
<circle clip-path="url(#clip642)" cx="2164.19" cy="1318.47" r="7.2" fill="#009af9" fill-rule="evenodd" fill-opacity="1" stroke="#000000" stroke-opacity="1" stroke-width="3.2"/>
<circle clip-path="url(#clip642)" cx="2228.08" cy="1326.04" r="7.2" fill="#009af9" fill-rule="evenodd" fill-opacity="1" stroke="#000000" stroke-opacity="1" stroke-width="3.2"/>
<circle clip-path="url(#clip642)" cx="2291.97" cy="1372.3" r="7.2" fill="#009af9" fill-rule="evenodd" fill-opacity="1" stroke="#000000" stroke-opacity="1" stroke-width="3.2"/>
<polyline clip-path="url(#clip642)" style="stroke:#ffa500; stroke-linecap:round; stroke-linejoin:round; stroke-width:8; stroke-opacity:1; fill:none" points="772.421,2774.55 772.421,-1316.41 "/>
<polyline clip-path="url(#clip642)" style="stroke:#ff0000; stroke-linecap:round; stroke-linejoin:round; stroke-width:8; stroke-opacity:1; fill:none" points="1177.63,2774.55 1177.63,-1316.41 "/>
<polyline clip-path="url(#clip642)" style="stroke:#800080; stroke-linecap:round; stroke-linejoin:round; stroke-width:8; stroke-opacity:1; fill:none" points="1785.46,2774.55 1785.46,-1316.41 "/>
<path clip-path="url(#clip640)" d="M1397.61 351.899 L2281.17 351.899 L2281.17 92.6992 L1397.61 92.6992  Z" fill="#ffffff" fill-rule="evenodd" fill-opacity="1"/>
<polyline clip-path="url(#clip640)" style="stroke:#000000; stroke-linecap:round; stroke-linejoin:round; stroke-width:4; stroke-opacity:1; fill:none" points="1397.61,351.899 2281.17,351.899 2281.17,92.6992 1397.61,92.6992 1397.61,351.899 "/>
<polyline clip-path="url(#clip640)" style="stroke:#009af9; stroke-linecap:round; stroke-linejoin:round; stroke-width:4; stroke-opacity:1; fill:none" points="1421.47,144.539 1564.65,144.539 "/>
<circle clip-path="url(#clip640)" cx="1493.06" cy="144.539" r="18.432" fill="#009af9" fill-rule="evenodd" fill-opacity="1" stroke="#000000" stroke-opacity="1" stroke-width="8.192"/>
<path clip-path="url(#clip640)" d="M1606.94 136.657 L1606.94 140.685 Q1605.13 139.759 1603.19 139.296 Q1601.24 138.833 1599.16 138.833 Q1595.99 138.833 1594.39 139.805 Q1592.82 140.778 1592.82 142.722 Q1592.82 144.204 1593.95 145.06 Q1595.09 145.893 1598.51 146.657 L1599.97 146.981 Q1604.51 147.954 1606.41 149.736 Q1608.33 151.495 1608.33 154.666 Q1608.33 158.278 1605.46 160.384 Q1602.61 162.49 1597.61 162.49 Q1595.53 162.49 1593.26 162.074 Q1591.01 161.68 1588.51 160.87 L1588.51 156.472 Q1590.87 157.699 1593.17 158.324 Q1595.46 158.926 1597.7 158.926 Q1600.71 158.926 1602.33 157.907 Q1603.95 156.866 1603.95 154.991 Q1603.95 153.254 1602.77 152.328 Q1601.61 151.403 1597.66 150.546 L1596.17 150.199 Q1592.22 149.366 1590.46 147.653 Q1588.7 145.916 1588.7 142.907 Q1588.7 139.25 1591.29 137.259 Q1593.88 135.268 1598.65 135.268 Q1601.01 135.268 1603.1 135.616 Q1605.18 135.963 1606.94 136.657 Z" fill="#000000" fill-rule="nonzero" fill-opacity="1" /><path clip-path="url(#clip640)" d="M1632.17 139.829 L1632.17 125.801 L1636.43 125.801 L1636.43 161.819 L1632.17 161.819 L1632.17 157.93 Q1630.83 160.245 1628.77 161.379 Q1626.73 162.49 1623.86 162.49 Q1619.16 162.49 1616.2 158.74 Q1613.26 154.991 1613.26 148.879 Q1613.26 142.768 1616.2 139.018 Q1619.16 135.268 1623.86 135.268 Q1626.73 135.268 1628.77 136.403 Q1630.83 137.514 1632.17 139.829 M1617.66 148.879 Q1617.66 153.578 1619.58 156.264 Q1621.52 158.926 1624.9 158.926 Q1628.28 158.926 1630.23 156.264 Q1632.17 153.578 1632.17 148.879 Q1632.17 144.18 1630.23 141.518 Q1628.28 138.833 1624.9 138.833 Q1621.52 138.833 1619.58 141.518 Q1617.66 144.18 1617.66 148.879 Z" fill="#000000" fill-rule="nonzero" fill-opacity="1" /><path clip-path="url(#clip640)" d="M1656.98 148.787 Q1651.82 148.787 1649.83 149.967 Q1647.84 151.148 1647.84 153.995 Q1647.84 156.264 1649.32 157.606 Q1650.83 158.926 1653.4 158.926 Q1656.94 158.926 1659.07 156.426 Q1661.22 153.903 1661.22 149.736 L1661.22 148.787 L1656.98 148.787 M1665.48 147.028 L1665.48 161.819 L1661.22 161.819 L1661.22 157.884 Q1659.76 160.245 1657.59 161.379 Q1655.41 162.49 1652.26 162.49 Q1648.28 162.49 1645.92 160.268 Q1643.58 158.023 1643.58 154.273 Q1643.58 149.898 1646.5 147.676 Q1649.44 145.454 1655.25 145.454 L1661.22 145.454 L1661.22 145.037 Q1661.22 142.097 1659.28 140.5 Q1657.35 138.879 1653.86 138.879 Q1651.64 138.879 1649.53 139.412 Q1647.42 139.944 1645.48 141.009 L1645.48 137.074 Q1647.82 136.171 1650.02 135.731 Q1652.22 135.268 1654.3 135.268 Q1659.92 135.268 1662.7 138.185 Q1665.48 141.102 1665.48 147.028 Z" fill="#000000" fill-rule="nonzero" fill-opacity="1" /><path clip-path="url(#clip640)" d="M1695.8 135.893 L1686.43 148.509 L1696.29 161.819 L1691.27 161.819 L1683.72 151.634 L1676.17 161.819 L1671.15 161.819 L1681.22 148.254 L1672.01 135.893 L1677.03 135.893 L1683.91 145.129 L1690.78 135.893 L1695.8 135.893 Z" fill="#000000" fill-rule="nonzero" fill-opacity="1" /><path clip-path="url(#clip640)" d="M1706.43 157.93 L1706.43 171.68 L1702.15 171.68 L1702.15 135.893 L1706.43 135.893 L1706.43 139.829 Q1707.77 137.514 1709.81 136.403 Q1711.87 135.268 1714.72 135.268 Q1719.44 135.268 1722.38 139.018 Q1725.34 142.768 1725.34 148.879 Q1725.34 154.991 1722.38 158.74 Q1719.44 162.49 1714.72 162.49 Q1711.87 162.49 1709.81 161.379 Q1707.77 160.245 1706.43 157.93 M1720.92 148.879 Q1720.92 144.18 1718.98 141.518 Q1717.05 138.833 1713.67 138.833 Q1710.29 138.833 1708.35 141.518 Q1706.43 144.18 1706.43 148.879 Q1706.43 153.578 1708.35 156.264 Q1710.29 158.926 1713.67 158.926 Q1717.05 158.926 1718.98 156.264 Q1720.92 153.578 1720.92 148.879 Z" fill="#000000" fill-rule="nonzero" fill-opacity="1" /><path clip-path="url(#clip640)" d="M1743.19 164.227 Q1741.38 168.856 1739.67 170.268 Q1737.96 171.68 1735.09 171.68 L1731.68 171.68 L1731.68 168.115 L1734.18 168.115 Q1735.94 168.115 1736.91 167.282 Q1737.89 166.449 1739.07 163.347 L1739.83 161.403 L1729.35 135.893 L1733.86 135.893 L1741.96 156.171 L1750.06 135.893 L1754.58 135.893 L1743.19 164.227 Z" fill="#000000" fill-rule="nonzero" fill-opacity="1" /><path clip-path="url(#clip640)" d="M1763.14 155.94 L1767.84 155.94 L1767.84 161.819 L1763.14 161.819 L1763.14 155.94 M1763.14 127.259 L1767.84 127.259 L1767.84 142.421 L1767.38 150.685 L1763.63 150.685 L1763.14 142.421 L1763.14 127.259 Z" fill="#000000" fill-rule="nonzero" fill-opacity="1" /><polyline clip-path="url(#clip640)" style="stroke:#ffa500; stroke-linecap:round; stroke-linejoin:round; stroke-width:8; stroke-opacity:1; fill:none" points="1421.47,196.379 1564.65,196.379 "/>
<path clip-path="url(#clip640)" d="M1588.51 179.099 L1593.19 179.099 L1593.19 209.724 L1610.02 209.724 L1610.02 213.659 L1588.51 213.659 L1588.51 179.099 Z" fill="#000000" fill-rule="nonzero" fill-opacity="1" /><path clip-path="url(#clip640)" d="M1616.15 209.724 L1623.79 209.724 L1623.79 183.358 L1615.48 185.025 L1615.48 180.766 L1623.74 179.099 L1628.42 179.099 L1628.42 209.724 L1636.06 209.724 L1636.06 213.659 L1616.15 213.659 L1616.15 209.724 Z" fill="#000000" fill-rule="nonzero" fill-opacity="1" /><path clip-path="url(#clip640)" d="M1660.53 192.132 L1690.2 192.132 L1690.2 196.02 L1660.53 196.02 L1660.53 192.132 M1660.53 201.576 L1690.2 201.576 L1690.2 205.511 L1660.53 205.511 L1660.53 201.576 Z" fill="#000000" fill-rule="nonzero" fill-opacity="1" /><path clip-path="url(#clip640)" d="M1716.17 209.724 L1723.81 209.724 L1723.81 183.358 L1715.5 185.025 L1715.5 180.766 L1723.77 179.099 L1728.44 179.099 L1728.44 209.724 L1736.08 209.724 L1736.08 213.659 L1716.17 213.659 L1716.17 209.724 Z" fill="#000000" fill-rule="nonzero" fill-opacity="1" /><path clip-path="url(#clip640)" d="M1755.53 182.178 Q1751.91 182.178 1750.09 185.743 Q1748.28 189.284 1748.28 196.414 Q1748.28 203.52 1750.09 207.085 Q1751.91 210.627 1755.53 210.627 Q1759.16 210.627 1760.97 207.085 Q1762.79 203.52 1762.79 196.414 Q1762.79 189.284 1760.97 185.743 Q1759.16 182.178 1755.53 182.178 M1755.53 178.474 Q1761.34 178.474 1764.39 183.081 Q1767.47 187.664 1767.47 196.414 Q1767.47 205.141 1764.39 209.747 Q1761.34 214.33 1755.53 214.33 Q1749.72 214.33 1746.64 209.747 Q1743.58 205.141 1743.58 196.414 Q1743.58 187.664 1746.64 183.081 Q1749.72 178.474 1755.53 178.474 Z" fill="#000000" fill-rule="nonzero" fill-opacity="1" /><path clip-path="url(#clip640)" d="M1779.72 209.724 L1796.03 209.724 L1796.03 213.659 L1774.09 213.659 L1774.09 209.724 Q1776.75 206.969 1781.34 202.34 Q1785.94 197.687 1787.12 196.344 Q1789.37 193.821 1790.25 192.085 Q1791.15 190.326 1791.15 188.636 Q1791.15 185.882 1789.21 184.145 Q1787.28 182.409 1784.18 182.409 Q1781.98 182.409 1779.53 183.173 Q1777.1 183.937 1774.32 185.488 L1774.32 180.766 Q1777.15 179.632 1779.6 179.053 Q1782.05 178.474 1784.09 178.474 Q1789.46 178.474 1792.66 181.159 Q1795.85 183.845 1795.85 188.335 Q1795.85 190.465 1795.04 192.386 Q1794.25 194.284 1792.15 196.877 Q1791.57 197.548 1788.47 200.766 Q1785.36 203.96 1779.72 209.724 Z" fill="#000000" fill-rule="nonzero" fill-opacity="1" /><path clip-path="url(#clip640)" d="M1818.7 183.173 L1806.89 201.622 L1818.7 201.622 L1818.7 183.173 M1817.47 179.099 L1823.35 179.099 L1823.35 201.622 L1828.28 201.622 L1828.28 205.511 L1823.35 205.511 L1823.35 213.659 L1818.7 213.659 L1818.7 205.511 L1803.09 205.511 L1803.09 200.997 L1817.47 179.099 Z" fill="#000000" fill-rule="nonzero" fill-opacity="1" /><path clip-path="url(#clip640)" d="M1860.71 177.687 Q1857.61 183.011 1856.1 188.22 Q1854.6 193.428 1854.6 198.775 Q1854.6 204.122 1856.1 209.377 Q1857.63 214.608 1860.71 219.909 L1857.01 219.909 Q1853.53 214.469 1851.8 209.215 Q1850.09 203.96 1850.09 198.775 Q1850.09 193.613 1851.8 188.382 Q1853.51 183.15 1857.01 177.687 L1860.71 177.687 Z" fill="#000000" fill-rule="nonzero" fill-opacity="1" /><path clip-path="url(#clip640)" d="M1883.74 195.025 Q1887.1 195.743 1888.97 198.011 Q1890.87 200.28 1890.87 203.613 Q1890.87 208.729 1887.35 211.53 Q1883.84 214.33 1877.35 214.33 Q1875.18 214.33 1872.86 213.891 Q1870.57 213.474 1868.12 212.618 L1868.12 208.104 Q1870.06 209.238 1872.38 209.817 Q1874.69 210.395 1877.21 210.395 Q1881.61 210.395 1883.9 208.659 Q1886.22 206.923 1886.22 203.613 Q1886.22 200.557 1884.07 198.844 Q1881.94 197.108 1878.12 197.108 L1874.09 197.108 L1874.09 193.266 L1878.3 193.266 Q1881.75 193.266 1883.58 191.9 Q1885.41 190.511 1885.41 187.919 Q1885.41 185.257 1883.51 183.845 Q1881.64 182.409 1878.12 182.409 Q1876.2 182.409 1874 182.826 Q1871.8 183.243 1869.16 184.122 L1869.16 179.956 Q1871.82 179.215 1874.14 178.845 Q1876.47 178.474 1878.53 178.474 Q1883.86 178.474 1886.96 180.905 Q1890.06 183.312 1890.06 187.432 Q1890.06 190.303 1888.42 192.294 Q1886.78 194.261 1883.74 195.025 Z" fill="#000000" fill-rule="nonzero" fill-opacity="1" /><path clip-path="url(#clip640)" d="M1903.77 209.724 L1920.09 209.724 L1920.09 213.659 L1898.14 213.659 L1898.14 209.724 Q1900.8 206.969 1905.39 202.34 Q1909.99 197.687 1911.17 196.344 Q1913.42 193.821 1914.3 192.085 Q1915.2 190.326 1915.2 188.636 Q1915.2 185.882 1913.26 184.145 Q1911.34 182.409 1908.23 182.409 Q1906.03 182.409 1903.58 183.173 Q1901.15 183.937 1898.37 185.488 L1898.37 180.766 Q1901.2 179.632 1903.65 179.053 Q1906.1 178.474 1908.14 178.474 Q1913.51 178.474 1916.71 181.159 Q1919.9 183.845 1919.9 188.335 Q1919.9 190.465 1919.09 192.386 Q1918.3 194.284 1916.2 196.877 Q1915.62 197.548 1912.52 200.766 Q1909.41 203.96 1903.77 209.724 Z" fill="#000000" fill-rule="nonzero" fill-opacity="1" /><path clip-path="url(#clip640)" d="M1929.9 207.78 L1934.78 207.78 L1934.78 213.659 L1929.9 213.659 L1929.9 207.78 Z" fill="#000000" fill-rule="nonzero" fill-opacity="1" /><path clip-path="url(#clip640)" d="M1954.97 182.178 Q1951.36 182.178 1949.53 185.743 Q1947.72 189.284 1947.72 196.414 Q1947.72 203.52 1949.53 207.085 Q1951.36 210.627 1954.97 210.627 Q1958.6 210.627 1960.41 207.085 Q1962.24 203.52 1962.24 196.414 Q1962.24 189.284 1960.41 185.743 Q1958.6 182.178 1954.97 182.178 M1954.97 178.474 Q1960.78 178.474 1963.83 183.081 Q1966.91 187.664 1966.91 196.414 Q1966.91 205.141 1963.83 209.747 Q1960.78 214.33 1954.97 214.33 Q1949.16 214.33 1946.08 209.747 Q1943.02 205.141 1943.02 196.414 Q1943.02 187.664 1946.08 183.081 Q1949.16 178.474 1954.97 178.474 Z" fill="#000000" fill-rule="nonzero" fill-opacity="1" /><path clip-path="url(#clip640)" d="M1989.78 179.099 L1994.46 179.099 L1994.46 193.706 L2009.97 179.099 L2015.99 179.099 L1998.83 195.21 L2017.21 213.659 L2011.06 213.659 L1994.46 197.016 L1994.46 213.659 L1989.78 213.659 L1989.78 179.099 Z" fill="#000000" fill-rule="nonzero" fill-opacity="1" /><path clip-path="url(#clip640)" d="M2020.69 187.733 L2024.95 187.733 L2024.95 213.659 L2020.69 213.659 L2020.69 187.733 M2020.69 177.641 L2024.95 177.641 L2024.95 183.034 L2020.69 183.034 L2020.69 177.641 Z" fill="#000000" fill-rule="nonzero" fill-opacity="1" /><path clip-path="url(#clip640)" d="M2038.72 197.155 L2038.72 209.817 L2046.22 209.817 Q2049.99 209.817 2051.8 208.266 Q2053.63 206.692 2053.63 203.474 Q2053.63 200.233 2051.8 198.706 Q2049.99 197.155 2046.22 197.155 L2038.72 197.155 M2038.72 182.942 L2038.72 193.358 L2045.64 193.358 Q2049.07 193.358 2050.73 192.085 Q2052.42 190.789 2052.42 188.15 Q2052.42 185.534 2050.73 184.238 Q2049.07 182.942 2045.64 182.942 L2038.72 182.942 M2034.04 179.099 L2045.99 179.099 Q2051.33 179.099 2054.23 181.321 Q2057.12 183.544 2057.12 187.641 Q2057.12 190.812 2055.64 192.687 Q2054.16 194.562 2051.29 195.025 Q2054.74 195.766 2056.64 198.127 Q2058.56 200.465 2058.56 203.983 Q2058.56 208.613 2055.41 211.136 Q2052.26 213.659 2046.45 213.659 L2034.04 213.659 L2034.04 179.099 Z" fill="#000000" fill-rule="nonzero" fill-opacity="1" /><path clip-path="url(#clip640)" d="M2065.71 177.687 L2069.41 177.687 Q2072.89 183.15 2074.6 188.382 Q2076.33 193.613 2076.33 198.775 Q2076.33 203.96 2074.6 209.215 Q2072.89 214.469 2069.41 219.909 L2065.71 219.909 Q2068.79 214.608 2070.29 209.377 Q2071.82 204.122 2071.82 198.775 Q2071.82 193.428 2070.29 188.22 Q2068.79 183.011 2065.71 177.687 Z" fill="#000000" fill-rule="nonzero" fill-opacity="1" /><polyline clip-path="url(#clip640)" style="stroke:#ff0000; stroke-linecap:round; stroke-linejoin:round; stroke-width:8; stroke-opacity:1; fill:none" points="1421.47,248.219 1564.65,248.219 "/>
<path clip-path="url(#clip640)" d="M1588.51 230.939 L1593.19 230.939 L1593.19 261.564 L1610.02 261.564 L1610.02 265.499 L1588.51 265.499 L1588.51 230.939 Z" fill="#000000" fill-rule="nonzero" fill-opacity="1" /><path clip-path="url(#clip640)" d="M1619.37 261.564 L1635.69 261.564 L1635.69 265.499 L1613.74 265.499 L1613.74 261.564 Q1616.41 258.809 1620.99 254.18 Q1625.6 249.527 1626.78 248.184 Q1629.02 245.661 1629.9 243.925 Q1630.8 242.166 1630.8 240.476 Q1630.8 237.722 1628.86 235.985 Q1626.94 234.249 1623.84 234.249 Q1621.64 234.249 1619.18 235.013 Q1616.75 235.777 1613.98 237.328 L1613.98 232.606 Q1616.8 231.472 1619.25 230.893 Q1621.71 230.314 1623.74 230.314 Q1629.11 230.314 1632.31 232.999 Q1635.5 235.685 1635.5 240.175 Q1635.5 242.305 1634.69 244.226 Q1633.91 246.124 1631.8 248.717 Q1631.22 249.388 1628.12 252.606 Q1625.02 255.8 1619.37 261.564 Z" fill="#000000" fill-rule="nonzero" fill-opacity="1" /><path clip-path="url(#clip640)" d="M1660.53 243.972 L1690.2 243.972 L1690.2 247.86 L1660.53 247.86 L1660.53 243.972 M1660.53 253.416 L1690.2 253.416 L1690.2 257.351 L1660.53 257.351 L1660.53 253.416 Z" fill="#000000" fill-rule="nonzero" fill-opacity="1" /><path clip-path="url(#clip640)" d="M1716.17 261.564 L1723.81 261.564 L1723.81 235.198 L1715.5 236.865 L1715.5 232.606 L1723.77 230.939 L1728.44 230.939 L1728.44 261.564 L1736.08 261.564 L1736.08 265.499 L1716.17 265.499 L1716.17 261.564 Z" fill="#000000" fill-rule="nonzero" fill-opacity="1" /><path clip-path="url(#clip640)" d="M1756.1 246.356 Q1752.96 246.356 1751.1 248.509 Q1749.28 250.661 1749.28 254.411 Q1749.28 258.138 1751.1 260.314 Q1752.96 262.467 1756.1 262.467 Q1759.25 262.467 1761.08 260.314 Q1762.93 258.138 1762.93 254.411 Q1762.93 250.661 1761.08 248.509 Q1759.25 246.356 1756.1 246.356 M1765.39 231.703 L1765.39 235.962 Q1763.63 235.129 1761.82 234.689 Q1760.04 234.249 1758.28 234.249 Q1753.65 234.249 1751.2 237.374 Q1748.77 240.499 1748.42 246.819 Q1749.79 244.805 1751.85 243.74 Q1753.91 242.652 1756.38 242.652 Q1761.59 242.652 1764.6 245.823 Q1767.63 248.971 1767.63 254.411 Q1767.63 259.735 1764.48 262.953 Q1761.34 266.17 1756.1 266.17 Q1750.11 266.17 1746.94 261.587 Q1743.77 256.981 1743.77 248.254 Q1743.77 240.06 1747.66 235.198 Q1751.54 230.314 1758.1 230.314 Q1759.85 230.314 1761.64 230.661 Q1763.44 231.009 1765.39 231.703 Z" fill="#000000" fill-rule="nonzero" fill-opacity="1" /><path clip-path="url(#clip640)" d="M1789.85 246.865 Q1793.21 247.583 1795.09 249.851 Q1796.98 252.12 1796.98 255.453 Q1796.98 260.569 1793.47 263.37 Q1789.95 266.17 1783.47 266.17 Q1781.29 266.17 1778.97 265.731 Q1776.68 265.314 1774.23 264.458 L1774.23 259.944 Q1776.17 261.078 1778.49 261.657 Q1780.8 262.235 1783.33 262.235 Q1787.72 262.235 1790.02 260.499 Q1792.33 258.763 1792.33 255.453 Q1792.33 252.397 1790.18 250.684 Q1788.05 248.948 1784.23 248.948 L1780.2 248.948 L1780.2 245.106 L1784.41 245.106 Q1787.86 245.106 1789.69 243.74 Q1791.52 242.351 1791.52 239.759 Q1791.52 237.097 1789.62 235.685 Q1787.75 234.249 1784.23 234.249 Q1782.31 234.249 1780.11 234.666 Q1777.91 235.083 1775.27 235.962 L1775.27 231.796 Q1777.93 231.055 1780.25 230.685 Q1782.59 230.314 1784.65 230.314 Q1789.97 230.314 1793.07 232.745 Q1796.17 235.152 1796.17 239.272 Q1796.17 242.143 1794.53 244.134 Q1792.89 246.101 1789.85 246.865 Z" fill="#000000" fill-rule="nonzero" fill-opacity="1" /><path clip-path="url(#clip640)" d="M1815.85 249.087 Q1812.52 249.087 1810.59 250.87 Q1808.7 252.652 1808.7 255.777 Q1808.7 258.902 1810.59 260.684 Q1812.52 262.467 1815.85 262.467 Q1819.18 262.467 1821.1 260.684 Q1823.03 258.879 1823.03 255.777 Q1823.03 252.652 1821.1 250.87 Q1819.21 249.087 1815.85 249.087 M1811.17 247.097 Q1808.16 246.356 1806.47 244.296 Q1804.81 242.235 1804.81 239.272 Q1804.81 235.129 1807.75 232.722 Q1810.71 230.314 1815.85 230.314 Q1821.01 230.314 1823.95 232.722 Q1826.89 235.129 1826.89 239.272 Q1826.89 242.235 1825.2 244.296 Q1823.53 246.356 1820.55 247.097 Q1823.93 247.884 1825.8 250.175 Q1827.7 252.467 1827.7 255.777 Q1827.7 260.8 1824.62 263.485 Q1821.57 266.17 1815.85 266.17 Q1810.13 266.17 1807.05 263.485 Q1804 260.8 1804 255.777 Q1804 252.467 1805.9 250.175 Q1807.79 247.884 1811.17 247.097 M1809.46 239.712 Q1809.46 242.397 1811.13 243.902 Q1812.82 245.407 1815.85 245.407 Q1818.86 245.407 1820.55 243.902 Q1822.26 242.397 1822.26 239.712 Q1822.26 237.027 1820.55 235.522 Q1818.86 234.018 1815.85 234.018 Q1812.82 234.018 1811.13 235.522 Q1809.46 237.027 1809.46 239.712 Z" fill="#000000" fill-rule="nonzero" fill-opacity="1" /><path clip-path="url(#clip640)" d="M1848.86 235.013 L1837.05 253.462 L1848.86 253.462 L1848.86 235.013 M1847.63 230.939 L1853.51 230.939 L1853.51 253.462 L1858.44 253.462 L1858.44 257.351 L1853.51 257.351 L1853.51 265.499 L1848.86 265.499 L1848.86 257.351 L1833.26 257.351 L1833.26 252.837 L1847.63 230.939 Z" fill="#000000" fill-rule="nonzero" fill-opacity="1" /><path clip-path="url(#clip640)" d="M1890.87 229.527 Q1887.77 234.851 1886.27 240.06 Q1884.76 245.268 1884.76 250.615 Q1884.76 255.962 1886.27 261.217 Q1887.79 266.448 1890.87 271.749 L1887.17 271.749 Q1883.7 266.309 1881.96 261.055 Q1880.25 255.8 1880.25 250.615 Q1880.25 245.453 1881.96 240.222 Q1883.67 234.99 1887.17 229.527 L1890.87 229.527 Z" fill="#000000" fill-rule="nonzero" fill-opacity="1" /><path clip-path="url(#clip640)" d="M1899.78 230.939 L1918.14 230.939 L1918.14 234.874 L1904.07 234.874 L1904.07 243.347 Q1905.09 242.999 1906.1 242.837 Q1907.12 242.652 1908.14 242.652 Q1913.93 242.652 1917.31 245.823 Q1920.69 248.995 1920.69 254.411 Q1920.69 259.99 1917.21 263.092 Q1913.74 266.17 1907.42 266.17 Q1905.25 266.17 1902.98 265.8 Q1900.73 265.43 1898.33 264.689 L1898.33 259.99 Q1900.41 261.124 1902.63 261.68 Q1904.85 262.235 1907.33 262.235 Q1911.34 262.235 1913.67 260.129 Q1916.01 258.022 1916.01 254.411 Q1916.01 250.8 1913.67 248.694 Q1911.34 246.587 1907.33 246.587 Q1905.46 246.587 1903.58 247.004 Q1901.73 247.421 1899.78 248.3 L1899.78 230.939 Z" fill="#000000" fill-rule="nonzero" fill-opacity="1" /><path clip-path="url(#clip640)" d="M1930.71 261.564 L1938.35 261.564 L1938.35 235.198 L1930.04 236.865 L1930.04 232.606 L1938.3 230.939 L1942.98 230.939 L1942.98 261.564 L1950.62 261.564 L1950.62 265.499 L1930.71 265.499 L1930.71 261.564 Z" fill="#000000" fill-rule="nonzero" fill-opacity="1" /><path clip-path="url(#clip640)" d="M1964.09 261.564 L1980.41 261.564 L1980.41 265.499 L1958.46 265.499 L1958.46 261.564 Q1961.13 258.809 1965.71 254.18 Q1970.32 249.527 1971.5 248.184 Q1973.74 245.661 1974.62 243.925 Q1975.52 242.166 1975.52 240.476 Q1975.52 237.722 1973.58 235.985 Q1971.66 234.249 1968.56 234.249 Q1966.36 234.249 1963.9 235.013 Q1961.47 235.777 1958.7 237.328 L1958.7 232.606 Q1961.52 231.472 1963.97 230.893 Q1966.43 230.314 1968.46 230.314 Q1973.83 230.314 1977.03 232.999 Q1980.22 235.685 1980.22 240.175 Q1980.22 242.305 1979.41 244.226 Q1978.63 246.124 1976.52 248.717 Q1975.94 249.388 1972.84 252.606 Q1969.74 255.8 1964.09 261.564 Z" fill="#000000" fill-rule="nonzero" fill-opacity="1" /><path clip-path="url(#clip640)" d="M1990.22 259.62 L1995.11 259.62 L1995.11 265.499 L1990.22 265.499 L1990.22 259.62 Z" fill="#000000" fill-rule="nonzero" fill-opacity="1" /><path clip-path="url(#clip640)" d="M2015.29 234.018 Q2011.68 234.018 2009.85 237.583 Q2008.05 241.124 2008.05 248.254 Q2008.05 255.36 2009.85 258.925 Q2011.68 262.467 2015.29 262.467 Q2018.93 262.467 2020.73 258.925 Q2022.56 255.36 2022.56 248.254 Q2022.56 241.124 2020.73 237.583 Q2018.93 234.018 2015.29 234.018 M2015.29 230.314 Q2021.1 230.314 2024.16 234.921 Q2027.24 239.504 2027.24 248.254 Q2027.24 256.981 2024.16 261.587 Q2021.1 266.17 2015.29 266.17 Q2009.48 266.17 2006.4 261.587 Q2003.35 256.981 2003.35 248.254 Q2003.35 239.504 2006.4 234.921 Q2009.48 230.314 2015.29 230.314 Z" fill="#000000" fill-rule="nonzero" fill-opacity="1" /><path clip-path="url(#clip640)" d="M2050.11 230.939 L2054.78 230.939 L2054.78 245.546 L2070.29 230.939 L2076.31 230.939 L2059.16 247.05 L2077.54 265.499 L2071.38 265.499 L2054.78 248.856 L2054.78 265.499 L2050.11 265.499 L2050.11 230.939 Z" fill="#000000" fill-rule="nonzero" fill-opacity="1" /><path clip-path="url(#clip640)" d="M2081.01 239.573 L2085.27 239.573 L2085.27 265.499 L2081.01 265.499 L2081.01 239.573 M2081.01 229.481 L2085.27 229.481 L2085.27 234.874 L2081.01 234.874 L2081.01 229.481 Z" fill="#000000" fill-rule="nonzero" fill-opacity="1" /><path clip-path="url(#clip640)" d="M2099.04 248.995 L2099.04 261.657 L2106.54 261.657 Q2110.32 261.657 2112.12 260.106 Q2113.95 258.532 2113.95 255.314 Q2113.95 252.073 2112.12 250.546 Q2110.32 248.995 2106.54 248.995 L2099.04 248.995 M2099.04 234.782 L2099.04 245.198 L2105.96 245.198 Q2109.39 245.198 2111.06 243.925 Q2112.75 242.629 2112.75 239.99 Q2112.75 237.374 2111.06 236.078 Q2109.39 234.782 2105.96 234.782 L2099.04 234.782 M2094.37 230.939 L2106.31 230.939 Q2111.66 230.939 2114.55 233.161 Q2117.45 235.384 2117.45 239.481 Q2117.45 242.652 2115.96 244.527 Q2114.48 246.402 2111.61 246.865 Q2115.06 247.606 2116.96 249.967 Q2118.88 252.305 2118.88 255.823 Q2118.88 260.453 2115.73 262.976 Q2112.58 265.499 2106.77 265.499 L2094.37 265.499 L2094.37 230.939 Z" fill="#000000" fill-rule="nonzero" fill-opacity="1" /><path clip-path="url(#clip640)" d="M2126.03 229.527 L2129.74 229.527 Q2133.21 234.99 2134.92 240.222 Q2136.66 245.453 2136.66 250.615 Q2136.66 255.8 2134.92 261.055 Q2133.21 266.309 2129.74 271.749 L2126.03 271.749 Q2129.11 266.448 2130.62 261.217 Q2132.14 255.962 2132.14 250.615 Q2132.14 245.268 2130.62 240.06 Q2129.11 234.851 2126.03 229.527 Z" fill="#000000" fill-rule="nonzero" fill-opacity="1" /><polyline clip-path="url(#clip640)" style="stroke:#800080; stroke-linecap:round; stroke-linejoin:round; stroke-width:8; stroke-opacity:1; fill:none" points="1421.47,300.059 1564.65,300.059 "/>
<path clip-path="url(#clip640)" d="M1588.51 282.779 L1593.19 282.779 L1593.19 313.404 L1610.02 313.404 L1610.02 317.339 L1588.51 317.339 L1588.51 282.779 Z" fill="#000000" fill-rule="nonzero" fill-opacity="1" /><path clip-path="url(#clip640)" d="M1629.51 298.705 Q1632.86 299.423 1634.74 301.691 Q1636.64 303.96 1636.64 307.293 Q1636.64 312.409 1633.12 315.21 Q1629.6 318.01 1623.12 318.01 Q1620.94 318.01 1618.63 317.571 Q1616.34 317.154 1613.88 316.298 L1613.88 311.784 Q1615.83 312.918 1618.14 313.497 Q1620.46 314.075 1622.98 314.075 Q1627.38 314.075 1629.67 312.339 Q1631.98 310.603 1631.98 307.293 Q1631.98 304.237 1629.83 302.524 Q1627.7 300.788 1623.88 300.788 L1619.86 300.788 L1619.86 296.946 L1624.07 296.946 Q1627.52 296.946 1629.35 295.58 Q1631.17 294.191 1631.17 291.599 Q1631.17 288.937 1629.28 287.525 Q1627.4 286.089 1623.88 286.089 Q1621.96 286.089 1619.76 286.506 Q1617.56 286.923 1614.92 287.802 L1614.92 283.636 Q1617.59 282.895 1619.9 282.525 Q1622.24 282.154 1624.3 282.154 Q1629.62 282.154 1632.73 284.585 Q1635.83 286.992 1635.83 291.112 Q1635.83 293.983 1634.18 295.974 Q1632.54 297.941 1629.51 298.705 Z" fill="#000000" fill-rule="nonzero" fill-opacity="1" /><path clip-path="url(#clip640)" d="M1660.53 295.812 L1690.2 295.812 L1690.2 299.7 L1660.53 299.7 L1660.53 295.812 M1660.53 305.256 L1690.2 305.256 L1690.2 309.191 L1660.53 309.191 L1660.53 305.256 Z" fill="#000000" fill-rule="nonzero" fill-opacity="1" /><path clip-path="url(#clip640)" d="M1716.17 313.404 L1723.81 313.404 L1723.81 287.038 L1715.5 288.705 L1715.5 284.446 L1723.77 282.779 L1728.44 282.779 L1728.44 313.404 L1736.08 313.404 L1736.08 317.339 L1716.17 317.339 L1716.17 313.404 Z" fill="#000000" fill-rule="nonzero" fill-opacity="1" /><path clip-path="url(#clip640)" d="M1755.53 285.858 Q1751.91 285.858 1750.09 289.423 Q1748.28 292.964 1748.28 300.094 Q1748.28 307.2 1750.09 310.765 Q1751.91 314.307 1755.53 314.307 Q1759.16 314.307 1760.97 310.765 Q1762.79 307.2 1762.79 300.094 Q1762.79 292.964 1760.97 289.423 Q1759.16 285.858 1755.53 285.858 M1755.53 282.154 Q1761.34 282.154 1764.39 286.761 Q1767.47 291.344 1767.47 300.094 Q1767.47 308.821 1764.39 313.427 Q1761.34 318.01 1755.53 318.01 Q1749.72 318.01 1746.64 313.427 Q1743.58 308.821 1743.58 300.094 Q1743.58 291.344 1746.64 286.761 Q1749.72 282.154 1755.53 282.154 Z" fill="#000000" fill-rule="nonzero" fill-opacity="1" /><path clip-path="url(#clip640)" d="M1788.53 286.853 L1776.73 305.302 L1788.53 305.302 L1788.53 286.853 M1787.31 282.779 L1793.19 282.779 L1793.19 305.302 L1798.12 305.302 L1798.12 309.191 L1793.19 309.191 L1793.19 317.339 L1788.53 317.339 L1788.53 309.191 L1772.93 309.191 L1772.93 304.677 L1787.31 282.779 Z" fill="#000000" fill-rule="nonzero" fill-opacity="1" /><path clip-path="url(#clip640)" d="M1815.85 300.927 Q1812.52 300.927 1810.59 302.71 Q1808.7 304.492 1808.7 307.617 Q1808.7 310.742 1810.59 312.524 Q1812.52 314.307 1815.85 314.307 Q1819.18 314.307 1821.1 312.524 Q1823.03 310.719 1823.03 307.617 Q1823.03 304.492 1821.1 302.71 Q1819.21 300.927 1815.85 300.927 M1811.17 298.937 Q1808.16 298.196 1806.47 296.136 Q1804.81 294.075 1804.81 291.112 Q1804.81 286.969 1807.75 284.562 Q1810.71 282.154 1815.85 282.154 Q1821.01 282.154 1823.95 284.562 Q1826.89 286.969 1826.89 291.112 Q1826.89 294.075 1825.2 296.136 Q1823.53 298.196 1820.55 298.937 Q1823.93 299.724 1825.8 302.015 Q1827.7 304.307 1827.7 307.617 Q1827.7 312.64 1824.62 315.325 Q1821.57 318.01 1815.85 318.01 Q1810.13 318.01 1807.05 315.325 Q1804 312.64 1804 307.617 Q1804 304.307 1805.9 302.015 Q1807.79 299.724 1811.17 298.937 M1809.46 291.552 Q1809.46 294.237 1811.13 295.742 Q1812.82 297.247 1815.85 297.247 Q1818.86 297.247 1820.55 295.742 Q1822.26 294.237 1822.26 291.552 Q1822.26 288.867 1820.55 287.362 Q1818.86 285.858 1815.85 285.858 Q1812.82 285.858 1811.13 287.362 Q1809.46 288.867 1809.46 291.552 Z" fill="#000000" fill-rule="nonzero" fill-opacity="1" /><path clip-path="url(#clip640)" d="M1836.06 282.779 L1854.41 282.779 L1854.41 286.714 L1840.34 286.714 L1840.34 295.187 Q1841.36 294.839 1842.38 294.677 Q1843.4 294.492 1844.41 294.492 Q1850.2 294.492 1853.58 297.663 Q1856.96 300.835 1856.96 306.251 Q1856.96 311.83 1853.49 314.932 Q1850.02 318.01 1843.7 318.01 Q1841.52 318.01 1839.25 317.64 Q1837.01 317.27 1834.6 316.529 L1834.6 311.83 Q1836.68 312.964 1838.9 313.52 Q1841.13 314.075 1843.6 314.075 Q1847.61 314.075 1849.95 311.969 Q1852.28 309.862 1852.28 306.251 Q1852.28 302.64 1849.95 300.534 Q1847.61 298.427 1843.6 298.427 Q1841.73 298.427 1839.85 298.844 Q1838 299.261 1836.06 300.14 L1836.06 282.779 Z" fill="#000000" fill-rule="nonzero" fill-opacity="1" /><path clip-path="url(#clip640)" d="M1864.99 282.779 L1887.21 282.779 L1887.21 284.77 L1874.67 317.339 L1869.78 317.339 L1881.59 286.714 L1864.99 286.714 L1864.99 282.779 Z" fill="#000000" fill-rule="nonzero" fill-opacity="1" /><path clip-path="url(#clip640)" d="M1906.91 298.196 Q1903.77 298.196 1901.91 300.349 Q1900.09 302.501 1900.09 306.251 Q1900.09 309.978 1901.91 312.154 Q1903.77 314.307 1906.91 314.307 Q1910.06 314.307 1911.89 312.154 Q1913.74 309.978 1913.74 306.251 Q1913.74 302.501 1911.89 300.349 Q1910.06 298.196 1906.91 298.196 M1916.2 283.543 L1916.2 287.802 Q1914.44 286.969 1912.63 286.529 Q1910.85 286.089 1909.09 286.089 Q1904.46 286.089 1902.01 289.214 Q1899.58 292.339 1899.23 298.659 Q1900.59 296.645 1902.65 295.58 Q1904.71 294.492 1907.19 294.492 Q1912.4 294.492 1915.41 297.663 Q1918.44 300.811 1918.44 306.251 Q1918.44 311.575 1915.29 314.793 Q1912.15 318.01 1906.91 318.01 Q1900.92 318.01 1897.75 313.427 Q1894.58 308.821 1894.58 300.094 Q1894.58 291.9 1898.46 287.038 Q1902.35 282.154 1908.9 282.154 Q1910.66 282.154 1912.45 282.501 Q1914.25 282.849 1916.2 283.543 Z" fill="#000000" fill-rule="nonzero" fill-opacity="1" /><path clip-path="url(#clip640)" d="M1951.2 281.367 Q1948.09 286.691 1946.59 291.9 Q1945.08 297.108 1945.08 302.455 Q1945.08 307.802 1946.59 313.057 Q1948.12 318.288 1951.2 323.589 L1947.49 323.589 Q1944.02 318.149 1942.28 312.895 Q1940.57 307.64 1940.57 302.455 Q1940.57 297.293 1942.28 292.062 Q1944 286.83 1947.49 281.367 L1951.2 281.367 Z" fill="#000000" fill-rule="nonzero" fill-opacity="1" /><path clip-path="url(#clip640)" d="M1974.23 298.705 Q1977.58 299.423 1979.46 301.691 Q1981.36 303.96 1981.36 307.293 Q1981.36 312.409 1977.84 315.21 Q1974.32 318.01 1967.84 318.01 Q1965.66 318.01 1963.35 317.571 Q1961.06 317.154 1958.6 316.298 L1958.6 311.784 Q1960.55 312.918 1962.86 313.497 Q1965.18 314.075 1967.7 314.075 Q1972.1 314.075 1974.39 312.339 Q1976.71 310.603 1976.71 307.293 Q1976.71 304.237 1974.55 302.524 Q1972.42 300.788 1968.6 300.788 L1964.58 300.788 L1964.58 296.946 L1968.79 296.946 Q1972.24 296.946 1974.07 295.58 Q1975.89 294.191 1975.89 291.599 Q1975.89 288.937 1974 287.525 Q1972.12 286.089 1968.6 286.089 Q1966.68 286.089 1964.48 286.506 Q1962.28 286.923 1959.65 287.802 L1959.65 283.636 Q1962.31 282.895 1964.62 282.525 Q1966.96 282.154 1969.02 282.154 Q1974.34 282.154 1977.45 284.585 Q1980.55 286.992 1980.55 291.112 Q1980.55 293.983 1978.9 295.974 Q1977.26 297.941 1974.23 298.705 Z" fill="#000000" fill-rule="nonzero" fill-opacity="1" /><path clip-path="url(#clip640)" d="M1994.25 313.404 L2010.57 313.404 L2010.57 317.339 L1988.63 317.339 L1988.63 313.404 Q1991.29 310.649 1995.87 306.02 Q2000.48 301.367 2001.66 300.024 Q2003.9 297.501 2004.78 295.765 Q2005.69 294.006 2005.69 292.316 Q2005.69 289.562 2003.74 287.825 Q2001.82 286.089 1998.72 286.089 Q1996.52 286.089 1994.07 286.853 Q1991.64 287.617 1988.86 289.168 L1988.86 284.446 Q1991.68 283.312 1994.14 282.733 Q1996.59 282.154 1998.63 282.154 Q2004 282.154 2007.19 284.839 Q2010.39 287.525 2010.39 292.015 Q2010.39 294.145 2009.58 296.066 Q2008.79 297.964 2006.68 300.557 Q2006.1 301.228 2003 304.446 Q1999.9 307.64 1994.25 313.404 Z" fill="#000000" fill-rule="nonzero" fill-opacity="1" /><path clip-path="url(#clip640)" d="M2019.2 282.779 L2041.43 282.779 L2041.43 284.77 L2028.88 317.339 L2024 317.339 L2035.8 286.714 L2019.2 286.714 L2019.2 282.779 Z" fill="#000000" fill-rule="nonzero" fill-opacity="1" /><path clip-path="url(#clip640)" d="M2061.13 298.196 Q2057.98 298.196 2056.13 300.349 Q2054.3 302.501 2054.3 306.251 Q2054.3 309.978 2056.13 312.154 Q2057.98 314.307 2061.13 314.307 Q2064.27 314.307 2066.1 312.154 Q2067.95 309.978 2067.95 306.251 Q2067.95 302.501 2066.1 300.349 Q2064.27 298.196 2061.13 298.196 M2070.41 283.543 L2070.41 287.802 Q2068.65 286.969 2066.84 286.529 Q2065.06 286.089 2063.3 286.089 Q2058.67 286.089 2056.22 289.214 Q2053.79 292.339 2053.44 298.659 Q2054.81 296.645 2056.87 295.58 Q2058.93 294.492 2061.4 294.492 Q2066.61 294.492 2069.62 297.663 Q2072.65 300.811 2072.65 306.251 Q2072.65 311.575 2069.51 314.793 Q2066.36 318.01 2061.13 318.01 Q2055.13 318.01 2051.96 313.427 Q2048.79 308.821 2048.79 300.094 Q2048.79 291.9 2052.68 287.038 Q2056.57 282.154 2063.12 282.154 Q2064.88 282.154 2066.66 282.501 Q2068.46 282.849 2070.41 283.543 Z" fill="#000000" fill-rule="nonzero" fill-opacity="1" /><path clip-path="url(#clip640)" d="M2090.71 300.927 Q2087.38 300.927 2085.45 302.71 Q2083.56 304.492 2083.56 307.617 Q2083.56 310.742 2085.45 312.524 Q2087.38 314.307 2090.71 314.307 Q2094.04 314.307 2095.96 312.524 Q2097.89 310.719 2097.89 307.617 Q2097.89 304.492 2095.96 302.71 Q2094.07 300.927 2090.71 300.927 M2086.03 298.937 Q2083.02 298.196 2081.33 296.136 Q2079.67 294.075 2079.67 291.112 Q2079.67 286.969 2082.61 284.562 Q2085.57 282.154 2090.71 282.154 Q2095.87 282.154 2098.81 284.562 Q2101.75 286.969 2101.75 291.112 Q2101.75 294.075 2100.06 296.136 Q2098.39 298.196 2095.41 298.937 Q2098.79 299.724 2100.66 302.015 Q2102.56 304.307 2102.56 307.617 Q2102.56 312.64 2099.48 315.325 Q2096.43 318.01 2090.71 318.01 Q2084.99 318.01 2081.91 315.325 Q2078.86 312.64 2078.86 307.617 Q2078.86 304.307 2080.76 302.015 Q2082.65 299.724 2086.03 298.937 M2084.32 291.552 Q2084.32 294.237 2085.99 295.742 Q2087.68 297.247 2090.71 297.247 Q2093.72 297.247 2095.41 295.742 Q2097.12 294.237 2097.12 291.552 Q2097.12 288.867 2095.41 287.362 Q2093.72 285.858 2090.71 285.858 Q2087.68 285.858 2085.99 287.362 Q2084.32 288.867 2084.32 291.552 Z" fill="#000000" fill-rule="nonzero" fill-opacity="1" /><path clip-path="url(#clip640)" d="M2110.87 311.46 L2115.76 311.46 L2115.76 317.339 L2110.87 317.339 L2110.87 311.46 Z" fill="#000000" fill-rule="nonzero" fill-opacity="1" /><path clip-path="url(#clip640)" d="M2135.94 285.858 Q2132.33 285.858 2130.5 289.423 Q2128.7 292.964 2128.7 300.094 Q2128.7 307.2 2130.5 310.765 Q2132.33 314.307 2135.94 314.307 Q2139.57 314.307 2141.38 310.765 Q2143.21 307.2 2143.21 300.094 Q2143.21 292.964 2141.38 289.423 Q2139.57 285.858 2135.94 285.858 M2135.94 282.154 Q2141.75 282.154 2144.81 286.761 Q2147.88 291.344 2147.88 300.094 Q2147.88 308.821 2144.81 313.427 Q2141.75 318.01 2135.94 318.01 Q2130.13 318.01 2127.05 313.427 Q2124 308.821 2124 300.094 Q2124 291.344 2127.05 286.761 Q2130.13 282.154 2135.94 282.154 Z" fill="#000000" fill-rule="nonzero" fill-opacity="1" /><path clip-path="url(#clip640)" d="M2170.76 282.779 L2175.43 282.779 L2175.43 297.386 L2190.94 282.779 L2196.96 282.779 L2179.81 298.89 L2198.19 317.339 L2192.03 317.339 L2175.43 300.696 L2175.43 317.339 L2170.76 317.339 L2170.76 282.779 Z" fill="#000000" fill-rule="nonzero" fill-opacity="1" /><path clip-path="url(#clip640)" d="M2201.66 291.413 L2205.92 291.413 L2205.92 317.339 L2201.66 317.339 L2201.66 291.413 M2201.66 281.321 L2205.92 281.321 L2205.92 286.714 L2201.66 286.714 L2201.66 281.321 Z" fill="#000000" fill-rule="nonzero" fill-opacity="1" /><path clip-path="url(#clip640)" d="M2219.69 300.835 L2219.69 313.497 L2227.19 313.497 Q2230.96 313.497 2232.77 311.946 Q2234.6 310.372 2234.6 307.154 Q2234.6 303.913 2232.77 302.386 Q2230.96 300.835 2227.19 300.835 L2219.69 300.835 M2219.69 286.622 L2219.69 297.038 L2226.61 297.038 Q2230.04 297.038 2231.7 295.765 Q2233.39 294.469 2233.39 291.83 Q2233.39 289.214 2231.7 287.918 Q2230.04 286.622 2226.61 286.622 L2219.69 286.622 M2215.01 282.779 L2226.96 282.779 Q2232.31 282.779 2235.2 285.001 Q2238.09 287.224 2238.09 291.321 Q2238.09 294.492 2236.61 296.367 Q2235.13 298.242 2232.26 298.705 Q2235.71 299.446 2237.61 301.807 Q2239.53 304.145 2239.53 307.663 Q2239.53 312.293 2236.38 314.816 Q2233.23 317.339 2227.42 317.339 L2215.01 317.339 L2215.01 282.779 Z" fill="#000000" fill-rule="nonzero" fill-opacity="1" /><path clip-path="url(#clip640)" d="M2246.68 281.367 L2250.38 281.367 Q2253.86 286.83 2255.57 292.062 Q2257.31 297.293 2257.31 302.455 Q2257.31 307.64 2255.57 312.895 Q2253.86 318.149 2250.38 323.589 L2246.68 323.589 Q2249.76 318.288 2251.26 313.057 Q2252.79 307.802 2252.79 302.455 Q2252.79 297.108 2251.26 291.9 Q2249.76 286.691 2246.68 281.367 Z" fill="#000000" fill-rule="nonzero" fill-opacity="1" /></svg>
