<?xml version="1.0" encoding="utf-8"?>
<!-- Generator: Adobe Illustrator 24.1.0, SVG Export Plug-In . SVG Version: 6.00 Build 0)  -->
<svg version="1.1" id="Layer_1" xmlns="http://www.w3.org/2000/svg" xmlns:xlink="http://www.w3.org/1999/xlink" x="0px" y="0px"
	 viewBox="0 0 1800.3 595.7" style="enable-background:new 0 0 1800.3 595.7;" xml:space="preserve">
<style type="text/css">
	.st0{font-family:'CMUSansSerif';}
	.st1{font-size:40px;}
	.st2{letter-spacing:-1;}
	.st3{fill:#DC267F;}
	.st4{fill:none;stroke:#000000;stroke-width:4;}
	.st5{clip-path:url(#SVGID_2_);}
	.st6{fill:#FFFFFF;}
	.st7{clip-path:url(#SVGID_4_);}
	.st8{clip-path:url(#SVGID_6_);}
	.st9{fill:#785EF0;}
	.st10{clip-path:url(#SVGID_8_);}
	.st11{clip-path:url(#SVGID_10_);}
	.st12{clip-path:url(#SVGID_12_);}
	.st13{fill:#FFB000;}
	.st14{clip-path:url(#SVGID_14_);}
	.st15{clip-path:url(#SVGID_16_);}
	.st16{clip-path:url(#SVGID_18_);}
	.st17{clip-path:url(#SVGID_20_);}
	.st18{font-family:'HelveticaNeue-Medium';}
	.st19{clip-path:url(#SVGID_22_);}
	.st20{clip-path:url(#SVGID_24_);}
	.st21{clip-path:url(#SVGID_26_);}
	.st22{clip-path:url(#SVGID_28_);}
	.st23{clip-path:url(#SVGID_30_);}
	.st24{clip-path:url(#SVGID_32_);}
	.st25{clip-path:url(#SVGID_34_);}
	.st26{clip-path:url(#SVGID_36_);}
	.st27{fill:#FCFFFF;}
</style>
<g>
	<text transform="matrix(1 0 0 1 1661.9269 467.3122)"><tspan x="0" y="0" class="st0 st1">mem</tspan><tspan x="81.3" y="0" class="st0 st1 st2">o</tspan><tspan x="100.2" y="0" class="st0 st1">ry</tspan></text>
	<rect x="750.3" y="2" class="st3" width="100" height="100"/>
	<rect x="750.3" y="2" class="st4" width="100" height="100"/>
</g>
<g>
	<defs>
		<rect id="SVGID_1_" x="744.8" y="4" width="111" height="96"/>
	</defs>
	<clipPath id="SVGID_2_">
		<use xlink:href="#SVGID_1_"  style="overflow:visible;"/>
	</clipPath>
	<g class="st5">
		<text transform="matrix(1 0 0 1 790.3011 65.0001)" class="st6 st0 st1">1</text>
	</g>
</g>
<g>
	<rect x="750.3" y="101.4" class="st3" width="100" height="100"/>
	<rect x="750.3" y="101.4" class="st4" width="100" height="100"/>
</g>
<g>
	<defs>
		<rect id="SVGID_3_" x="744.8" y="103.4" width="111" height="96"/>
	</defs>
	<clipPath id="SVGID_4_">
		<use xlink:href="#SVGID_3_"  style="overflow:visible;"/>
	</clipPath>
	<g class="st7">
		<text transform="matrix(1 0 0 1 790.3011 164.3657)" class="st6 st0 st1">2</text>
	</g>
</g>
<g>
	<rect x="750.3" y="201.6" class="st3" width="100" height="100"/>
	<rect x="750.3" y="201.6" class="st4" width="100" height="100"/>
</g>
<g>
	<defs>
		<rect id="SVGID_5_" x="744.8" y="203.6" width="111" height="96"/>
	</defs>
	<clipPath id="SVGID_6_">
		<use xlink:href="#SVGID_5_"  style="overflow:visible;"/>
	</clipPath>
	<g class="st8">
		<text transform="matrix(1 0 0 1 790.3011 264.6328)" class="st6 st0 st1">3</text>
	</g>
</g>
<g>
	<rect x="850.2" y="2" class="st9" width="100" height="100"/>
	<rect x="850.2" y="2" class="st4" width="100" height="100"/>
</g>
<g>
	<defs>
		<rect id="SVGID_7_" x="844.7" y="4" width="111" height="96"/>
	</defs>
	<clipPath id="SVGID_8_">
		<use xlink:href="#SVGID_7_"  style="overflow:visible;"/>
	</clipPath>
	<g class="st10">
		<text transform="matrix(1 0 0 1 890.1661 65.0494)" class="st6 st0 st1">4</text>
	</g>
</g>
<g>
	<rect x="850.2" y="101.4" class="st9" width="100" height="100"/>
	<rect x="850.2" y="101.4" class="st4" width="100" height="100"/>
</g>
<g>
	<defs>
		<rect id="SVGID_9_" x="844.7" y="103.4" width="111" height="96"/>
	</defs>
	<clipPath id="SVGID_10_">
		<use xlink:href="#SVGID_9_"  style="overflow:visible;"/>
	</clipPath>
	<g class="st11">
		<text transform="matrix(1 0 0 1 890.1661 164.415)" class="st6 st0 st1">5</text>
	</g>
</g>
<g>
	<rect x="850.2" y="201.7" class="st9" width="100" height="100"/>
	<rect x="850.2" y="201.7" class="st4" width="100" height="100"/>
</g>
<g>
	<defs>
		<rect id="SVGID_11_" x="844.7" y="203.7" width="111" height="96"/>
	</defs>
	<clipPath id="SVGID_12_">
		<use xlink:href="#SVGID_11_"  style="overflow:visible;"/>
	</clipPath>
	<g class="st12">
		<text transform="matrix(1 0 0 1 890.1661 264.6821)" class="st6 st0 st1">6</text>
	</g>
</g>
<g>
	<rect x="950" y="2" class="st13" width="100" height="100"/>
	<rect x="950" y="2" class="st4" width="100" height="100"/>
</g>
<g>
	<defs>
		<rect id="SVGID_13_" x="944.5" y="4" width="111" height="96"/>
	</defs>
	<clipPath id="SVGID_14_">
		<use xlink:href="#SVGID_13_"  style="overflow:visible;"/>
	</clipPath>
	<g class="st14">
		<text transform="matrix(1 0 0 1 990.0029 65.0494)" class="st6 st0 st1">7</text>
	</g>
</g>
<g>
	<rect x="950" y="101.4" class="st13" width="100" height="100"/>
	<rect x="950" y="101.4" class="st4" width="100" height="100"/>
</g>
<g>
	<defs>
		<rect id="SVGID_15_" x="944.5" y="103.4" width="111" height="96"/>
	</defs>
	<clipPath id="SVGID_16_">
		<use xlink:href="#SVGID_15_"  style="overflow:visible;"/>
	</clipPath>
	<g class="st15">
		<text transform="matrix(1 0 0 1 990.0029 164.415)" class="st6 st0 st1">8</text>
	</g>
</g>
<g>
	<rect x="950" y="201.7" class="st13" width="100" height="100"/>
	<rect x="950" y="201.7" class="st4" width="100" height="100"/>
</g>
<g>
	<defs>
		<rect id="SVGID_17_" x="944.5" y="203.7" width="111" height="96"/>
	</defs>
	<clipPath id="SVGID_18_">
		<use xlink:href="#SVGID_17_"  style="overflow:visible;"/>
	</clipPath>
	<g class="st16">
		<text transform="matrix(1 0 0 1 990.0029 264.6821)" class="st6 st0 st1">9</text>
	</g>
</g>
<g>
	<rect x="450.6" y="493.6" class="st3" width="100" height="100"/>
	<rect x="450.6" y="493.6" class="st4" width="100" height="100"/>
</g>
<g>
	<defs>
		<rect id="SVGID_19_" x="444.6" y="495.6" width="111.8" height="96"/>
	</defs>
	<clipPath id="SVGID_20_">
		<use xlink:href="#SVGID_19_"  style="overflow:visible;"/>
	</clipPath>
	<g class="st17">
		<text transform="matrix(1 0 0 1 489.4326 558.7757)" class="st6 st18 st1">1</text>
	</g>
</g>
<g>
	<rect x="550.4" y="493.7" class="st3" width="100" height="100"/>
	<rect x="550.4" y="493.7" class="st4" width="100" height="100"/>
</g>
<g>
	<defs>
		<rect id="SVGID_21_" x="544.5" y="495.7" width="111.8" height="96"/>
	</defs>
	<clipPath id="SVGID_22_">
		<use xlink:href="#SVGID_21_"  style="overflow:visible;"/>
	</clipPath>
	<g class="st19">
		<text transform="matrix(1 0 0 1 589.2975 558.825)" class="st6 st18 st1">2</text>
	</g>
</g>
<g>
	<rect x="650.3" y="493.7" class="st3" width="100" height="100"/>
	<rect x="650.3" y="493.7" class="st4" width="100" height="100"/>
</g>
<g>
	<defs>
		<rect id="SVGID_23_" x="644.3" y="495.7" width="111.8" height="96"/>
	</defs>
	<clipPath id="SVGID_24_">
		<use xlink:href="#SVGID_23_"  style="overflow:visible;"/>
	</clipPath>
	<g class="st20">
		<text transform="matrix(1 0 0 1 689.1342 558.825)" class="st6 st18 st1">3</text>
	</g>
</g>
<g>
	<rect x="750.5" y="493.6" class="st9" width="100" height="100"/>
	<rect x="750.5" y="493.6" class="st4" width="100" height="100"/>
</g>
<g>
	<defs>
		<rect id="SVGID_25_" x="744.6" y="495.6" width="111.8" height="96"/>
	</defs>
	<clipPath id="SVGID_26_">
		<use xlink:href="#SVGID_25_"  style="overflow:visible;"/>
	</clipPath>
	<g class="st21">
		<text transform="matrix(1 0 0 1 789.3631 558.7264)" class="st6 st18 st1">4</text>
	</g>
</g>
<g>
	<rect x="850.3" y="493.6" class="st9" width="100" height="100"/>
	<rect x="850.3" y="493.6" class="st4" width="100" height="100"/>
</g>
<g>
	<defs>
		<rect id="SVGID_27_" x="844.4" y="495.6" width="111.8" height="96"/>
	</defs>
	<clipPath id="SVGID_28_">
		<use xlink:href="#SVGID_27_"  style="overflow:visible;"/>
	</clipPath>
	<g class="st22">
		<text transform="matrix(1 0 0 1 889.2281 558.7757)" class="st6 st18 st1">5</text>
	</g>
</g>
<g>
	<rect x="950.2" y="493.6" class="st9" width="100" height="100"/>
	<rect x="950.2" y="493.6" class="st4" width="100" height="100"/>
</g>
<g>
	<defs>
		<rect id="SVGID_29_" x="944.3" y="495.6" width="111.8" height="96"/>
	</defs>
	<clipPath id="SVGID_30_">
		<use xlink:href="#SVGID_29_"  style="overflow:visible;"/>
	</clipPath>
	<g class="st23">
		<text transform="matrix(1 0 0 1 989.0649 558.7757)" class="st6 st18 st1">6</text>
	</g>
</g>
<g>
	<rect x="1050.4" y="493.7" class="st13" width="100" height="100"/>
	<rect x="1050.4" y="493.7" class="st4" width="100" height="100"/>
</g>
<g>
	<defs>
		<rect id="SVGID_31_" x="1044.5" y="495.7" width="111.8" height="96"/>
	</defs>
	<clipPath id="SVGID_32_">
		<use xlink:href="#SVGID_31_"  style="overflow:visible;"/>
	</clipPath>
	<g class="st24">
		<text transform="matrix(1 0 0 1 1089.2939 558.825)" class="st6 st18 st1">7</text>
	</g>
</g>
<g>
	<rect x="1150.3" y="493.7" class="st13" width="100" height="100"/>
	<rect x="1150.3" y="493.7" class="st4" width="100" height="100"/>
</g>
<g>
	<defs>
		<rect id="SVGID_33_" x="1144.4" y="495.7" width="111.8" height="96"/>
	</defs>
	<clipPath id="SVGID_34_">
		<use xlink:href="#SVGID_33_"  style="overflow:visible;"/>
	</clipPath>
	<g class="st25">
		<text transform="matrix(1 0 0 1 1189.1589 558.8743)" class="st6 st18 st1">8</text>
	</g>
</g>
<g>
	<rect x="1250.1" y="493.7" class="st13" width="100" height="100"/>
	<rect x="1250.1" y="493.7" class="st4" width="100" height="100"/>
</g>
<g>
	<defs>
		<rect id="SVGID_35_" x="1244.2" y="495.7" width="111.8" height="96"/>
	</defs>
	<clipPath id="SVGID_36_">
		<use xlink:href="#SVGID_35_"  style="overflow:visible;"/>
	</clipPath>
	<g class="st26">
		<text transform="matrix(1 0 0 1 1288.9949 558.8743)" class="st6 st18 st1">9</text>
	</g>
</g>
<g>
	<rect x="350.3" y="493.6" class="st27" width="100" height="100"/>
	<rect x="350.3" y="493.6" class="st4" width="100" height="100"/>
	<rect x="250.5" y="493.6" class="st27" width="100" height="100"/>
	<rect x="250.5" y="493.6" class="st4" width="100" height="100"/>
	<rect x="1449.8" y="493.6" class="st27" width="100" height="100"/>
	<rect x="1449.8" y="493.6" class="st4" width="100" height="100"/>
	<rect x="1350" y="493.6" class="st27" width="100" height="100"/>
	<rect x="1350" y="493.6" class="st4" width="100" height="100"/>
	<line class="st4" x1="0" y1="493.5" x2="1800.3" y2="493.5"/>
	<line class="st4" x1="0" y1="593.7" x2="1800.3" y2="593.7"/>
</g>
</svg>
