<?xml version="1.0" encoding="utf-8"?>
<!-- Generator: Adobe Illustrator 24.1.0, SVG Export Plug-In . SVG Version: 6.00 Build 0)  -->
<svg version="1.1" id="Layer_1" xmlns="http://www.w3.org/2000/svg" xmlns:xlink="http://www.w3.org/1999/xlink" x="0px" y="0px"
	 viewBox="0 0 479.1 372.1" style="enable-background:new 0 0 479.1 372.1;" xml:space="preserve">
<style type="text/css">
	.st0{clip-path:url(#SVGID_2_);}
	.st1{clip-path:url(#SVGID_4_);fill:none;stroke:#785EF0;stroke-width:5;}
	.st2{clip-path:url(#SVGID_4_);fill:#785EF0;}
	.st3{clip-path:url(#SVGID_6_);}
	.st4{clip-path:url(#SVGID_8_);fill:none;stroke:#785EF0;stroke-width:5;}
	.st5{clip-path:url(#SVGID_8_);fill:#785EF0;}
	.st6{clip-path:url(#SVGID_10_);}
	.st7{clip-path:url(#SVGID_12_);fill:none;stroke:#785EF0;stroke-width:5;}
	.st8{clip-path:url(#SVGID_12_);fill:#785EF0;}
	.st9{clip-path:url(#SVGID_14_);fill:#FFFFFF;}
	.st10{clip-path:url(#SVGID_14_);fill:none;stroke:#000000;stroke-width:4;}
	.st11{clip-path:url(#SVGID_16_);}
	.st12{fill:#46403A;}
	.st13{font-family:'CMUSansSerif';}
	.st14{font-size:42px;}
	.st15{clip-path:url(#SVGID_18_);fill:#FFFFFF;}
	.st16{clip-path:url(#SVGID_18_);fill:none;stroke:#000000;stroke-width:4;}
	.st17{clip-path:url(#SVGID_20_);}
	.st18{clip-path:url(#SVGID_22_);fill:#FFFFFF;}
	.st19{clip-path:url(#SVGID_22_);fill:none;stroke:#000000;stroke-width:4;}
	.st20{clip-path:url(#SVGID_24_);}
	.st21{clip-path:url(#SVGID_26_);fill:#FFFFFF;}
	.st22{clip-path:url(#SVGID_26_);fill:none;stroke:#000000;stroke-width:4;}
	.st23{clip-path:url(#SVGID_28_);}
</style>
<g>
	<defs>
		
			<rect id="SVGID_1_" x="224.1" y="176.4" transform="matrix(0.5788 -0.8154 0.8154 0.5788 -10.9489 354.0801)" width="226.4" height="22.4"/>
	</defs>
	<clipPath id="SVGID_2_">
		<use xlink:href="#SVGID_1_"  style="overflow:visible;"/>
	</clipPath>
	<g class="st0">
		<defs>
			<rect id="SVGID_3_" x="-720.4" y="-354" width="1920" height="1080"/>
		</defs>
		<clipPath id="SVGID_4_">
			<use xlink:href="#SVGID_3_"  style="overflow:visible;"/>
		</clipPath>
		<polyline class="st1" points="402.3,96.1 284.2,262.5 282.7,264.5 		"/>
		<polygon class="st2" points="275.8,256.6 272.4,279.1 292.5,268.4 		"/>
	</g>
</g>
<g>
	<defs>
		
			<rect id="SVGID_5_" x="130.6" y="74.4" transform="matrix(0.8154 -0.5788 0.5788 0.8154 -82.4377 116.7258)" width="22.4" height="226.4"/>
	</defs>
	<clipPath id="SVGID_6_">
		<use xlink:href="#SVGID_5_"  style="overflow:visible;"/>
	</clipPath>
	<g class="st3">
		<defs>
			<rect id="SVGID_7_" x="-720.4" y="-354" width="1920" height="1080"/>
		</defs>
		<clipPath id="SVGID_8_">
			<use xlink:href="#SVGID_7_"  style="overflow:visible;"/>
		</clipPath>
		<polyline class="st4" points="76.9,96.1 195,262.5 196.4,264.5 		"/>
		<polygon class="st5" points="186.7,268.4 206.8,279.1 203.3,256.6 		"/>
	</g>
</g>
<g>
	<defs>
		<rect id="SVGID_9_" x="228.4" y="99.8" width="22.4" height="169.3"/>
	</defs>
	<clipPath id="SVGID_10_">
		<use xlink:href="#SVGID_9_"  style="overflow:visible;"/>
	</clipPath>
	<g class="st6">
		<defs>
			<rect id="SVGID_11_" x="-720.4" y="-354" width="1920" height="1080"/>
		</defs>
		<clipPath id="SVGID_12_">
			<use xlink:href="#SVGID_11_"  style="overflow:visible;"/>
		</clipPath>
		<polyline class="st7" points="239.6,100.8 239.6,247.7 239.6,250.2 		"/>
		<polygon class="st8" points="229.4,247.7 239.6,268.1 249.8,247.7 		"/>
	</g>
</g>
<g>
	<defs>
		<rect id="SVGID_13_" width="106" height="106"/>
	</defs>
	<clipPath id="SVGID_14_">
		<use xlink:href="#SVGID_13_"  style="overflow:visible;"/>
	</clipPath>
	<circle class="st9" cx="53" cy="53" r="50"/>
	<circle class="st10" cx="53" cy="53" r="50"/>
</g>
<g>
	<defs>
		<rect id="SVGID_15_" x="29.9" y="16.6" width="46.1" height="81.1"/>
	</defs>
	<clipPath id="SVGID_16_">
		<use xlink:href="#SVGID_15_"  style="overflow:visible;"/>
	</clipPath>
	<g class="st11">
		<text transform="matrix(1 0 0 1 42 66.8)" class="st12 st13 st14">1</text>
	</g>
</g>
<g>
	<defs>
		<rect id="SVGID_17_" x="186.6" width="106" height="106"/>
	</defs>
	<clipPath id="SVGID_18_">
		<use xlink:href="#SVGID_17_"  style="overflow:visible;"/>
	</clipPath>
	<circle class="st15" cx="239.6" cy="53" r="50"/>
	<circle class="st16" cx="239.6" cy="53" r="50"/>
</g>
<g>
	<defs>
		<rect id="SVGID_19_" x="216.5" y="16.6" width="46.1" height="81.1"/>
	</defs>
	<clipPath id="SVGID_20_">
		<use xlink:href="#SVGID_19_"  style="overflow:visible;"/>
	</clipPath>
	<g class="st17">
		<text transform="matrix(1 0 0 1 228.5668 66.8)" class="st12 st13 st14">2</text>
	</g>
</g>
<g>
	<defs>
		<rect id="SVGID_21_" x="373.1" width="106" height="106"/>
	</defs>
	<clipPath id="SVGID_22_">
		<use xlink:href="#SVGID_21_"  style="overflow:visible;"/>
	</clipPath>
	<path class="st18" d="M461.5,17.6c19.5,19.5,19.5,51.2,0,70.7c-19.5,19.5-51.2,19.5-70.7,0c-19.5-19.5-19.5-51.2,0-70.7
		C410.3-1.9,442-1.9,461.5,17.6z"/>
	<circle class="st19" cx="426.1" cy="53" r="50"/>
</g>
<g>
	<defs>
		<rect id="SVGID_23_" x="403.1" y="16.6" width="46.1" height="81.1"/>
	</defs>
	<clipPath id="SVGID_24_">
		<use xlink:href="#SVGID_23_"  style="overflow:visible;"/>
	</clipPath>
	<g class="st20">
		<text transform="matrix(1 0 0 1 415.1338 66.8)" class="st12 st13 st14">3</text>
	</g>
</g>
<g>
	<defs>
		<rect id="SVGID_25_" x="186.6" y="266.1" width="106" height="106"/>
	</defs>
	<clipPath id="SVGID_26_">
		<use xlink:href="#SVGID_25_"  style="overflow:visible;"/>
	</clipPath>
	<circle class="st21" cx="239.6" cy="319.1" r="50"/>
	<circle class="st22" cx="239.6" cy="319.1" r="50"/>
</g>
<g>
	<defs>
		<rect id="SVGID_27_" x="216.5" y="282.7" width="46.1" height="81.1"/>
	</defs>
	<clipPath id="SVGID_28_">
		<use xlink:href="#SVGID_27_"  style="overflow:visible;"/>
	</clipPath>
	<g class="st23">
		<text transform="matrix(1 0 0 1 228.5668 332.8751)" class="st12 st13 st14">0</text>
	</g>
</g>
</svg>
