<?xml version="1.0" encoding="utf-8"?>
<!-- Generator: Adobe Illustrator 24.1.0, SVG Export Plug-In . SVG Version: 6.00 Build 0)  -->
<svg version="1.1" id="Layer_1" xmlns="http://www.w3.org/2000/svg" xmlns:xlink="http://www.w3.org/1999/xlink" x="0px" y="0px"
	 viewBox="0 0 663.8 635.1" style="enable-background:new 0 0 663.8 635.1;" xml:space="preserve">
<style type="text/css">
	.st0{fill:none;stroke:#785EF0;stroke-width:5;}
	.st1{clip-path:url(#SVGID_2_);fill:#FFFFFF;}
	.st2{clip-path:url(#SVGID_2_);fill:none;stroke:#000000;stroke-width:4;}
	.st3{clip-path:url(#SVGID_4_);}
	.st4{fill:#46403A;}
	.st5{font-family:'CMUSansSerif';}
	.st6{font-size:42px;}
	.st7{clip-path:url(#SVGID_6_);fill:#FFFFFF;}
	.st8{clip-path:url(#SVGID_6_);fill:none;stroke:#000000;stroke-width:4;}
	.st9{clip-path:url(#SVGID_8_);}
	.st10{clip-path:url(#SVGID_10_);fill:#FFFFFF;}
	.st11{clip-path:url(#SVGID_10_);fill:none;stroke:#000000;stroke-width:4;}
	.st12{clip-path:url(#SVGID_12_);}
	.st13{clip-path:url(#SVGID_14_);fill:#FFFFFF;}
	.st14{clip-path:url(#SVGID_14_);fill:none;stroke:#000000;stroke-width:4;}
	.st15{clip-path:url(#SVGID_16_);}
	.st16{fill:#785EF0;}
</style>
<g>
	<ellipse class="st0" cx="333.4" cy="316" rx="280.9" ry="266.7"/>
</g>
<g>
	<defs>
		<rect id="SVGID_1_" y="263" width="106" height="106"/>
	</defs>
	<clipPath id="SVGID_2_">
		<use xlink:href="#SVGID_1_"  style="overflow:visible;"/>
	</clipPath>
	<circle class="st1" cx="53" cy="316" r="50"/>
	<circle class="st2" cx="53" cy="316" r="50"/>
</g>
<g>
	<defs>
		<rect id="SVGID_3_" x="29.9" y="279.6" width="46.1" height="81.1"/>
	</defs>
	<clipPath id="SVGID_4_">
		<use xlink:href="#SVGID_3_"  style="overflow:visible;"/>
	</clipPath>
	<g class="st3">
		<text transform="matrix(1 0 0 1 42 329.7973)" class="st4 st5 st6">0</text>
	</g>
</g>
<g>
	<defs>
		<rect id="SVGID_5_" x="280.4" width="106" height="106"/>
	</defs>
	<clipPath id="SVGID_6_">
		<use xlink:href="#SVGID_5_"  style="overflow:visible;"/>
	</clipPath>
	<circle class="st7" cx="333.4" cy="53" r="50"/>
	<circle class="st8" cx="333.4" cy="53" r="50"/>
</g>
<g>
	<defs>
		<rect id="SVGID_7_" x="310.4" y="16.6" width="46.1" height="81.1"/>
	</defs>
	<clipPath id="SVGID_8_">
		<use xlink:href="#SVGID_7_"  style="overflow:visible;"/>
	</clipPath>
	<g class="st9">
		<text transform="matrix(1 0 0 1 322.4334 66.8)" class="st4 st5 st6">1</text>
	</g>
</g>
<g>
	<defs>
		<rect id="SVGID_9_" x="557.8" y="263" width="106" height="106"/>
	</defs>
	<clipPath id="SVGID_10_">
		<use xlink:href="#SVGID_9_"  style="overflow:visible;"/>
	</clipPath>
	<path class="st10" d="M646.1,280.6c19.5,19.5,19.5,51.2,0,70.7c-19.5,19.5-51.2,19.5-70.7,0c-19.5-19.5-19.5-51.2,0-70.7
		S626.6,261.1,646.1,280.6z"/>
	<circle class="st11" cx="610.8" cy="316" r="50"/>
</g>
<g>
	<defs>
		<rect id="SVGID_11_" x="587.7" y="279.6" width="46.1" height="81.1"/>
	</defs>
	<clipPath id="SVGID_12_">
		<use xlink:href="#SVGID_11_"  style="overflow:visible;"/>
	</clipPath>
	<g class="st12">
		<text transform="matrix(1 0 0 1 599.7654 329.7973)" class="st4 st5 st6">2</text>
	</g>
</g>
<g>
	<defs>
		<rect id="SVGID_13_" x="280.4" y="529.1" width="106" height="106"/>
	</defs>
	<clipPath id="SVGID_14_">
		<use xlink:href="#SVGID_13_"  style="overflow:visible;"/>
	</clipPath>
	<circle class="st13" cx="333.4" cy="582.1" r="50"/>
	<circle class="st14" cx="333.4" cy="582.1" r="50"/>
</g>
<g>
	<defs>
		<rect id="SVGID_15_" x="310.4" y="545.7" width="46.1" height="81.1"/>
	</defs>
	<clipPath id="SVGID_16_">
		<use xlink:href="#SVGID_15_"  style="overflow:visible;"/>
	</clipPath>
	<g class="st15">
		<text transform="matrix(1 0 0 1 322.4334 595.8723)" class="st4 st5 st6">3</text>
	</g>
</g>
<g>
	<polyline class="st0" points="253.3,60.4 264.6,57.6 267,57 	"/>
	<polygon class="st16" points="267.1,67.5 284.4,52.6 262.1,47.7 	"/>
	<polyline class="st0" points="603.7,243 605,247.9 605.6,250.3 	"/>
	<polygon class="st16" points="595.1,250.4 610,267.6 614.8,245.3 	"/>
	<polyline class="st0" points="407.3,573.5 401.3,574.9 398.9,575.4 	"/>
	<polygon class="st16" points="399.1,564.9 381.4,579.3 403.6,584.8 	"/>
	<polyline class="st0" points="63.2,388.8 62.1,384.5 61.4,382.1 	"/>
	<polygon class="st16" points="71.9,381.9 57,364.7 52.2,387 	"/>
</g>
</svg>
