<?xml version="1.0" encoding="utf-8"?>
<svg xmlns="http://www.w3.org/2000/svg" xmlns:xlink="http://www.w3.org/1999/xlink" width="600" height="400" viewBox="0 0 2400 1600">
<defs>
  <clipPath id="clip510">
    <rect x="0" y="0" width="2400" height="1600"/>
  </clipPath>
</defs>
<path clip-path="url(#clip510)" d="
M0 1600 L2400 1600 L2400 0 L0 0  Z
  " fill="#ffffff" fill-rule="evenodd" fill-opacity="1"/>
<defs>
  <clipPath id="clip511">
    <rect x="480" y="0" width="1681" height="1600"/>
  </clipPath>
</defs>
<path clip-path="url(#clip510)" d="
M249.542 1423.18 L2352.76 1423.18 L2352.76 47.2441 L249.542 47.2441  Z
  " fill="#ffffff" fill-rule="evenodd" fill-opacity="1"/>
<defs>
  <clipPath id="clip512">
    <rect x="249" y="47" width="2104" height="1377"/>
  </clipPath>
</defs>
<polyline clip-path="url(#clip512)" style="stroke:#000000; stroke-linecap:butt; stroke-linejoin:round; stroke-width:2; stroke-opacity:0.1; fill:none" points="
  309.067,1423.18 309.067,47.2441 
  "/>
<polyline clip-path="url(#clip512)" style="stroke:#000000; stroke-linecap:butt; stroke-linejoin:round; stroke-width:2; stroke-opacity:0.1; fill:none" points="
  805.108,1423.18 805.108,47.2441 
  "/>
<polyline clip-path="url(#clip512)" style="stroke:#000000; stroke-linecap:butt; stroke-linejoin:round; stroke-width:2; stroke-opacity:0.1; fill:none" points="
  1301.15,1423.18 1301.15,47.2441 
  "/>
<polyline clip-path="url(#clip512)" style="stroke:#000000; stroke-linecap:butt; stroke-linejoin:round; stroke-width:2; stroke-opacity:0.1; fill:none" points="
  1797.19,1423.18 1797.19,47.2441 
  "/>
<polyline clip-path="url(#clip512)" style="stroke:#000000; stroke-linecap:butt; stroke-linejoin:round; stroke-width:2; stroke-opacity:0.1; fill:none" points="
  2293.23,1423.18 2293.23,47.2441 
  "/>
<polyline clip-path="url(#clip510)" style="stroke:#000000; stroke-linecap:butt; stroke-linejoin:round; stroke-width:4; stroke-opacity:1; fill:none" points="
  249.542,1423.18 2352.76,1423.18 
  "/>
<polyline clip-path="url(#clip510)" style="stroke:#000000; stroke-linecap:butt; stroke-linejoin:round; stroke-width:4; stroke-opacity:1; fill:none" points="
  309.067,1423.18 309.067,1404.28 
  "/>
<polyline clip-path="url(#clip510)" style="stroke:#000000; stroke-linecap:butt; stroke-linejoin:round; stroke-width:4; stroke-opacity:1; fill:none" points="
  805.108,1423.18 805.108,1404.28 
  "/>
<polyline clip-path="url(#clip510)" style="stroke:#000000; stroke-linecap:butt; stroke-linejoin:round; stroke-width:4; stroke-opacity:1; fill:none" points="
  1301.15,1423.18 1301.15,1404.28 
  "/>
<polyline clip-path="url(#clip510)" style="stroke:#000000; stroke-linecap:butt; stroke-linejoin:round; stroke-width:4; stroke-opacity:1; fill:none" points="
  1797.19,1423.18 1797.19,1404.28 
  "/>
<polyline clip-path="url(#clip510)" style="stroke:#000000; stroke-linecap:butt; stroke-linejoin:round; stroke-width:4; stroke-opacity:1; fill:none" points="
  2293.23,1423.18 2293.23,1404.28 
  "/>
<path clip-path="url(#clip510)" d="M271.37 1454.1 Q267.759 1454.1 265.931 1457.66 Q264.125 1461.2 264.125 1468.33 Q264.125 1475.44 265.931 1479.01 Q267.759 1482.55 271.37 1482.55 Q275.005 1482.55 276.81 1479.01 Q278.639 1475.44 278.639 1468.33 Q278.639 1461.2 276.81 1457.66 Q275.005 1454.1 271.37 1454.1 M271.37 1450.39 Q277.181 1450.39 280.236 1455 Q283.315 1459.58 283.315 1468.33 Q283.315 1477.06 280.236 1481.67 Q277.181 1486.25 271.37 1486.25 Q265.56 1486.25 262.482 1481.67 Q259.426 1477.06 259.426 1468.33 Q259.426 1459.58 262.482 1455 Q265.56 1450.39 271.37 1450.39 Z" fill="#000000" fill-rule="evenodd" fill-opacity="1" /><path clip-path="url(#clip510)" d="M291.532 1479.7 L296.417 1479.7 L296.417 1485.58 L291.532 1485.58 L291.532 1479.7 Z" fill="#000000" fill-rule="evenodd" fill-opacity="1" /><path clip-path="url(#clip510)" d="M316.602 1454.1 Q312.991 1454.1 311.162 1457.66 Q309.356 1461.2 309.356 1468.33 Q309.356 1475.44 311.162 1479.01 Q312.991 1482.55 316.602 1482.55 Q320.236 1482.55 322.041 1479.01 Q323.87 1475.44 323.87 1468.33 Q323.87 1461.2 322.041 1457.66 Q320.236 1454.1 316.602 1454.1 M316.602 1450.39 Q322.412 1450.39 325.467 1455 Q328.546 1459.58 328.546 1468.33 Q328.546 1477.06 325.467 1481.67 Q322.412 1486.25 316.602 1486.25 Q310.791 1486.25 307.713 1481.67 Q304.657 1477.06 304.657 1468.33 Q304.657 1459.58 307.713 1455 Q310.791 1450.39 316.602 1450.39 Z" fill="#000000" fill-rule="evenodd" fill-opacity="1" /><path clip-path="url(#clip510)" d="M346.764 1454.1 Q343.152 1454.1 341.324 1457.66 Q339.518 1461.2 339.518 1468.33 Q339.518 1475.44 341.324 1479.01 Q343.152 1482.55 346.764 1482.55 Q350.398 1482.55 352.203 1479.01 Q354.032 1475.44 354.032 1468.33 Q354.032 1461.2 352.203 1457.66 Q350.398 1454.1 346.764 1454.1 M346.764 1450.39 Q352.574 1450.39 355.629 1455 Q358.708 1459.58 358.708 1468.33 Q358.708 1477.06 355.629 1481.67 Q352.574 1486.25 346.764 1486.25 Q340.953 1486.25 337.875 1481.67 Q334.819 1477.06 334.819 1468.33 Q334.819 1459.58 337.875 1455 Q340.953 1450.39 346.764 1450.39 Z" fill="#000000" fill-rule="evenodd" fill-opacity="1" /><path clip-path="url(#clip510)" d="M767.909 1454.1 Q764.298 1454.1 762.469 1457.66 Q760.664 1461.2 760.664 1468.33 Q760.664 1475.44 762.469 1479.01 Q764.298 1482.55 767.909 1482.55 Q771.543 1482.55 773.349 1479.01 Q775.178 1475.44 775.178 1468.33 Q775.178 1461.2 773.349 1457.66 Q771.543 1454.1 767.909 1454.1 M767.909 1450.39 Q773.719 1450.39 776.775 1455 Q779.853 1459.58 779.853 1468.33 Q779.853 1477.06 776.775 1481.67 Q773.719 1486.25 767.909 1486.25 Q762.099 1486.25 759.02 1481.67 Q755.965 1477.06 755.965 1468.33 Q755.965 1459.58 759.02 1455 Q762.099 1450.39 767.909 1450.39 Z" fill="#000000" fill-rule="evenodd" fill-opacity="1" /><path clip-path="url(#clip510)" d="M788.071 1479.7 L792.955 1479.7 L792.955 1485.58 L788.071 1485.58 L788.071 1479.7 Z" fill="#000000" fill-rule="evenodd" fill-opacity="1" /><path clip-path="url(#clip510)" d="M807.168 1481.64 L823.487 1481.64 L823.487 1485.58 L801.543 1485.58 L801.543 1481.64 Q804.205 1478.89 808.788 1474.26 Q813.395 1469.61 814.576 1468.27 Q816.821 1465.74 817.7 1464.01 Q818.603 1462.25 818.603 1460.56 Q818.603 1457.8 816.659 1456.07 Q814.738 1454.33 811.636 1454.33 Q809.437 1454.33 806.983 1455.09 Q804.552 1455.86 801.775 1457.41 L801.775 1452.69 Q804.599 1451.55 807.052 1450.97 Q809.506 1450.39 811.543 1450.39 Q816.913 1450.39 820.108 1453.08 Q823.302 1455.77 823.302 1460.26 Q823.302 1462.39 822.492 1464.31 Q821.705 1466.2 819.599 1468.8 Q819.02 1469.47 815.918 1472.69 Q812.816 1475.88 807.168 1481.64 Z" fill="#000000" fill-rule="evenodd" fill-opacity="1" /><path clip-path="url(#clip510)" d="M833.349 1451.02 L851.705 1451.02 L851.705 1454.96 L837.631 1454.96 L837.631 1463.43 Q838.649 1463.08 839.668 1462.92 Q840.686 1462.73 841.705 1462.73 Q847.492 1462.73 850.872 1465.9 Q854.251 1469.08 854.251 1474.49 Q854.251 1480.07 850.779 1483.17 Q847.307 1486.25 840.987 1486.25 Q838.811 1486.25 836.543 1485.88 Q834.298 1485.51 831.89 1484.77 L831.89 1480.07 Q833.974 1481.2 836.196 1481.76 Q838.418 1482.32 840.895 1482.32 Q844.899 1482.32 847.237 1480.21 Q849.575 1478.1 849.575 1474.49 Q849.575 1470.88 847.237 1468.77 Q844.899 1466.67 840.895 1466.67 Q839.02 1466.67 837.145 1467.08 Q835.293 1467.5 833.349 1468.38 L833.349 1451.02 Z" fill="#000000" fill-rule="evenodd" fill-opacity="1" /><path clip-path="url(#clip510)" d="M1263.45 1454.1 Q1259.84 1454.1 1258.01 1457.66 Q1256.21 1461.2 1256.21 1468.33 Q1256.21 1475.44 1258.01 1479.01 Q1259.84 1482.55 1263.45 1482.55 Q1267.09 1482.55 1268.89 1479.01 Q1270.72 1475.44 1270.72 1468.33 Q1270.72 1461.2 1268.89 1457.66 Q1267.09 1454.1 1263.45 1454.1 M1263.45 1450.39 Q1269.26 1450.39 1272.32 1455 Q1275.4 1459.58 1275.4 1468.33 Q1275.4 1477.06 1272.32 1481.67 Q1269.26 1486.25 1263.45 1486.25 Q1257.64 1486.25 1254.56 1481.67 Q1251.51 1477.06 1251.51 1468.33 Q1251.51 1459.58 1254.56 1455 Q1257.64 1450.39 1263.45 1450.39 Z" fill="#000000" fill-rule="evenodd" fill-opacity="1" /><path clip-path="url(#clip510)" d="M1283.61 1479.7 L1288.5 1479.7 L1288.5 1485.58 L1283.61 1485.58 L1283.61 1479.7 Z" fill="#000000" fill-rule="evenodd" fill-opacity="1" /><path clip-path="url(#clip510)" d="M1298.73 1451.02 L1317.09 1451.02 L1317.09 1454.96 L1303.01 1454.96 L1303.01 1463.43 Q1304.03 1463.08 1305.05 1462.92 Q1306.07 1462.73 1307.09 1462.73 Q1312.87 1462.73 1316.25 1465.9 Q1319.63 1469.08 1319.63 1474.49 Q1319.63 1480.07 1316.16 1483.17 Q1312.69 1486.25 1306.37 1486.25 Q1304.19 1486.25 1301.92 1485.88 Q1299.68 1485.51 1297.27 1484.77 L1297.27 1480.07 Q1299.35 1481.2 1301.58 1481.76 Q1303.8 1482.32 1306.28 1482.32 Q1310.28 1482.32 1312.62 1480.21 Q1314.96 1478.1 1314.96 1474.49 Q1314.96 1470.88 1312.62 1468.77 Q1310.28 1466.67 1306.28 1466.67 Q1304.4 1466.67 1302.53 1467.08 Q1300.67 1467.5 1298.73 1468.38 L1298.73 1451.02 Z" fill="#000000" fill-rule="evenodd" fill-opacity="1" /><path clip-path="url(#clip510)" d="M1338.85 1454.1 Q1335.23 1454.1 1333.41 1457.66 Q1331.6 1461.2 1331.6 1468.33 Q1331.6 1475.44 1333.41 1479.01 Q1335.23 1482.55 1338.85 1482.55 Q1342.48 1482.55 1344.29 1479.01 Q1346.11 1475.44 1346.11 1468.33 Q1346.11 1461.2 1344.29 1457.66 Q1342.48 1454.1 1338.85 1454.1 M1338.85 1450.39 Q1344.66 1450.39 1347.71 1455 Q1350.79 1459.58 1350.79 1468.33 Q1350.79 1477.06 1347.71 1481.67 Q1344.66 1486.25 1338.85 1486.25 Q1333.04 1486.25 1329.96 1481.67 Q1326.9 1477.06 1326.9 1468.33 Q1326.9 1459.58 1329.96 1455 Q1333.04 1450.39 1338.85 1450.39 Z" fill="#000000" fill-rule="evenodd" fill-opacity="1" /><path clip-path="url(#clip510)" d="M1759.99 1454.1 Q1756.38 1454.1 1754.55 1457.66 Q1752.75 1461.2 1752.75 1468.33 Q1752.75 1475.44 1754.55 1479.01 Q1756.38 1482.55 1759.99 1482.55 Q1763.63 1482.55 1765.43 1479.01 Q1767.26 1475.44 1767.26 1468.33 Q1767.26 1461.2 1765.43 1457.66 Q1763.63 1454.1 1759.99 1454.1 M1759.99 1450.39 Q1765.8 1450.39 1768.86 1455 Q1771.94 1459.58 1771.94 1468.33 Q1771.94 1477.06 1768.86 1481.67 Q1765.8 1486.25 1759.99 1486.25 Q1754.18 1486.25 1751.1 1481.67 Q1748.05 1477.06 1748.05 1468.33 Q1748.05 1459.58 1751.1 1455 Q1754.18 1450.39 1759.99 1450.39 Z" fill="#000000" fill-rule="evenodd" fill-opacity="1" /><path clip-path="url(#clip510)" d="M1780.15 1479.7 L1785.04 1479.7 L1785.04 1485.58 L1780.15 1485.58 L1780.15 1479.7 Z" fill="#000000" fill-rule="evenodd" fill-opacity="1" /><path clip-path="url(#clip510)" d="M1794.04 1451.02 L1816.26 1451.02 L1816.26 1453.01 L1803.72 1485.58 L1798.83 1485.58 L1810.64 1454.96 L1794.04 1454.96 L1794.04 1451.02 Z" fill="#000000" fill-rule="evenodd" fill-opacity="1" /><path clip-path="url(#clip510)" d="M1825.43 1451.02 L1843.79 1451.02 L1843.79 1454.96 L1829.71 1454.96 L1829.71 1463.43 Q1830.73 1463.08 1831.75 1462.92 Q1832.77 1462.73 1833.79 1462.73 Q1839.57 1462.73 1842.95 1465.9 Q1846.33 1469.08 1846.33 1474.49 Q1846.33 1480.07 1842.86 1483.17 Q1839.39 1486.25 1833.07 1486.25 Q1830.89 1486.25 1828.62 1485.88 Q1826.38 1485.51 1823.97 1484.77 L1823.97 1480.07 Q1826.06 1481.2 1828.28 1481.76 Q1830.5 1482.32 1832.98 1482.32 Q1836.98 1482.32 1839.32 1480.21 Q1841.66 1478.1 1841.66 1474.49 Q1841.66 1470.88 1839.32 1468.77 Q1836.98 1466.67 1832.98 1466.67 Q1831.1 1466.67 1829.23 1467.08 Q1827.38 1467.5 1825.43 1468.38 L1825.43 1451.02 Z" fill="#000000" fill-rule="evenodd" fill-opacity="1" /><path clip-path="url(#clip510)" d="M2245.3 1481.64 L2252.94 1481.64 L2252.94 1455.28 L2244.63 1456.95 L2244.63 1452.69 L2252.9 1451.02 L2257.57 1451.02 L2257.57 1481.64 L2265.21 1481.64 L2265.21 1485.58 L2245.3 1485.58 L2245.3 1481.64 Z" fill="#000000" fill-rule="evenodd" fill-opacity="1" /><path clip-path="url(#clip510)" d="M2274.65 1479.7 L2279.54 1479.7 L2279.54 1485.58 L2274.65 1485.58 L2274.65 1479.7 Z" fill="#000000" fill-rule="evenodd" fill-opacity="1" /><path clip-path="url(#clip510)" d="M2299.72 1454.1 Q2296.11 1454.1 2294.28 1457.66 Q2292.48 1461.2 2292.48 1468.33 Q2292.48 1475.44 2294.28 1479.01 Q2296.11 1482.55 2299.72 1482.55 Q2303.36 1482.55 2305.16 1479.01 Q2306.99 1475.44 2306.99 1468.33 Q2306.99 1461.2 2305.16 1457.66 Q2303.36 1454.1 2299.72 1454.1 M2299.72 1450.39 Q2305.53 1450.39 2308.59 1455 Q2311.67 1459.58 2311.67 1468.33 Q2311.67 1477.06 2308.59 1481.67 Q2305.53 1486.25 2299.72 1486.25 Q2293.91 1486.25 2290.84 1481.67 Q2287.78 1477.06 2287.78 1468.33 Q2287.78 1459.58 2290.84 1455 Q2293.91 1450.39 2299.72 1450.39 Z" fill="#000000" fill-rule="evenodd" fill-opacity="1" /><path clip-path="url(#clip510)" d="M2329.89 1454.1 Q2326.27 1454.1 2324.45 1457.66 Q2322.64 1461.2 2322.64 1468.33 Q2322.64 1475.44 2324.45 1479.01 Q2326.27 1482.55 2329.89 1482.55 Q2333.52 1482.55 2335.33 1479.01 Q2337.15 1475.44 2337.15 1468.33 Q2337.15 1461.2 2335.33 1457.66 Q2333.52 1454.1 2329.89 1454.1 M2329.89 1450.39 Q2335.7 1450.39 2338.75 1455 Q2341.83 1459.58 2341.83 1468.33 Q2341.83 1477.06 2338.75 1481.67 Q2335.7 1486.25 2329.89 1486.25 Q2324.08 1486.25 2321 1481.67 Q2317.94 1477.06 2317.94 1468.33 Q2317.94 1459.58 2321 1455 Q2324.08 1450.39 2329.89 1450.39 Z" fill="#000000" fill-rule="evenodd" fill-opacity="1" /><path clip-path="url(#clip510)" d="M1300.21 1522.27 L1300.21 1532.4 L1312.27 1532.4 L1312.27 1536.95 L1300.21 1536.95 L1300.21 1556.3 Q1300.21 1560.66 1301.39 1561.9 Q1302.6 1563.14 1306.26 1563.14 L1312.27 1563.14 L1312.27 1568.04 L1306.26 1568.04 Q1299.48 1568.04 1296.9 1565.53 Q1294.32 1562.98 1294.32 1556.3 L1294.32 1536.95 L1290.02 1536.95 L1290.02 1532.4 L1294.32 1532.4 L1294.32 1522.27 L1300.21 1522.27 Z" fill="#000000" fill-rule="evenodd" fill-opacity="1" /><polyline clip-path="url(#clip512)" style="stroke:#000000; stroke-linecap:butt; stroke-linejoin:round; stroke-width:2; stroke-opacity:0.1; fill:none" points="
  249.542,1375.57 2352.76,1375.57 
  "/>
<polyline clip-path="url(#clip512)" style="stroke:#000000; stroke-linecap:butt; stroke-linejoin:round; stroke-width:2; stroke-opacity:0.1; fill:none" points="
  249.542,1082.53 2352.76,1082.53 
  "/>
<polyline clip-path="url(#clip512)" style="stroke:#000000; stroke-linecap:butt; stroke-linejoin:round; stroke-width:2; stroke-opacity:0.1; fill:none" points="
  249.542,789.486 2352.76,789.486 
  "/>
<polyline clip-path="url(#clip512)" style="stroke:#000000; stroke-linecap:butt; stroke-linejoin:round; stroke-width:2; stroke-opacity:0.1; fill:none" points="
  249.542,496.444 2352.76,496.444 
  "/>
<polyline clip-path="url(#clip512)" style="stroke:#000000; stroke-linecap:butt; stroke-linejoin:round; stroke-width:2; stroke-opacity:0.1; fill:none" points="
  249.542,203.402 2352.76,203.402 
  "/>
<polyline clip-path="url(#clip510)" style="stroke:#000000; stroke-linecap:butt; stroke-linejoin:round; stroke-width:4; stroke-opacity:1; fill:none" points="
  249.542,1423.18 249.542,47.2441 
  "/>
<polyline clip-path="url(#clip510)" style="stroke:#000000; stroke-linecap:butt; stroke-linejoin:round; stroke-width:4; stroke-opacity:1; fill:none" points="
  249.542,1375.57 268.44,1375.57 
  "/>
<polyline clip-path="url(#clip510)" style="stroke:#000000; stroke-linecap:butt; stroke-linejoin:round; stroke-width:4; stroke-opacity:1; fill:none" points="
  249.542,1082.53 268.44,1082.53 
  "/>
<polyline clip-path="url(#clip510)" style="stroke:#000000; stroke-linecap:butt; stroke-linejoin:round; stroke-width:4; stroke-opacity:1; fill:none" points="
  249.542,789.486 268.44,789.486 
  "/>
<polyline clip-path="url(#clip510)" style="stroke:#000000; stroke-linecap:butt; stroke-linejoin:round; stroke-width:4; stroke-opacity:1; fill:none" points="
  249.542,496.444 268.44,496.444 
  "/>
<polyline clip-path="url(#clip510)" style="stroke:#000000; stroke-linecap:butt; stroke-linejoin:round; stroke-width:4; stroke-opacity:1; fill:none" points="
  249.542,203.402 268.44,203.402 
  "/>
<path clip-path="url(#clip510)" d="M126.205 1361.37 Q122.593 1361.37 120.765 1364.93 Q118.959 1368.48 118.959 1375.6 Q118.959 1382.71 120.765 1386.28 Q122.593 1389.82 126.205 1389.82 Q129.839 1389.82 131.644 1386.28 Q133.473 1382.71 133.473 1375.6 Q133.473 1368.48 131.644 1364.93 Q129.839 1361.37 126.205 1361.37 M126.205 1357.67 Q132.015 1357.67 135.07 1362.27 Q138.149 1366.85 138.149 1375.6 Q138.149 1384.33 135.07 1388.94 Q132.015 1393.52 126.205 1393.52 Q120.394 1393.52 117.316 1388.94 Q114.26 1384.33 114.26 1375.6 Q114.26 1366.85 117.316 1362.27 Q120.394 1357.67 126.205 1357.67 Z" fill="#000000" fill-rule="evenodd" fill-opacity="1" /><path clip-path="url(#clip510)" d="M146.366 1386.97 L151.251 1386.97 L151.251 1392.85 L146.366 1392.85 L146.366 1386.97 Z" fill="#000000" fill-rule="evenodd" fill-opacity="1" /><path clip-path="url(#clip510)" d="M171.436 1361.37 Q167.825 1361.37 165.996 1364.93 Q164.19 1368.48 164.19 1375.6 Q164.19 1382.71 165.996 1386.28 Q167.825 1389.82 171.436 1389.82 Q175.07 1389.82 176.876 1386.28 Q178.704 1382.71 178.704 1375.6 Q178.704 1368.48 176.876 1364.93 Q175.07 1361.37 171.436 1361.37 M171.436 1357.67 Q177.246 1357.67 180.301 1362.27 Q183.38 1366.85 183.38 1375.6 Q183.38 1384.33 180.301 1388.94 Q177.246 1393.52 171.436 1393.52 Q165.626 1393.52 162.547 1388.94 Q159.491 1384.33 159.491 1375.6 Q159.491 1366.85 162.547 1362.27 Q165.626 1357.67 171.436 1357.67 Z" fill="#000000" fill-rule="evenodd" fill-opacity="1" /><path clip-path="url(#clip510)" d="M201.598 1361.37 Q197.987 1361.37 196.158 1364.93 Q194.352 1368.48 194.352 1375.6 Q194.352 1382.71 196.158 1386.28 Q197.987 1389.82 201.598 1389.82 Q205.232 1389.82 207.037 1386.28 Q208.866 1382.71 208.866 1375.6 Q208.866 1368.48 207.037 1364.93 Q205.232 1361.37 201.598 1361.37 M201.598 1357.67 Q207.408 1357.67 210.463 1362.27 Q213.542 1366.85 213.542 1375.6 Q213.542 1384.33 210.463 1388.94 Q207.408 1393.52 201.598 1393.52 Q195.787 1393.52 192.709 1388.94 Q189.653 1384.33 189.653 1375.6 Q189.653 1366.85 192.709 1362.27 Q195.787 1357.67 201.598 1357.67 Z" fill="#000000" fill-rule="evenodd" fill-opacity="1" /><path clip-path="url(#clip510)" d="M127.2 1068.33 Q123.589 1068.33 121.76 1071.89 Q119.955 1075.43 119.955 1082.56 Q119.955 1089.67 121.76 1093.23 Q123.589 1096.78 127.2 1096.78 Q130.834 1096.78 132.64 1093.23 Q134.468 1089.67 134.468 1082.56 Q134.468 1075.43 132.64 1071.89 Q130.834 1068.33 127.2 1068.33 M127.2 1064.62 Q133.01 1064.62 136.066 1069.23 Q139.144 1073.81 139.144 1082.56 Q139.144 1091.29 136.066 1095.9 Q133.01 1100.48 127.2 1100.48 Q121.39 1100.48 118.311 1095.9 Q115.256 1091.29 115.256 1082.56 Q115.256 1073.81 118.311 1069.23 Q121.39 1064.62 127.2 1064.62 Z" fill="#000000" fill-rule="evenodd" fill-opacity="1" /><path clip-path="url(#clip510)" d="M147.362 1093.93 L152.246 1093.93 L152.246 1099.81 L147.362 1099.81 L147.362 1093.93 Z" fill="#000000" fill-rule="evenodd" fill-opacity="1" /><path clip-path="url(#clip510)" d="M166.459 1095.87 L182.778 1095.87 L182.778 1099.81 L160.834 1099.81 L160.834 1095.87 Q163.496 1093.12 168.079 1088.49 Q172.686 1083.84 173.866 1082.49 Q176.112 1079.97 176.991 1078.23 Q177.894 1076.47 177.894 1074.79 Q177.894 1072.03 175.95 1070.29 Q174.028 1068.56 170.927 1068.56 Q168.727 1068.56 166.274 1069.32 Q163.843 1070.09 161.065 1071.64 L161.065 1066.91 Q163.89 1065.78 166.343 1065.2 Q168.797 1064.62 170.834 1064.62 Q176.204 1064.62 179.399 1067.31 Q182.593 1069.99 182.593 1074.48 Q182.593 1076.61 181.783 1078.54 Q180.996 1080.43 178.889 1083.03 Q178.311 1083.7 175.209 1086.91 Q172.107 1090.11 166.459 1095.87 Z" fill="#000000" fill-rule="evenodd" fill-opacity="1" /><path clip-path="url(#clip510)" d="M192.639 1065.25 L210.996 1065.25 L210.996 1069.18 L196.922 1069.18 L196.922 1077.66 Q197.94 1077.31 198.959 1077.15 Q199.977 1076.96 200.996 1076.96 Q206.783 1076.96 210.162 1080.13 Q213.542 1083.3 213.542 1088.72 Q213.542 1094.3 210.07 1097.4 Q206.598 1100.48 200.278 1100.48 Q198.102 1100.48 195.834 1100.11 Q193.588 1099.74 191.181 1099 L191.181 1094.3 Q193.264 1095.43 195.487 1095.99 Q197.709 1096.54 200.186 1096.54 Q204.19 1096.54 206.528 1094.44 Q208.866 1092.33 208.866 1088.72 Q208.866 1085.11 206.528 1083 Q204.19 1080.9 200.186 1080.9 Q198.311 1080.9 196.436 1081.31 Q194.584 1081.73 192.639 1082.61 L192.639 1065.25 Z" fill="#000000" fill-rule="evenodd" fill-opacity="1" /><path clip-path="url(#clip510)" d="M126.205 775.285 Q122.593 775.285 120.765 778.85 Q118.959 782.391 118.959 789.521 Q118.959 796.627 120.765 800.192 Q122.593 803.734 126.205 803.734 Q129.839 803.734 131.644 800.192 Q133.473 796.627 133.473 789.521 Q133.473 782.391 131.644 778.85 Q129.839 775.285 126.205 775.285 M126.205 771.581 Q132.015 771.581 135.07 776.188 Q138.149 780.771 138.149 789.521 Q138.149 798.248 135.07 802.854 Q132.015 807.438 126.205 807.438 Q120.394 807.438 117.316 802.854 Q114.26 798.248 114.26 789.521 Q114.26 780.771 117.316 776.188 Q120.394 771.581 126.205 771.581 Z" fill="#000000" fill-rule="evenodd" fill-opacity="1" /><path clip-path="url(#clip510)" d="M146.366 800.887 L151.251 800.887 L151.251 806.766 L146.366 806.766 L146.366 800.887 Z" fill="#000000" fill-rule="evenodd" fill-opacity="1" /><path clip-path="url(#clip510)" d="M161.482 772.206 L179.839 772.206 L179.839 776.141 L165.765 776.141 L165.765 784.614 Q166.783 784.266 167.802 784.104 Q168.82 783.919 169.839 783.919 Q175.626 783.919 179.005 787.09 Q182.385 790.262 182.385 795.678 Q182.385 801.257 178.913 804.359 Q175.44 807.438 169.121 807.438 Q166.945 807.438 164.677 807.067 Q162.431 806.697 160.024 805.956 L160.024 801.257 Q162.107 802.391 164.329 802.947 Q166.552 803.502 169.028 803.502 Q173.033 803.502 175.371 801.396 Q177.709 799.289 177.709 795.678 Q177.709 792.067 175.371 789.961 Q173.033 787.854 169.028 787.854 Q167.153 787.854 165.278 788.271 Q163.427 788.688 161.482 789.567 L161.482 772.206 Z" fill="#000000" fill-rule="evenodd" fill-opacity="1" /><path clip-path="url(#clip510)" d="M201.598 775.285 Q197.987 775.285 196.158 778.85 Q194.352 782.391 194.352 789.521 Q194.352 796.627 196.158 800.192 Q197.987 803.734 201.598 803.734 Q205.232 803.734 207.037 800.192 Q208.866 796.627 208.866 789.521 Q208.866 782.391 207.037 778.85 Q205.232 775.285 201.598 775.285 M201.598 771.581 Q207.408 771.581 210.463 776.188 Q213.542 780.771 213.542 789.521 Q213.542 798.248 210.463 802.854 Q207.408 807.438 201.598 807.438 Q195.787 807.438 192.709 802.854 Q189.653 798.248 189.653 789.521 Q189.653 780.771 192.709 776.188 Q195.787 771.581 201.598 771.581 Z" fill="#000000" fill-rule="evenodd" fill-opacity="1" /><path clip-path="url(#clip510)" d="M127.2 482.243 Q123.589 482.243 121.76 485.808 Q119.955 489.349 119.955 496.479 Q119.955 503.585 121.76 507.15 Q123.589 510.692 127.2 510.692 Q130.834 510.692 132.64 507.15 Q134.468 503.585 134.468 496.479 Q134.468 489.349 132.64 485.808 Q130.834 482.243 127.2 482.243 M127.2 478.539 Q133.01 478.539 136.066 483.146 Q139.144 487.729 139.144 496.479 Q139.144 505.206 136.066 509.812 Q133.01 514.396 127.2 514.396 Q121.39 514.396 118.311 509.812 Q115.256 505.206 115.256 496.479 Q115.256 487.729 118.311 483.146 Q121.39 478.539 127.2 478.539 Z" fill="#000000" fill-rule="evenodd" fill-opacity="1" /><path clip-path="url(#clip510)" d="M147.362 507.845 L152.246 507.845 L152.246 513.724 L147.362 513.724 L147.362 507.845 Z" fill="#000000" fill-rule="evenodd" fill-opacity="1" /><path clip-path="url(#clip510)" d="M161.251 479.164 L183.473 479.164 L183.473 481.155 L170.927 513.724 L166.042 513.724 L177.848 483.099 L161.251 483.099 L161.251 479.164 Z" fill="#000000" fill-rule="evenodd" fill-opacity="1" /><path clip-path="url(#clip510)" d="M192.639 479.164 L210.996 479.164 L210.996 483.099 L196.922 483.099 L196.922 491.572 Q197.94 491.224 198.959 491.062 Q199.977 490.877 200.996 490.877 Q206.783 490.877 210.162 494.049 Q213.542 497.22 213.542 502.636 Q213.542 508.215 210.07 511.317 Q206.598 514.396 200.278 514.396 Q198.102 514.396 195.834 514.025 Q193.588 513.655 191.181 512.914 L191.181 508.215 Q193.264 509.349 195.487 509.905 Q197.709 510.46 200.186 510.46 Q204.19 510.46 206.528 508.354 Q208.866 506.248 208.866 502.636 Q208.866 499.025 206.528 496.919 Q204.19 494.812 200.186 494.812 Q198.311 494.812 196.436 495.229 Q194.584 495.646 192.639 496.525 L192.639 479.164 Z" fill="#000000" fill-rule="evenodd" fill-opacity="1" /><path clip-path="url(#clip510)" d="M117.015 216.747 L124.654 216.747 L124.654 190.382 L116.343 192.048 L116.343 187.789 L124.607 186.122 L129.283 186.122 L129.283 216.747 L136.922 216.747 L136.922 220.682 L117.015 220.682 L117.015 216.747 Z" fill="#000000" fill-rule="evenodd" fill-opacity="1" /><path clip-path="url(#clip510)" d="M146.366 214.803 L151.251 214.803 L151.251 220.682 L146.366 220.682 L146.366 214.803 Z" fill="#000000" fill-rule="evenodd" fill-opacity="1" /><path clip-path="url(#clip510)" d="M171.436 189.201 Q167.825 189.201 165.996 192.766 Q164.19 196.308 164.19 203.437 Q164.19 210.544 165.996 214.108 Q167.825 217.65 171.436 217.65 Q175.07 217.65 176.876 214.108 Q178.704 210.544 178.704 203.437 Q178.704 196.308 176.876 192.766 Q175.07 189.201 171.436 189.201 M171.436 185.497 Q177.246 185.497 180.301 190.104 Q183.38 194.687 183.38 203.437 Q183.38 212.164 180.301 216.77 Q177.246 221.354 171.436 221.354 Q165.626 221.354 162.547 216.77 Q159.491 212.164 159.491 203.437 Q159.491 194.687 162.547 190.104 Q165.626 185.497 171.436 185.497 Z" fill="#000000" fill-rule="evenodd" fill-opacity="1" /><path clip-path="url(#clip510)" d="M201.598 189.201 Q197.987 189.201 196.158 192.766 Q194.352 196.308 194.352 203.437 Q194.352 210.544 196.158 214.108 Q197.987 217.65 201.598 217.65 Q205.232 217.65 207.037 214.108 Q208.866 210.544 208.866 203.437 Q208.866 196.308 207.037 192.766 Q205.232 189.201 201.598 189.201 M201.598 185.497 Q207.408 185.497 210.463 190.104 Q213.542 194.687 213.542 203.437 Q213.542 212.164 210.463 216.77 Q207.408 221.354 201.598 221.354 Q195.787 221.354 192.709 216.77 Q189.653 212.164 189.653 203.437 Q189.653 194.687 192.709 190.104 Q195.787 185.497 201.598 185.497 Z" fill="#000000" fill-rule="evenodd" fill-opacity="1" /><path clip-path="url(#clip510)" d="M49.9359 788.509 L28.3562 788.509 L28.3562 782.652 L49.7131 782.652 Q54.7739 782.652 57.3202 780.679 Q59.8346 778.706 59.8346 774.759 Q59.8346 770.016 56.8109 767.279 Q53.7872 764.51 48.5673 764.51 L28.3562 764.51 L28.3562 758.654 L64.0042 758.654 L64.0042 764.51 L58.5296 764.51 Q61.7762 766.643 63.3676 769.475 Q64.9272 772.276 64.9272 776 Q64.9272 782.143 61.1078 785.326 Q57.2883 788.509 49.9359 788.509 M27.4968 773.772 L27.4968 773.772 Z" fill="#000000" fill-rule="evenodd" fill-opacity="1" /><path clip-path="url(#clip510)" d="M14.5426 732.522 Q21.8632 736.787 29.0246 738.856 Q36.186 740.925 43.5384 740.925 Q50.8908 740.925 58.1159 738.856 Q65.3091 736.756 72.5979 732.522 L72.5979 737.615 Q65.1182 742.389 57.8931 744.776 Q50.668 747.132 43.5384 747.132 Q36.4406 747.132 29.2474 744.776 Q22.0542 742.421 14.5426 737.615 L14.5426 732.522 Z" fill="#000000" fill-rule="evenodd" fill-opacity="1" /><path clip-path="url(#clip510)" d="M18.2347 715.367 L28.3562 715.367 L28.3562 703.304 L32.9077 703.304 L32.9077 715.367 L52.2594 715.367 Q56.6199 715.367 57.8613 714.189 Q59.1026 712.98 59.1026 709.319 L59.1026 703.304 L64.0042 703.304 L64.0042 709.319 Q64.0042 716.099 61.4897 718.677 Q58.9434 721.255 52.2594 721.255 L32.9077 721.255 L32.9077 725.552 L28.3562 725.552 L28.3562 721.255 L18.2347 721.255 L18.2347 715.367 Z" fill="#000000" fill-rule="evenodd" fill-opacity="1" /><path clip-path="url(#clip510)" d="M14.5426 696.524 L14.5426 691.432 Q22.0542 686.658 29.2474 684.302 Q36.4406 681.915 43.5384 681.915 Q50.668 681.915 57.8931 684.302 Q65.1182 686.658 72.5979 691.432 L72.5979 696.524 Q65.3091 692.291 58.1159 690.222 Q50.8908 688.122 43.5384 688.122 Q36.186 688.122 29.0246 690.222 Q21.8632 692.291 14.5426 696.524 Z" fill="#000000" fill-rule="evenodd" fill-opacity="1" /><polyline clip-path="url(#clip512)" style="stroke:#009af9; stroke-linecap:butt; stroke-linejoin:round; stroke-width:8; stroke-opacity:1; fill:none" points="
  309.067,203.402 320.405,241.159 333.631,283.671 350.042,334.213 368.685,388.795 389.839,447.275 413.004,507.344 438.102,568.044 464.827,628.024 493.026,686.489 
  522.503,742.719 553.124,796.278 584.761,846.858 617.321,894.307 650.728,938.567 684.926,979.663 719.874,1017.67 755.545,1052.7 791.924,1084.9 829.004,1114.42 
  866.789,1141.42 905.288,1166.05 944.517,1188.49 984.496,1208.89 1025.25,1227.4 1066.81,1244.16 1109.22,1259.3 1152.5,1272.96 1196.7,1285.26 1241.87,1296.3 
  1288.05,1306.2 1335.29,1315.05 1383.66,1322.94 1433.21,1329.96 1484.01,1336.18 1536.13,1341.68 1589.64,1346.54 1644.62,1350.8 1701.17,1354.53 1759.37,1357.79 
  1819.33,1360.61 1881.15,1363.06 1944.97,1365.16 2010.9,1366.97 2079.1,1368.51 2149.73,1369.81 2222.94,1370.91 2293.23,1371.76 
  "/>
<polyline clip-path="url(#clip512)" style="stroke:#000000; stroke-linecap:butt; stroke-linejoin:round; stroke-width:4; stroke-opacity:1; fill:none" points="
  309.067,320.619 309.067,86.1857 
  "/>
<polyline clip-path="url(#clip512)" style="stroke:#000000; stroke-linecap:butt; stroke-linejoin:round; stroke-width:4; stroke-opacity:1; fill:none" points="
  320.405,355.339 320.405,126.98 
  "/>
<polyline clip-path="url(#clip512)" style="stroke:#000000; stroke-linecap:butt; stroke-linejoin:round; stroke-width:4; stroke-opacity:1; fill:none" points="
  333.631,396.158 333.631,171.184 
  "/>
<polyline clip-path="url(#clip512)" style="stroke:#000000; stroke-linecap:butt; stroke-linejoin:round; stroke-width:4; stroke-opacity:1; fill:none" points="
  350.042,446.882 350.042,221.545 
  "/>
<polyline clip-path="url(#clip512)" style="stroke:#000000; stroke-linecap:butt; stroke-linejoin:round; stroke-width:4; stroke-opacity:1; fill:none" points="
  368.685,503.92 368.685,273.671 
  "/>
<polyline clip-path="url(#clip512)" style="stroke:#000000; stroke-linecap:butt; stroke-linejoin:round; stroke-width:4; stroke-opacity:1; fill:none" points="
  389.839,566.981 389.839,327.569 
  "/>
<polyline clip-path="url(#clip512)" style="stroke:#000000; stroke-linecap:butt; stroke-linejoin:round; stroke-width:4; stroke-opacity:1; fill:none" points="
  413.004,633.09 413.004,381.597 
  "/>
<polyline clip-path="url(#clip512)" style="stroke:#000000; stroke-linecap:butt; stroke-linejoin:round; stroke-width:4; stroke-opacity:1; fill:none" points="
  438.102,700.53 438.102,435.559 
  "/>
<polyline clip-path="url(#clip512)" style="stroke:#000000; stroke-linecap:butt; stroke-linejoin:round; stroke-width:4; stroke-opacity:1; fill:none" points="
  464.827,767.176 464.827,488.872 
  "/>
<polyline clip-path="url(#clip512)" style="stroke:#000000; stroke-linecap:butt; stroke-linejoin:round; stroke-width:4; stroke-opacity:1; fill:none" points="
  493.026,831.66 493.026,541.317 
  "/>
<polyline clip-path="url(#clip512)" style="stroke:#000000; stroke-linecap:butt; stroke-linejoin:round; stroke-width:4; stroke-opacity:1; fill:none" points="
  522.503,892.86 522.503,592.579 
  "/>
<polyline clip-path="url(#clip512)" style="stroke:#000000; stroke-linecap:butt; stroke-linejoin:round; stroke-width:4; stroke-opacity:1; fill:none" points="
  553.124,950.11 553.124,642.445 
  "/>
<polyline clip-path="url(#clip512)" style="stroke:#000000; stroke-linecap:butt; stroke-linejoin:round; stroke-width:4; stroke-opacity:1; fill:none" points="
  584.761,1003.01 584.761,690.709 
  "/>
<polyline clip-path="url(#clip512)" style="stroke:#000000; stroke-linecap:butt; stroke-linejoin:round; stroke-width:4; stroke-opacity:1; fill:none" points="
  617.321,1051.4 617.321,737.218 
  "/>
<polyline clip-path="url(#clip512)" style="stroke:#000000; stroke-linecap:butt; stroke-linejoin:round; stroke-width:4; stroke-opacity:1; fill:none" points="
  650.728,1095.28 650.728,781.853 
  "/>
<polyline clip-path="url(#clip512)" style="stroke:#000000; stroke-linecap:butt; stroke-linejoin:round; stroke-width:4; stroke-opacity:1; fill:none" points="
  684.926,1134.79 684.926,824.533 
  "/>
<polyline clip-path="url(#clip512)" style="stroke:#000000; stroke-linecap:butt; stroke-linejoin:round; stroke-width:4; stroke-opacity:1; fill:none" points="
  719.874,1170.13 719.874,865.208 
  "/>
<polyline clip-path="url(#clip512)" style="stroke:#000000; stroke-linecap:butt; stroke-linejoin:round; stroke-width:4; stroke-opacity:1; fill:none" points="
  755.545,1201.55 755.545,903.855 
  "/>
<polyline clip-path="url(#clip512)" style="stroke:#000000; stroke-linecap:butt; stroke-linejoin:round; stroke-width:4; stroke-opacity:1; fill:none" points="
  791.924,1229.33 791.924,940.475 
  "/>
<polyline clip-path="url(#clip512)" style="stroke:#000000; stroke-linecap:butt; stroke-linejoin:round; stroke-width:4; stroke-opacity:1; fill:none" points="
  829.004,1253.75 829.004,975.083 
  "/>
<polyline clip-path="url(#clip512)" style="stroke:#000000; stroke-linecap:butt; stroke-linejoin:round; stroke-width:4; stroke-opacity:1; fill:none" points="
  866.789,1275.12 866.789,1007.71 
  "/>
<polyline clip-path="url(#clip512)" style="stroke:#000000; stroke-linecap:butt; stroke-linejoin:round; stroke-width:4; stroke-opacity:1; fill:none" points="
  905.288,1293.7 905.288,1038.41 
  "/>
<polyline clip-path="url(#clip512)" style="stroke:#000000; stroke-linecap:butt; stroke-linejoin:round; stroke-width:4; stroke-opacity:1; fill:none" points="
  944.517,1309.77 944.517,1067.22 
  "/>
<polyline clip-path="url(#clip512)" style="stroke:#000000; stroke-linecap:butt; stroke-linejoin:round; stroke-width:4; stroke-opacity:1; fill:none" points="
  984.496,1323.59 984.496,1094.2 
  "/>
<polyline clip-path="url(#clip512)" style="stroke:#000000; stroke-linecap:butt; stroke-linejoin:round; stroke-width:4; stroke-opacity:1; fill:none" points="
  1025.25,1335.39 1025.25,1119.41 
  "/>
<polyline clip-path="url(#clip512)" style="stroke:#000000; stroke-linecap:butt; stroke-linejoin:round; stroke-width:4; stroke-opacity:1; fill:none" points="
  1066.81,1345.39 1066.81,1142.93 
  "/>
<polyline clip-path="url(#clip512)" style="stroke:#000000; stroke-linecap:butt; stroke-linejoin:round; stroke-width:4; stroke-opacity:1; fill:none" points="
  1109.22,1353.79 1109.22,1164.81 
  "/>
<polyline clip-path="url(#clip512)" style="stroke:#000000; stroke-linecap:butt; stroke-linejoin:round; stroke-width:4; stroke-opacity:1; fill:none" points="
  1152.5,1360.8 1152.5,1185.13 
  "/>
<polyline clip-path="url(#clip512)" style="stroke:#000000; stroke-linecap:butt; stroke-linejoin:round; stroke-width:4; stroke-opacity:1; fill:none" points="
  1196.7,1366.57 1196.7,1203.96 
  "/>
<polyline clip-path="url(#clip512)" style="stroke:#000000; stroke-linecap:butt; stroke-linejoin:round; stroke-width:4; stroke-opacity:1; fill:none" points="
  1241.87,1371.25 1241.87,1221.35 
  "/>
<polyline clip-path="url(#clip512)" style="stroke:#000000; stroke-linecap:butt; stroke-linejoin:round; stroke-width:4; stroke-opacity:1; fill:none" points="
  1288.05,1375 1288.05,1237.4 
  "/>
<polyline clip-path="url(#clip512)" style="stroke:#000000; stroke-linecap:butt; stroke-linejoin:round; stroke-width:4; stroke-opacity:1; fill:none" points="
  1335.29,1377.94 1335.29,1252.15 
  "/>
<polyline clip-path="url(#clip512)" style="stroke:#000000; stroke-linecap:butt; stroke-linejoin:round; stroke-width:4; stroke-opacity:1; fill:none" points="
  1383.66,1380.19 1383.66,1265.69 
  "/>
<polyline clip-path="url(#clip512)" style="stroke:#000000; stroke-linecap:butt; stroke-linejoin:round; stroke-width:4; stroke-opacity:1; fill:none" points="
  1433.21,1381.84 1433.21,1278.07 
  "/>
<polyline clip-path="url(#clip512)" style="stroke:#000000; stroke-linecap:butt; stroke-linejoin:round; stroke-width:4; stroke-opacity:1; fill:none" points="
  1484.01,1383 1484.01,1289.36 
  "/>
<polyline clip-path="url(#clip512)" style="stroke:#000000; stroke-linecap:butt; stroke-linejoin:round; stroke-width:4; stroke-opacity:1; fill:none" points="
  1536.13,1383.73 1536.13,1299.63 
  "/>
<polyline clip-path="url(#clip512)" style="stroke:#000000; stroke-linecap:butt; stroke-linejoin:round; stroke-width:4; stroke-opacity:1; fill:none" points="
  1589.64,1384.13 1589.64,1308.95 
  "/>
<polyline clip-path="url(#clip512)" style="stroke:#000000; stroke-linecap:butt; stroke-linejoin:round; stroke-width:4; stroke-opacity:1; fill:none" points="
  1644.62,1384.24 1644.62,1317.36 
  "/>
<polyline clip-path="url(#clip512)" style="stroke:#000000; stroke-linecap:butt; stroke-linejoin:round; stroke-width:4; stroke-opacity:1; fill:none" points="
  1701.17,1384.13 1701.17,1324.93 
  "/>
<polyline clip-path="url(#clip512)" style="stroke:#000000; stroke-linecap:butt; stroke-linejoin:round; stroke-width:4; stroke-opacity:1; fill:none" points="
  1759.37,1383.85 1759.37,1331.73 
  "/>
<polyline clip-path="url(#clip512)" style="stroke:#000000; stroke-linecap:butt; stroke-linejoin:round; stroke-width:4; stroke-opacity:1; fill:none" points="
  1819.33,1383.43 1819.33,1337.79 
  "/>
<polyline clip-path="url(#clip512)" style="stroke:#000000; stroke-linecap:butt; stroke-linejoin:round; stroke-width:4; stroke-opacity:1; fill:none" points="
  1881.15,1382.92 1881.15,1343.19 
  "/>
<polyline clip-path="url(#clip512)" style="stroke:#000000; stroke-linecap:butt; stroke-linejoin:round; stroke-width:4; stroke-opacity:1; fill:none" points="
  1944.97,1382.35 1944.97,1347.97 
  "/>
<polyline clip-path="url(#clip512)" style="stroke:#000000; stroke-linecap:butt; stroke-linejoin:round; stroke-width:4; stroke-opacity:1; fill:none" points="
  2010.9,1381.75 2010.9,1352.19 
  "/>
<polyline clip-path="url(#clip512)" style="stroke:#000000; stroke-linecap:butt; stroke-linejoin:round; stroke-width:4; stroke-opacity:1; fill:none" points="
  2079.1,1381.13 2079.1,1355.88 
  "/>
<polyline clip-path="url(#clip512)" style="stroke:#000000; stroke-linecap:butt; stroke-linejoin:round; stroke-width:4; stroke-opacity:1; fill:none" points="
  2149.73,1380.51 2149.73,1359.11 
  "/>
<polyline clip-path="url(#clip512)" style="stroke:#000000; stroke-linecap:butt; stroke-linejoin:round; stroke-width:4; stroke-opacity:1; fill:none" points="
  2222.94,1379.91 2222.94,1361.9 
  "/>
<polyline clip-path="url(#clip512)" style="stroke:#000000; stroke-linecap:butt; stroke-linejoin:round; stroke-width:4; stroke-opacity:1; fill:none" points="
  2293.23,1379.39 2293.23,1364.14 
  "/>
<line clip-path="url(#clip512)" x1="325.067" y1="320.619" x2="293.067" y2="320.619" style="stroke:#000000; stroke-width:3.2; stroke-opacity:1"/>
<line clip-path="url(#clip512)" x1="325.067" y1="86.1857" x2="293.067" y2="86.1857" style="stroke:#000000; stroke-width:3.2; stroke-opacity:1"/>
<line clip-path="url(#clip512)" x1="336.405" y1="355.339" x2="304.405" y2="355.339" style="stroke:#000000; stroke-width:3.2; stroke-opacity:1"/>
<line clip-path="url(#clip512)" x1="336.405" y1="126.98" x2="304.405" y2="126.98" style="stroke:#000000; stroke-width:3.2; stroke-opacity:1"/>
<line clip-path="url(#clip512)" x1="349.631" y1="396.158" x2="317.631" y2="396.158" style="stroke:#000000; stroke-width:3.2; stroke-opacity:1"/>
<line clip-path="url(#clip512)" x1="349.631" y1="171.184" x2="317.631" y2="171.184" style="stroke:#000000; stroke-width:3.2; stroke-opacity:1"/>
<line clip-path="url(#clip512)" x1="366.042" y1="446.882" x2="334.042" y2="446.882" style="stroke:#000000; stroke-width:3.2; stroke-opacity:1"/>
<line clip-path="url(#clip512)" x1="366.042" y1="221.545" x2="334.042" y2="221.545" style="stroke:#000000; stroke-width:3.2; stroke-opacity:1"/>
<line clip-path="url(#clip512)" x1="384.685" y1="503.92" x2="352.685" y2="503.92" style="stroke:#000000; stroke-width:3.2; stroke-opacity:1"/>
<line clip-path="url(#clip512)" x1="384.685" y1="273.671" x2="352.685" y2="273.671" style="stroke:#000000; stroke-width:3.2; stroke-opacity:1"/>
<line clip-path="url(#clip512)" x1="405.839" y1="566.981" x2="373.839" y2="566.981" style="stroke:#000000; stroke-width:3.2; stroke-opacity:1"/>
<line clip-path="url(#clip512)" x1="405.839" y1="327.569" x2="373.839" y2="327.569" style="stroke:#000000; stroke-width:3.2; stroke-opacity:1"/>
<line clip-path="url(#clip512)" x1="429.004" y1="633.09" x2="397.004" y2="633.09" style="stroke:#000000; stroke-width:3.2; stroke-opacity:1"/>
<line clip-path="url(#clip512)" x1="429.004" y1="381.597" x2="397.004" y2="381.597" style="stroke:#000000; stroke-width:3.2; stroke-opacity:1"/>
<line clip-path="url(#clip512)" x1="454.102" y1="700.53" x2="422.102" y2="700.53" style="stroke:#000000; stroke-width:3.2; stroke-opacity:1"/>
<line clip-path="url(#clip512)" x1="454.102" y1="435.559" x2="422.102" y2="435.559" style="stroke:#000000; stroke-width:3.2; stroke-opacity:1"/>
<line clip-path="url(#clip512)" x1="480.827" y1="767.176" x2="448.827" y2="767.176" style="stroke:#000000; stroke-width:3.2; stroke-opacity:1"/>
<line clip-path="url(#clip512)" x1="480.827" y1="488.872" x2="448.827" y2="488.872" style="stroke:#000000; stroke-width:3.2; stroke-opacity:1"/>
<line clip-path="url(#clip512)" x1="509.026" y1="831.66" x2="477.026" y2="831.66" style="stroke:#000000; stroke-width:3.2; stroke-opacity:1"/>
<line clip-path="url(#clip512)" x1="509.026" y1="541.317" x2="477.026" y2="541.317" style="stroke:#000000; stroke-width:3.2; stroke-opacity:1"/>
<line clip-path="url(#clip512)" x1="538.503" y1="892.86" x2="506.503" y2="892.86" style="stroke:#000000; stroke-width:3.2; stroke-opacity:1"/>
<line clip-path="url(#clip512)" x1="538.503" y1="592.579" x2="506.503" y2="592.579" style="stroke:#000000; stroke-width:3.2; stroke-opacity:1"/>
<line clip-path="url(#clip512)" x1="569.124" y1="950.11" x2="537.124" y2="950.11" style="stroke:#000000; stroke-width:3.2; stroke-opacity:1"/>
<line clip-path="url(#clip512)" x1="569.124" y1="642.445" x2="537.124" y2="642.445" style="stroke:#000000; stroke-width:3.2; stroke-opacity:1"/>
<line clip-path="url(#clip512)" x1="600.761" y1="1003.01" x2="568.761" y2="1003.01" style="stroke:#000000; stroke-width:3.2; stroke-opacity:1"/>
<line clip-path="url(#clip512)" x1="600.761" y1="690.709" x2="568.761" y2="690.709" style="stroke:#000000; stroke-width:3.2; stroke-opacity:1"/>
<line clip-path="url(#clip512)" x1="633.321" y1="1051.4" x2="601.321" y2="1051.4" style="stroke:#000000; stroke-width:3.2; stroke-opacity:1"/>
<line clip-path="url(#clip512)" x1="633.321" y1="737.218" x2="601.321" y2="737.218" style="stroke:#000000; stroke-width:3.2; stroke-opacity:1"/>
<line clip-path="url(#clip512)" x1="666.728" y1="1095.28" x2="634.728" y2="1095.28" style="stroke:#000000; stroke-width:3.2; stroke-opacity:1"/>
<line clip-path="url(#clip512)" x1="666.728" y1="781.853" x2="634.728" y2="781.853" style="stroke:#000000; stroke-width:3.2; stroke-opacity:1"/>
<line clip-path="url(#clip512)" x1="700.926" y1="1134.79" x2="668.926" y2="1134.79" style="stroke:#000000; stroke-width:3.2; stroke-opacity:1"/>
<line clip-path="url(#clip512)" x1="700.926" y1="824.533" x2="668.926" y2="824.533" style="stroke:#000000; stroke-width:3.2; stroke-opacity:1"/>
<line clip-path="url(#clip512)" x1="735.874" y1="1170.13" x2="703.874" y2="1170.13" style="stroke:#000000; stroke-width:3.2; stroke-opacity:1"/>
<line clip-path="url(#clip512)" x1="735.874" y1="865.208" x2="703.874" y2="865.208" style="stroke:#000000; stroke-width:3.2; stroke-opacity:1"/>
<line clip-path="url(#clip512)" x1="771.545" y1="1201.55" x2="739.545" y2="1201.55" style="stroke:#000000; stroke-width:3.2; stroke-opacity:1"/>
<line clip-path="url(#clip512)" x1="771.545" y1="903.855" x2="739.545" y2="903.855" style="stroke:#000000; stroke-width:3.2; stroke-opacity:1"/>
<line clip-path="url(#clip512)" x1="807.924" y1="1229.33" x2="775.924" y2="1229.33" style="stroke:#000000; stroke-width:3.2; stroke-opacity:1"/>
<line clip-path="url(#clip512)" x1="807.924" y1="940.475" x2="775.924" y2="940.475" style="stroke:#000000; stroke-width:3.2; stroke-opacity:1"/>
<line clip-path="url(#clip512)" x1="845.004" y1="1253.75" x2="813.004" y2="1253.75" style="stroke:#000000; stroke-width:3.2; stroke-opacity:1"/>
<line clip-path="url(#clip512)" x1="845.004" y1="975.083" x2="813.004" y2="975.083" style="stroke:#000000; stroke-width:3.2; stroke-opacity:1"/>
<line clip-path="url(#clip512)" x1="882.789" y1="1275.12" x2="850.789" y2="1275.12" style="stroke:#000000; stroke-width:3.2; stroke-opacity:1"/>
<line clip-path="url(#clip512)" x1="882.789" y1="1007.71" x2="850.789" y2="1007.71" style="stroke:#000000; stroke-width:3.2; stroke-opacity:1"/>
<line clip-path="url(#clip512)" x1="921.288" y1="1293.7" x2="889.288" y2="1293.7" style="stroke:#000000; stroke-width:3.2; stroke-opacity:1"/>
<line clip-path="url(#clip512)" x1="921.288" y1="1038.41" x2="889.288" y2="1038.41" style="stroke:#000000; stroke-width:3.2; stroke-opacity:1"/>
<line clip-path="url(#clip512)" x1="960.517" y1="1309.77" x2="928.517" y2="1309.77" style="stroke:#000000; stroke-width:3.2; stroke-opacity:1"/>
<line clip-path="url(#clip512)" x1="960.517" y1="1067.22" x2="928.517" y2="1067.22" style="stroke:#000000; stroke-width:3.2; stroke-opacity:1"/>
<line clip-path="url(#clip512)" x1="1000.5" y1="1323.59" x2="968.496" y2="1323.59" style="stroke:#000000; stroke-width:3.2; stroke-opacity:1"/>
<line clip-path="url(#clip512)" x1="1000.5" y1="1094.2" x2="968.496" y2="1094.2" style="stroke:#000000; stroke-width:3.2; stroke-opacity:1"/>
<line clip-path="url(#clip512)" x1="1041.25" y1="1335.39" x2="1009.25" y2="1335.39" style="stroke:#000000; stroke-width:3.2; stroke-opacity:1"/>
<line clip-path="url(#clip512)" x1="1041.25" y1="1119.41" x2="1009.25" y2="1119.41" style="stroke:#000000; stroke-width:3.2; stroke-opacity:1"/>
<line clip-path="url(#clip512)" x1="1082.81" y1="1345.39" x2="1050.81" y2="1345.39" style="stroke:#000000; stroke-width:3.2; stroke-opacity:1"/>
<line clip-path="url(#clip512)" x1="1082.81" y1="1142.93" x2="1050.81" y2="1142.93" style="stroke:#000000; stroke-width:3.2; stroke-opacity:1"/>
<line clip-path="url(#clip512)" x1="1125.22" y1="1353.79" x2="1093.22" y2="1353.79" style="stroke:#000000; stroke-width:3.2; stroke-opacity:1"/>
<line clip-path="url(#clip512)" x1="1125.22" y1="1164.81" x2="1093.22" y2="1164.81" style="stroke:#000000; stroke-width:3.2; stroke-opacity:1"/>
<line clip-path="url(#clip512)" x1="1168.5" y1="1360.8" x2="1136.5" y2="1360.8" style="stroke:#000000; stroke-width:3.2; stroke-opacity:1"/>
<line clip-path="url(#clip512)" x1="1168.5" y1="1185.13" x2="1136.5" y2="1185.13" style="stroke:#000000; stroke-width:3.2; stroke-opacity:1"/>
<line clip-path="url(#clip512)" x1="1212.7" y1="1366.57" x2="1180.7" y2="1366.57" style="stroke:#000000; stroke-width:3.2; stroke-opacity:1"/>
<line clip-path="url(#clip512)" x1="1212.7" y1="1203.96" x2="1180.7" y2="1203.96" style="stroke:#000000; stroke-width:3.2; stroke-opacity:1"/>
<line clip-path="url(#clip512)" x1="1257.87" y1="1371.25" x2="1225.87" y2="1371.25" style="stroke:#000000; stroke-width:3.2; stroke-opacity:1"/>
<line clip-path="url(#clip512)" x1="1257.87" y1="1221.35" x2="1225.87" y2="1221.35" style="stroke:#000000; stroke-width:3.2; stroke-opacity:1"/>
<line clip-path="url(#clip512)" x1="1304.05" y1="1375" x2="1272.05" y2="1375" style="stroke:#000000; stroke-width:3.2; stroke-opacity:1"/>
<line clip-path="url(#clip512)" x1="1304.05" y1="1237.4" x2="1272.05" y2="1237.4" style="stroke:#000000; stroke-width:3.2; stroke-opacity:1"/>
<line clip-path="url(#clip512)" x1="1351.29" y1="1377.94" x2="1319.29" y2="1377.94" style="stroke:#000000; stroke-width:3.2; stroke-opacity:1"/>
<line clip-path="url(#clip512)" x1="1351.29" y1="1252.15" x2="1319.29" y2="1252.15" style="stroke:#000000; stroke-width:3.2; stroke-opacity:1"/>
<line clip-path="url(#clip512)" x1="1399.66" y1="1380.19" x2="1367.66" y2="1380.19" style="stroke:#000000; stroke-width:3.2; stroke-opacity:1"/>
<line clip-path="url(#clip512)" x1="1399.66" y1="1265.69" x2="1367.66" y2="1265.69" style="stroke:#000000; stroke-width:3.2; stroke-opacity:1"/>
<line clip-path="url(#clip512)" x1="1449.21" y1="1381.84" x2="1417.21" y2="1381.84" style="stroke:#000000; stroke-width:3.2; stroke-opacity:1"/>
<line clip-path="url(#clip512)" x1="1449.21" y1="1278.07" x2="1417.21" y2="1278.07" style="stroke:#000000; stroke-width:3.2; stroke-opacity:1"/>
<line clip-path="url(#clip512)" x1="1500.01" y1="1383" x2="1468.01" y2="1383" style="stroke:#000000; stroke-width:3.2; stroke-opacity:1"/>
<line clip-path="url(#clip512)" x1="1500.01" y1="1289.36" x2="1468.01" y2="1289.36" style="stroke:#000000; stroke-width:3.2; stroke-opacity:1"/>
<line clip-path="url(#clip512)" x1="1552.13" y1="1383.73" x2="1520.13" y2="1383.73" style="stroke:#000000; stroke-width:3.2; stroke-opacity:1"/>
<line clip-path="url(#clip512)" x1="1552.13" y1="1299.63" x2="1520.13" y2="1299.63" style="stroke:#000000; stroke-width:3.2; stroke-opacity:1"/>
<line clip-path="url(#clip512)" x1="1605.64" y1="1384.13" x2="1573.64" y2="1384.13" style="stroke:#000000; stroke-width:3.2; stroke-opacity:1"/>
<line clip-path="url(#clip512)" x1="1605.64" y1="1308.95" x2="1573.64" y2="1308.95" style="stroke:#000000; stroke-width:3.2; stroke-opacity:1"/>
<line clip-path="url(#clip512)" x1="1660.62" y1="1384.24" x2="1628.62" y2="1384.24" style="stroke:#000000; stroke-width:3.2; stroke-opacity:1"/>
<line clip-path="url(#clip512)" x1="1660.62" y1="1317.36" x2="1628.62" y2="1317.36" style="stroke:#000000; stroke-width:3.2; stroke-opacity:1"/>
<line clip-path="url(#clip512)" x1="1717.17" y1="1384.13" x2="1685.17" y2="1384.13" style="stroke:#000000; stroke-width:3.2; stroke-opacity:1"/>
<line clip-path="url(#clip512)" x1="1717.17" y1="1324.93" x2="1685.17" y2="1324.93" style="stroke:#000000; stroke-width:3.2; stroke-opacity:1"/>
<line clip-path="url(#clip512)" x1="1775.37" y1="1383.85" x2="1743.37" y2="1383.85" style="stroke:#000000; stroke-width:3.2; stroke-opacity:1"/>
<line clip-path="url(#clip512)" x1="1775.37" y1="1331.73" x2="1743.37" y2="1331.73" style="stroke:#000000; stroke-width:3.2; stroke-opacity:1"/>
<line clip-path="url(#clip512)" x1="1835.33" y1="1383.43" x2="1803.33" y2="1383.43" style="stroke:#000000; stroke-width:3.2; stroke-opacity:1"/>
<line clip-path="url(#clip512)" x1="1835.33" y1="1337.79" x2="1803.33" y2="1337.79" style="stroke:#000000; stroke-width:3.2; stroke-opacity:1"/>
<line clip-path="url(#clip512)" x1="1897.15" y1="1382.92" x2="1865.15" y2="1382.92" style="stroke:#000000; stroke-width:3.2; stroke-opacity:1"/>
<line clip-path="url(#clip512)" x1="1897.15" y1="1343.19" x2="1865.15" y2="1343.19" style="stroke:#000000; stroke-width:3.2; stroke-opacity:1"/>
<line clip-path="url(#clip512)" x1="1960.97" y1="1382.35" x2="1928.97" y2="1382.35" style="stroke:#000000; stroke-width:3.2; stroke-opacity:1"/>
<line clip-path="url(#clip512)" x1="1960.97" y1="1347.97" x2="1928.97" y2="1347.97" style="stroke:#000000; stroke-width:3.2; stroke-opacity:1"/>
<line clip-path="url(#clip512)" x1="2026.9" y1="1381.75" x2="1994.9" y2="1381.75" style="stroke:#000000; stroke-width:3.2; stroke-opacity:1"/>
<line clip-path="url(#clip512)" x1="2026.9" y1="1352.19" x2="1994.9" y2="1352.19" style="stroke:#000000; stroke-width:3.2; stroke-opacity:1"/>
<line clip-path="url(#clip512)" x1="2095.1" y1="1381.13" x2="2063.1" y2="1381.13" style="stroke:#000000; stroke-width:3.2; stroke-opacity:1"/>
<line clip-path="url(#clip512)" x1="2095.1" y1="1355.88" x2="2063.1" y2="1355.88" style="stroke:#000000; stroke-width:3.2; stroke-opacity:1"/>
<line clip-path="url(#clip512)" x1="2165.73" y1="1380.51" x2="2133.73" y2="1380.51" style="stroke:#000000; stroke-width:3.2; stroke-opacity:1"/>
<line clip-path="url(#clip512)" x1="2165.73" y1="1359.11" x2="2133.73" y2="1359.11" style="stroke:#000000; stroke-width:3.2; stroke-opacity:1"/>
<line clip-path="url(#clip512)" x1="2238.94" y1="1379.91" x2="2206.94" y2="1379.91" style="stroke:#000000; stroke-width:3.2; stroke-opacity:1"/>
<line clip-path="url(#clip512)" x1="2238.94" y1="1361.9" x2="2206.94" y2="1361.9" style="stroke:#000000; stroke-width:3.2; stroke-opacity:1"/>
<line clip-path="url(#clip512)" x1="2309.23" y1="1379.39" x2="2277.23" y2="1379.39" style="stroke:#000000; stroke-width:3.2; stroke-opacity:1"/>
<line clip-path="url(#clip512)" x1="2309.23" y1="1364.14" x2="2277.23" y2="1364.14" style="stroke:#000000; stroke-width:3.2; stroke-opacity:1"/>
</svg>
